<?xml version="1.0" encoding="utf-8"?>
<!-- Generator: Adobe Illustrator 19.0.0, SVG Export Plug-In . SVG Version: 6.00 Build 0)  -->
<svg version="1.2" baseProfile="tiny" xmlns="http://www.w3.org/2000/svg" xmlns:xlink="http://www.w3.org/1999/xlink" x="0px"
	 y="0px" viewBox="0 0 300 300" xml:space="preserve">
<g id="Слой_2">
	<rect fill="#FFFFFF" width="300" height="300"/>
</g>
<g id="Слой_1">
	<g>
		<path fill="#2980B9" d="M70.2,188.5l0.5-4.7h-0.2l-1.8,5l-9.4,17.3h-4.7V173h6v17.3l-0.5,4.8h0.2l1.9-5.2l9.4-17h4.6v33.1h-6
			V188.5z"/>
		<path fill="#2980B9" d="M111.2,178.5h-8.6v27.6h-6V173h20.5v33.1h-6V178.5z"/>
		<path fill="#2980B9" d="M158.7,189.1l0.7-6.3h-0.2l-1.8,5.7L152,200h-2l-5.7-11.7l-1.8-5.7h-0.3l0.9,6.4v17.1h-5.6V173h5.7
			l6.9,14.3l1.1,4.1h0.2l1.1-4.2L159,173h5.6v33.1h-6V189.1z"/>
		<path fill="#2980B9" d="M185,173h16.6v5.5H191v8.1h9.6v5.5H191v8.5h10.8v5.5H185V173z"/>
		<path fill="#2980B9" d="M228.3,189.3l-7.3-16.3h7.2l3.8,9.5l0.9,3.6l0.9-3.6l4-9.5h6.4l-7.6,15.9l7.9,17.2h-7l-4.4-10.2l-1-3.7
			l-0.9,3.7l-4.4,10.2h-6.6L228.3,189.3z"/>
	</g>
	<g>
		<path fill="#2980B9" d="M61.1,220.5l0.1-1.2h0l-0.4,1.2l-3.3,5.8h-0.6v-8.9h0.9v5.9l-0.1,1.1h0.1l0.4-1.2l3.3-5.8h0.6v8.9h-0.9
			V220.5z"/>
		<path fill="#2980B9" d="M74.4,220.4l0.1-1.3h-0.1l-0.4,1.3l-1.8,3.8H72l-1.9-3.8l-0.4-1.3h-0.1l0.2,1.3v5.8h-0.9v-8.9h0.8l2.1,4.4
			l0.3,1h0l0.3-1l2-4.3h0.8v8.9h-0.9V220.4z"/>
		<path fill="#2980B9" d="M76.8,225.7c0-0.2,0.1-0.4,0.2-0.5c0.1-0.1,0.3-0.2,0.5-0.2s0.3,0.1,0.5,0.2c0.1,0.1,0.2,0.3,0.2,0.5
			c0,0.2-0.1,0.4-0.2,0.5c-0.1,0.1-0.3,0.2-0.5,0.2s-0.3-0.1-0.5-0.2C76.9,226.1,76.8,225.9,76.8,225.7z"/>
		<path fill="#2980B9" d="M95.6,223.8h-2.5l-0.7,2.5h-0.9l2.7-9h0.5l2.7,9h-1L95.6,223.8z M93.4,222.9h2l-0.8-2.8l-0.2-1.3h0
			l-0.2,1.4L93.4,222.9z"/>
		<path fill="#2980B9" d="M98.4,225.7c0-0.2,0.1-0.4,0.2-0.5c0.1-0.1,0.3-0.2,0.5-0.2s0.3,0.1,0.5,0.2c0.1,0.1,0.2,0.3,0.2,0.5
			c0,0.2-0.1,0.4-0.2,0.5c-0.1,0.1-0.3,0.2-0.5,0.2s-0.3-0.1-0.5-0.2C98.4,226.1,98.4,225.9,98.4,225.7z"/>
		<path fill="#2980B9" d="M107.1,221.3h1.2c0-1.3,0.3-2.3,0.7-3c0.5-0.7,1.1-1,2.1-1c0.5,0,1,0.1,1.3,0.3c0.4,0.2,0.6,0.5,0.9,0.9
			c0.2,0.4,0.4,0.9,0.5,1.4c0.1,0.6,0.1,1.2,0.1,1.9c0,1.5-0.2,2.6-0.7,3.4c-0.4,0.8-1.2,1.2-2.1,1.2c-0.5,0-0.9-0.1-1.3-0.3
			c-0.3-0.2-0.6-0.5-0.9-0.9c-0.2-0.4-0.4-0.8-0.5-1.3c-0.1-0.5-0.2-1.1-0.2-1.8h-1.2v4.1h-0.9v-8.9h0.9V221.3z M109.3,221.8
			c0,0.5,0,1,0.1,1.4c0.1,0.4,0.2,0.8,0.3,1.2c0.1,0.3,0.3,0.6,0.6,0.8c0.2,0.2,0.5,0.3,0.9,0.3c0.6,0,1.1-0.3,1.4-0.9
			c0.3-0.6,0.4-1.5,0.4-2.8c0-0.5,0-1-0.1-1.4c-0.1-0.5-0.1-0.8-0.3-1.2c-0.1-0.3-0.3-0.6-0.5-0.8c-0.2-0.2-0.5-0.3-0.9-0.3
			c-0.6,0-1.1,0.3-1.4,0.9C109.4,219.6,109.3,220.6,109.3,221.8z"/>
		<path fill="#2980B9" d="M114.9,225.7c0-0.2,0.1-0.4,0.2-0.5c0.1-0.1,0.3-0.2,0.5-0.2s0.3,0.1,0.5,0.2c0.1,0.1,0.2,0.3,0.2,0.5
			c0,0.2-0.1,0.4-0.2,0.5c-0.1,0.1-0.3,0.2-0.5,0.2s-0.3-0.1-0.5-0.2C115,226.1,114.9,225.9,114.9,225.7z"/>
		<path fill="#2980B9" d="M134.6,220.5l0.1-1.2h0l-0.4,1.2l-3.3,5.8h-0.6v-8.9h0.9v5.9l-0.1,1.1h0.1l0.4-1.2l3.3-5.8h0.6v8.9h-0.9
			V220.5z"/>
		<path fill="#2980B9" d="M142.4,226.2v-8.9h0.9v8h2.2v-8h0.9v8h2.2v-8h0.9v8.9H142.4z"/>
		<path fill="#2980B9" d="M160.5,218.3h-2c-0.1,1.7-0.2,3.1-0.3,4.2c-0.1,1.1-0.3,2-0.5,2.6c-0.1,0.4-0.3,0.7-0.5,0.9
			c-0.2,0.2-0.5,0.3-0.7,0.3c-0.2,0-0.5,0-0.6-0.1l0.1-0.9c0.2,0.1,0.3,0,0.5,0c0.1-0.1,0.3-0.3,0.4-0.6c0.1-0.2,0.2-0.5,0.3-0.9
			c0.1-0.4,0.2-0.9,0.2-1.5c0.1-0.6,0.1-1.3,0.2-2.1c0-0.8,0.1-1.8,0.1-2.8h3.9v8.9h-0.9V218.3z"/>
		<path fill="#2980B9" d="M172.7,220.5l0.1-1.2h0l-0.4,1.2l-3.3,5.8h-0.6v-8.9h0.9v5.9l-0.1,1.1h0.1l0.4-1.2l3.3-5.8h0.6v8.9h-0.9
			V220.5z"/>
		<path fill="#2980B9" d="M184.7,222.2h-3.3v4.1h-0.9v-8.9h0.9v3.9h3.3v-3.9h0.9v8.9h-0.9V222.2z"/>
		<path fill="#2980B9" d="M197.1,225.9c-0.2,0.2-0.5,0.3-0.8,0.4c-0.3,0.1-0.7,0.1-1,0.1c-0.4,0-0.9-0.1-1.2-0.3
			c-0.4-0.2-0.7-0.4-1-0.8c-0.3-0.4-0.5-0.8-0.6-1.4c-0.2-0.6-0.2-1.3-0.2-2.1c0-0.8,0.1-1.6,0.3-2.1c0.2-0.6,0.4-1.1,0.7-1.4
			c0.3-0.4,0.6-0.6,1-0.8c0.4-0.2,0.8-0.2,1.2-0.2c0.4,0,0.7,0,1,0.1c0.3,0.1,0.5,0.1,0.7,0.2l-0.2,0.9c-0.2-0.1-0.4-0.2-0.6-0.2
			c-0.2-0.1-0.5-0.1-0.8-0.1c-0.3,0-0.6,0.1-0.8,0.2c-0.3,0.1-0.5,0.3-0.7,0.6c-0.2,0.3-0.4,0.7-0.5,1.1c-0.1,0.5-0.2,1-0.2,1.7
			c0,1.2,0.2,2.2,0.6,2.8c0.4,0.6,1,0.9,1.7,0.9c0.3,0,0.5,0,0.8-0.1c0.2-0.1,0.4-0.2,0.6-0.3L197.1,225.9z"/>
		<path fill="#2980B9" d="M205,222.2h-0.5v4.1h-0.9v-8.9h0.9v4.1l0.4-0.2l2.3-3.9h1.1l-2.3,3.8l-0.4,0.4l0.5,0.5l2.6,4.1h-1.2
			L205,222.2z"/>
		<path fill="#2980B9" d="M214.4,221.8c0-1.5,0.2-2.6,0.7-3.4c0.5-0.8,1.2-1.2,2.2-1.2c0.5,0,1,0.1,1.4,0.3c0.4,0.2,0.7,0.5,0.9,0.9
			s0.4,0.9,0.5,1.4c0.1,0.6,0.2,1.2,0.2,1.9c0,1.5-0.2,2.6-0.7,3.4c-0.5,0.8-1.2,1.2-2.2,1.2c-0.5,0-1-0.1-1.3-0.3
			c-0.4-0.2-0.7-0.5-0.9-0.9c-0.2-0.4-0.4-0.9-0.5-1.4C214.5,223.2,214.4,222.5,214.4,221.8z M215.4,221.8c0,0.5,0,1,0.1,1.4
			c0.1,0.4,0.2,0.8,0.3,1.2c0.2,0.3,0.3,0.6,0.6,0.8s0.5,0.3,0.9,0.3c0.6,0,1.1-0.3,1.4-0.9c0.3-0.6,0.5-1.5,0.5-2.8
			c0-0.5,0-1-0.1-1.4c-0.1-0.4-0.2-0.8-0.3-1.2c-0.2-0.3-0.3-0.6-0.6-0.8s-0.5-0.3-0.9-0.3c-0.6,0-1.1,0.3-1.4,0.9
			S215.4,220.6,215.4,221.8z"/>
		<path fill="#2980B9" d="M230.8,218.3h-2.9v8h-0.9v-8.9h3.9V218.3z"/>
		<path fill="#2980B9" d="M236.5,221.8c0-1.5,0.2-2.6,0.7-3.4c0.5-0.8,1.2-1.2,2.2-1.2c0.5,0,1,0.1,1.4,0.3c0.4,0.2,0.7,0.5,0.9,0.9
			s0.4,0.9,0.5,1.4c0.1,0.6,0.2,1.2,0.2,1.9c0,1.5-0.2,2.6-0.7,3.4s-1.2,1.2-2.2,1.2c-0.5,0-1-0.1-1.3-0.3c-0.4-0.2-0.7-0.5-0.9-0.9
			c-0.2-0.4-0.4-0.9-0.5-1.4C236.5,223.2,236.5,222.5,236.5,221.8z M237.5,221.8c0,0.5,0,1,0.1,1.4c0.1,0.4,0.2,0.8,0.3,1.2
			c0.2,0.3,0.3,0.6,0.6,0.8c0.2,0.2,0.5,0.3,0.9,0.3c0.6,0,1.1-0.3,1.4-0.9c0.3-0.6,0.5-1.5,0.5-2.8c0-0.5,0-1-0.1-1.4
			c-0.1-0.4-0.2-0.8-0.3-1.2c-0.2-0.3-0.3-0.6-0.6-0.8c-0.2-0.2-0.5-0.3-0.9-0.3c-0.6,0-1.1,0.3-1.4,0.9
			C237.6,219.6,237.5,220.6,237.5,221.8z"/>
	</g>
	<path fill="#2980B9" d="M245.3,117.9H53.9V66.4h191.4V117.9z M55.9,115.9h187.4V68.4H55.9V115.9z"/>
	<path fill="#2980B9" d="M245.3,158H53.9v-32.6h191.4V158z M55.9,156h187.4v-28.6H55.9V156z"/>
	<rect x="61.8" y="116" fill="#2980B9" width="175.4" height="9.5"/>
	<g>
		<polygon fill="#2980B9" points="70.4,133.1 66.9,133.1 66.9,150.1 70.4,150.1 70.4,133.1 		"/>
		<polygon fill="#2980B9" points="75.9,133.1 72.4,133.1 72.4,150.1 75.9,150.1 75.9,133.1 		"/>
		<polygon fill="#2980B9" points="82,133.1 78.6,133.1 78.6,150.1 82,150.1 82,133.1 		"/>
		<polygon fill="#2980B9" points="88.5,133.1 85.1,133.1 85.1,150.1 88.5,150.1 88.5,133.1 		"/>
		<polygon fill="#2980B9" points="94.7,133.1 91.2,133.1 91.2,150.1 94.7,150.1 94.7,133.1 		"/>
		<polygon fill="#2980B9" points="100.2,133.1 96.7,133.1 96.7,150.1 100.2,150.1 100.2,133.1 		"/>
		<polygon fill="#2980B9" points="106.3,133.1 102.9,133.1 102.9,150.1 106.3,150.1 106.3,133.1 		"/>
		<polygon fill="#2980B9" points="112.1,133.1 108.7,133.1 108.7,150.1 112.1,150.1 112.1,133.1 		"/>
		<polygon fill="#2980B9" points="118.3,133.1 114.8,133.1 114.8,150.1 118.3,150.1 118.3,133.1 		"/>
		<polygon fill="#2980B9" points="123.8,133.1 120.3,133.1 120.3,150.1 123.8,150.1 123.8,133.1 		"/>
		<polygon fill="#2980B9" points="129.9,133.1 126.5,133.1 126.5,150.1 129.9,150.1 129.9,133.1 		"/>
		<polygon fill="#2980B9" points="136.4,133.1 133,133.1 133,150.1 136.4,150.1 136.4,133.1 		"/>
		<polygon fill="#2980B9" points="142.6,133.1 139.1,133.1 139.1,150.1 142.6,150.1 142.6,133.1 		"/>
		<polygon fill="#2980B9" points="148.1,133.1 144.6,133.1 144.6,150.1 148.1,150.1 148.1,133.1 		"/>
		<polygon fill="#2980B9" points="154.2,133.1 150.8,133.1 150.8,150.1 154.2,150.1 154.2,133.1 		"/>
		<polygon fill="#2980B9" points="160,132.9 156.5,132.9 156.5,150 160,150 160,132.9 		"/>
		<polygon fill="#2980B9" points="166.2,132.9 162.7,132.9 162.7,150 166.2,150 166.2,132.9 		"/>
		<polygon fill="#2980B9" points="171.6,132.9 168.2,132.9 168.2,150 171.6,150 171.6,132.9 		"/>
		<polygon fill="#2980B9" points="177.8,132.9 174.4,132.9 174.4,150 177.8,150 177.8,132.9 		"/>
		<polygon fill="#2980B9" points="184.3,132.9 180.8,132.9 180.8,150 184.3,150 184.3,132.9 		"/>
		<polygon fill="#2980B9" points="190.5,132.9 187,132.9 187,150 190.5,150 190.5,132.9 		"/>
		<polygon fill="#2980B9" points="195.9,132.9 192.5,132.9 192.5,150 195.9,150 195.9,132.9 		"/>
		<polygon fill="#2980B9" points="202.1,132.9 198.7,132.9 198.7,150 202.1,150 202.1,132.9 		"/>
		<polygon fill="#2980B9" points="207.9,132.9 204.4,132.9 204.4,150 207.9,150 207.9,132.9 		"/>
		<polygon fill="#2980B9" points="214.1,132.9 210.6,132.9 210.6,150 214.1,150 214.1,132.9 		"/>
		<polygon fill="#2980B9" points="219.5,132.9 216.1,132.9 216.1,150 219.5,150 219.5,132.9 		"/>
		<polygon fill="#2980B9" points="225.7,132.9 222.3,132.9 222.3,150 225.7,150 225.7,132.9 		"/>
		<polygon fill="#2980B9" points="232.2,132.9 228.7,132.9 228.7,150 232.2,150 232.2,132.9 		"/>
	</g>
	<g>
		<path fill="#2980B9" d="M142,99h-3V89h-17v10h-3V87.5c0-0.8,0.7-1.5,1.5-1.5h20c0.8,0,1.5,0.7,1.5,1.5V99z"/>
		<path fill="#2980B9" d="M100,99h-3V89H80v10h-3V87.5c0-0.8,0.7-1.5,1.5-1.5h20c0.8,0,1.5,0.7,1.5,1.5V99z"/>
		<path fill="#2980B9" d="M182,99h-3V89h-17v10h-3V87.5c0-0.8,0.7-1.5,1.5-1.5h20c0.8,0,1.5,0.7,1.5,1.5V99z"/>
		<path fill="#2980B9" d="M222,99h-3V89h-17v10h-3V87.5c0-0.8,0.7-1.5,1.5-1.5h20c0.8,0,1.5,0.7,1.5,1.5V99z"/>
		<rect x="79" y="94" fill="#2980B9" width="20" height="1"/>
		<rect x="120" y="94" fill="#2980B9" width="20" height="1"/>
		<rect x="161" y="94" fill="#2980B9" width="20" height="1"/>
		<rect x="201" y="94" fill="#2980B9" width="20" height="1"/>
	</g>
	<g>
	</g>
	<g>
	</g>
	<g>
	</g>
	<g>
	</g>
	<g>
	</g>
	<g>
	</g>
	<g>
	</g>
	<g>
	</g>
	<g>
	</g>
	<g>
	</g>
	<g>
	</g>
	<g>
	</g>
	<g>
	</g>
	<g>
	</g>
	<g>
	</g>
</g>
</svg>
