<?xml version="1.0" encoding="UTF-8" standalone="no"?>
<!-- Generator: Adobe Illustrator 19.0.1, SVG Export Plug-In . SVG Version: 6.00 Build 0)  -->
<svg id="Слой_1" xmlns="http://www.w3.org/2000/svg" xml:space="preserve" viewBox="0 0 300 300" baseProfile="tiny" version="1.2" y="0px" x="0px" xmlns:xlink="http://www.w3.org/1999/xlink">
<g fill="#373125">
	<path d="m70.2 192.5l0.5-4.7h-0.2l-1.8 5-9.4 17.3h-4.7v-33.1h6v17.3l-0.5 4.8h0.2l1.9-5.2 9.4-17h4.6v33.1h-6v-17.5z"/>
	<path d="m111.2 182.5h-8.6v27.6h-6v-33.1h20.5v33.1h-6v-27.6z"/>
	<path d="m158.7 193.1l0.7-6.3h-0.2l-1.8 5.7-5.4 11.5h-2l-5.7-11.7-1.8-5.7h-0.3l0.9 6.4v17.1h-5.6v-33.1h5.7l6.9 14.3 1.1 4.1h0.2l1.1-4.2 6.5-14.2h5.6v33.1h-6v-17z"/>
	<path d="m185 177h16.6v5.5h-10.6v8.1h9.6v5.5h-9.6v8.5h10.8v5.5h-16.8v-33.1z"/>
	<path d="m228.3 193.3l-7.3-16.3h7.2l3.8 9.5 0.9 3.6 0.9-3.6 4-9.5h6.4l-7.6 15.9 7.9 17.2h-7l-4.4-10.2-1-3.7-0.9 3.7-4.4 10.2h-6.6l8.1-16.8z"/>
</g>
<g fill="#373125">
	<path d="m61.1 224.5l0.1-1.2-0.4 1.2-3.3 5.8h-0.6v-8.9h0.9v5.9l-0.1 1.1h0.1l0.4-1.2 3.3-5.8h0.6v8.9h-0.9v-5.8z"/>
	<path d="m74.4 224.4l0.1-1.3h-0.1l-0.4 1.3-1.8 3.8h-0.2l-1.9-3.8-0.4-1.3h-0.1l0.2 1.3v5.8h-0.9v-8.9h0.8l2.1 4.4 0.3 1 0.3-1 2-4.3h0.8v8.9h-0.9v-5.9z"/>
	<path d="m76.8 229.7c0-0.2 0.1-0.4 0.2-0.5s0.3-0.2 0.5-0.2 0.3 0.1 0.5 0.2c0.1 0.1 0.2 0.3 0.2 0.5s-0.1 0.4-0.2 0.5-0.3 0.2-0.5 0.2-0.3-0.1-0.5-0.2c-0.1-0.1-0.2-0.3-0.2-0.5z"/>
	<path d="m95.6 227.8h-2.5l-0.7 2.5h-0.9l2.7-9h0.5l2.7 9h-1l-0.8-2.5zm-2.2-0.9h2l-0.8-2.8-0.2-1.3-0.2 1.4-0.8 2.7z"/>
	<path d="m98.4 229.7c0-0.2 0.1-0.4 0.2-0.5s0.3-0.2 0.5-0.2 0.3 0.1 0.5 0.2c0.1 0.1 0.2 0.3 0.2 0.5s-0.1 0.4-0.2 0.5-0.3 0.2-0.5 0.2-0.3-0.1-0.5-0.2c-0.2-0.1-0.2-0.3-0.2-0.5z"/>
	<path d="m107.1 225.3h1.2c0-1.3 0.3-2.3 0.7-3 0.5-0.7 1.1-1 2.1-1 0.5 0 1 0.1 1.3 0.3 0.4 0.2 0.6 0.5 0.9 0.9 0.2 0.4 0.4 0.9 0.5 1.4 0.1 0.6 0.1 1.2 0.1 1.9 0 1.5-0.2 2.6-0.7 3.4-0.4 0.8-1.2 1.2-2.1 1.2-0.5 0-0.9-0.1-1.3-0.3-0.3-0.2-0.6-0.5-0.9-0.9-0.2-0.4-0.4-0.8-0.5-1.3s-0.2-1.1-0.2-1.8h-1.2v4.1h-0.9v-8.9h0.9v4zm2.2 0.5c0 0.5 0 1 0.1 1.4l0.3 1.2c0.1 0.3 0.3 0.6 0.6 0.8 0.2 0.2 0.5 0.3 0.9 0.3 0.6 0 1.1-0.3 1.4-0.9s0.4-1.5 0.4-2.8c0-0.5 0-1-0.1-1.4-0.1-0.5-0.1-0.8-0.3-1.2-0.1-0.3-0.3-0.6-0.5-0.8s-0.5-0.3-0.9-0.3c-0.6 0-1.1 0.3-1.4 0.9-0.4 0.6-0.5 1.6-0.5 2.8z"/>
	<path d="m114.9 229.7c0-0.2 0.1-0.4 0.2-0.5s0.3-0.2 0.5-0.2 0.3 0.1 0.5 0.2c0.1 0.1 0.2 0.3 0.2 0.5s-0.1 0.4-0.2 0.5-0.3 0.2-0.5 0.2-0.3-0.1-0.5-0.2c-0.1-0.1-0.2-0.3-0.2-0.5z"/>
	<path d="m134.6 224.5l0.1-1.2-0.4 1.2-3.3 5.8h-0.6v-8.9h0.9v5.9l-0.1 1.1h0.1l0.4-1.2 3.3-5.8h0.6v8.9h-0.9v-5.8z"/>
	<path d="m142.4 230.2v-8.9h0.9v8h2.2v-8h0.9v8h2.2v-8h0.9v8.9h-7.1z"/>
	<path d="m160.5 222.3h-2c-0.1 1.7-0.2 3.1-0.3 4.2s-0.3 2-0.5 2.6c-0.1 0.4-0.3 0.7-0.5 0.9s-0.5 0.3-0.7 0.3-0.5 0-0.6-0.1l0.1-0.9c0.2 0.1 0.3 0 0.5 0 0.1-0.1 0.3-0.3 0.4-0.6 0.1-0.2 0.2-0.5 0.3-0.9s0.2-0.9 0.2-1.5c0.1-0.6 0.1-1.3 0.2-2.1 0-0.8 0.1-1.8 0.1-2.8h3.9v8.9h-0.9v-8z"/>
	<path d="m172.7 224.5l0.1-1.2-0.4 1.2-3.3 5.8h-0.6v-8.9h0.9v5.9l-0.1 1.1h0.1l0.4-1.2 3.3-5.8h0.6v8.9h-0.9v-5.8z"/>
	<path d="m184.7 226.2h-3.3v4.1h-0.9v-8.9h0.9v3.9h3.3v-3.9h0.9v8.9h-0.9v-4.1z"/>
	<path d="m197.1 229.9c-0.2 0.2-0.5 0.3-0.8 0.4s-0.7 0.1-1 0.1c-0.4 0-0.9-0.1-1.2-0.3-0.4-0.2-0.7-0.4-1-0.8s-0.5-0.8-0.6-1.4c-0.2-0.6-0.2-1.3-0.2-2.1s0.1-1.6 0.3-2.1c0.2-0.6 0.4-1.1 0.7-1.4 0.3-0.4 0.6-0.6 1-0.8s0.8-0.2 1.2-0.2 0.7 0 1 0.1 0.5 0.1 0.7 0.2l-0.2 0.9c-0.2-0.1-0.4-0.2-0.6-0.2-0.2-0.1-0.5-0.1-0.8-0.1s-0.6 0.1-0.8 0.2c-0.3 0.1-0.5 0.3-0.7 0.6s-0.4 0.7-0.5 1.1c-0.1 0.5-0.2 1-0.2 1.7 0 1.2 0.2 2.2 0.6 2.8s1 0.9 1.7 0.9c0.3 0 0.5 0 0.8-0.1l0.6-0.3v0.8z"/>
	<path d="m205 226.2h-0.5v4.1h-0.9v-8.9h0.9v4.1l0.4-0.2 2.3-3.9h1.1l-2.3 3.8-0.4 0.4 0.5 0.5 2.6 4.1h-1.2l-2.5-4z"/>
	<path d="m214.4 225.8c0-1.5 0.2-2.6 0.7-3.4s1.2-1.2 2.2-1.2c0.5 0 1 0.1 1.4 0.3s0.7 0.5 0.9 0.9 0.4 0.9 0.5 1.4c0.1 0.6 0.2 1.2 0.2 1.9 0 1.5-0.2 2.6-0.7 3.4s-1.2 1.2-2.2 1.2c-0.5 0-1-0.1-1.3-0.3-0.4-0.2-0.7-0.5-0.9-0.9s-0.4-0.9-0.5-1.4c-0.2-0.5-0.3-1.2-0.3-1.9zm1 0c0 0.5 0 1 0.1 1.4l0.3 1.2c0.2 0.3 0.3 0.6 0.6 0.8s0.5 0.3 0.9 0.3c0.6 0 1.1-0.3 1.4-0.9s0.5-1.5 0.5-2.8c0-0.5 0-1-0.1-1.4l-0.3-1.2c-0.2-0.3-0.3-0.6-0.6-0.8s-0.5-0.3-0.9-0.3c-0.6 0-1.1 0.3-1.4 0.9s-0.5 1.6-0.5 2.8z"/>
	<path d="m230.8 222.3h-2.9v8h-0.9v-8.9h3.9v0.9z"/>
	<path d="m236.5 225.8c0-1.5 0.2-2.6 0.7-3.4s1.2-1.2 2.2-1.2c0.5 0 1 0.1 1.4 0.3s0.7 0.5 0.9 0.9 0.4 0.9 0.5 1.4c0.1 0.6 0.2 1.2 0.2 1.9 0 1.5-0.2 2.6-0.7 3.4s-1.2 1.2-2.2 1.2c-0.5 0-1-0.1-1.3-0.3-0.4-0.2-0.7-0.5-0.9-0.9s-0.4-0.9-0.5-1.4c-0.3-0.5-0.3-1.2-0.3-1.9zm1 0c0 0.5 0 1 0.1 1.4l0.3 1.2c0.2 0.3 0.3 0.6 0.6 0.8 0.2 0.2 0.5 0.3 0.9 0.3 0.6 0 1.1-0.3 1.4-0.9s0.5-1.5 0.5-2.8c0-0.5 0-1-0.1-1.4l-0.3-1.2c-0.2-0.3-0.3-0.6-0.6-0.8-0.2-0.2-0.5-0.3-0.9-0.3-0.6 0-1.1 0.3-1.4 0.9-0.4 0.6-0.5 1.6-0.5 2.8z"/>
</g>
<path d="m245.3 121.9h-191.4v-51.5h191.4v51.5zm-189.4-2h187.4v-47.5h-187.4v47.5z" fill="#373125"/>
<path d="m245.3 162h-191.4v-32.6h191.4v32.6zm-189.4-2h187.4v-28.6h-187.4v28.6z" fill="#373125"/>
<rect y="120" x="61.8" height="9.5" width="175.4" fill="#373125"/>
<g fill="#373125">
	<polygon points="70.4 137.1 66.9 137.1 66.9 154.1 70.4 154.1"/>
	<polygon points="75.9 137.1 72.4 137.1 72.4 154.1 75.9 154.1"/>
	<polygon points="82 137.1 78.6 137.1 78.6 154.1 82 154.1"/>
	<polygon points="88.5 137.1 85.1 137.1 85.1 154.1 88.5 154.1"/>
	<polygon points="94.7 137.1 91.2 137.1 91.2 154.1 94.7 154.1"/>
	<polygon points="100.2 137.1 96.7 137.1 96.7 154.1 100.2 154.1"/>
	<polygon points="106.3 137.1 102.9 137.1 102.9 154.1 106.3 154.1"/>
	<polygon points="112.1 137.1 108.7 137.1 108.7 154.1 112.1 154.1"/>
	<polygon points="118.3 137.1 114.8 137.1 114.8 154.1 118.3 154.1"/>
	<polygon points="123.8 137.1 120.3 137.1 120.3 154.1 123.8 154.1"/>
	<polygon points="129.9 137.1 126.5 137.1 126.5 154.1 129.9 154.1"/>
	<polygon points="136.4 137.1 133 137.1 133 154.1 136.4 154.1"/>
	<polygon points="142.6 137.1 139.1 137.1 139.1 154.1 142.6 154.1"/>
	<polygon points="148.1 137.1 144.6 137.1 144.6 154.1 148.1 154.1"/>
	<polygon points="154.2 137.1 150.8 137.1 150.8 154.1 154.2 154.1"/>
	<polygon points="160 136.9 156.5 136.9 156.5 154 160 154"/>
	<polygon points="166.2 136.9 162.7 136.9 162.7 154 166.2 154"/>
	<polygon points="171.6 136.9 168.2 136.9 168.2 154 171.6 154"/>
	<polygon points="177.8 136.9 174.4 136.9 174.4 154 177.8 154"/>
	<polygon points="184.3 136.9 180.8 136.9 180.8 154 184.3 154"/>
	<polygon points="190.5 136.9 187 136.9 187 154 190.5 154"/>
	<polygon points="195.9 136.9 192.5 136.9 192.5 154 195.9 154"/>
	<polygon points="202.1 136.9 198.7 136.9 198.7 154 202.1 154"/>
	<polygon points="207.9 136.9 204.4 136.9 204.4 154 207.9 154"/>
	<polygon points="214.1 136.9 210.6 136.9 210.6 154 214.1 154"/>
	<polygon points="219.5 136.9 216.1 136.9 216.1 154 219.5 154"/>
	<polygon points="225.7 136.9 222.3 136.9 222.3 154 225.7 154"/>
	<polygon points="232.2 136.9 228.7 136.9 228.7 154 232.2 154"/>
</g>
<g fill="#373125">
	<path d="m142 103h-3v-10h-17v10h-3v-11.5c0-0.8 0.7-1.5 1.5-1.5h20c0.8 0 1.5 0.7 1.5 1.5v11.5z"/>
	<path d="m100 103h-3v-10h-17v10h-3v-11.5c0-0.8 0.7-1.5 1.5-1.5h20c0.8 0 1.5 0.7 1.5 1.5v11.5z"/>
	<path d="m182 103h-3v-10h-17v10h-3v-11.5c0-0.8 0.7-1.5 1.5-1.5h20c0.8 0 1.5 0.7 1.5 1.5v11.5z"/>
	<path d="m222 103h-3v-10h-17v10h-3v-11.5c0-0.8 0.7-1.5 1.5-1.5h20c0.8 0 1.5 0.7 1.5 1.5v11.5z"/>
	<rect y="98" x="79" height="1" width="20"/>
	<rect y="98" x="120" height="1" width="20"/>
	<rect y="98" x="161" height="1" width="20"/>
	<rect y="98" x="201" height="1" width="20"/>
</g>
</svg>
