<?xml version="1.0" encoding="utf-8"?>
<!-- Generator: Adobe Illustrator 19.0.0, SVG Export Plug-In . SVG Version: 6.00 Build 0)  -->
<svg version="1.2" baseProfile="tiny" xmlns="http://www.w3.org/2000/svg" xmlns:xlink="http://www.w3.org/1999/xlink" x="0px"
	 y="0px" viewBox="-155 247 300 300" xml:space="preserve">
<g id="Layer_1">
	<g id="Слой_2">
		<rect x="-155" y="247" fill="#FFFFFF" width="300" height="300"/>
	</g>
	<g>
		<path d="M-78.8,376.6l0.6-6.6h-0.4l-3,6.8l-14.3,26.4h-9.1v-50.4h9.9V379l-0.7,6.8h0.4l3.1-7l14.3-25.9h9.1v50.4h-9.9V376.6z"/>
		<path d="M-43.8,395.3h8.2v-34.6h-6.9v8.7h-7.9v-16.6H-11v16.6h-7.9v-8.7h-6.8v34.6h8.1v7.9h-26.2V395.3z"/>
		<path d="M33.1,361.6H17.7v41.6H7.8v-50.4H43v50.4h-9.9V361.6z"/>
		<path d="M91.6,376.4l0.4-7.8h-0.4l-8.1,13.2h-1.7l-8.4-13.2h-0.4l0.4,7.1v27.6H64v-50.4h10l8.6,14h0.3l8.6-14h9.9v50.4h-9.9V376.4
			z"/>
	</g>
	<g>
		<path d="M-97.6,434.4l0.1-1.2h-0.1l-0.8,1.3l-4.5,5.9h-0.9v-10.1h1.6v6.1l-0.1,1.2h0.1l0.8-1.2l4.5-6.1h0.9v10.1h-1.6V434.4z"/>
		<path d="M-84.7,434.3l0.1-1.9h-0.1l-0.7,1.6l-2.4,4h-0.6l-2.5-4l-0.7-1.6h-0.1l0.2,1.9v6H-93v-10.1h1.6l2.8,4.5l0.6,1.2h0l0.6-1.2
			l2.6-4.5h1.6v10.1h-1.6V434.3z"/>
		<path d="M-80.7,439.4c0-0.4,0.1-0.6,0.3-0.9c0.2-0.2,0.5-0.3,0.8-0.3c0.4,0,0.7,0.1,0.9,0.3c0.2,0.2,0.3,0.5,0.3,0.9
			c0,0.3-0.1,0.6-0.3,0.8s-0.5,0.3-0.9,0.3c-0.3,0-0.6-0.1-0.8-0.3C-80.6,440-80.7,439.8-80.7,439.4z"/>
		<path d="M-61.3,439.7c-0.4,0.3-0.9,0.5-1.5,0.6c-0.6,0.1-1.3,0.2-2,0.2c-0.8,0-1.6-0.1-2.4-0.4c-0.7-0.3-1.4-0.7-1.9-1.3
			c-0.6-0.6-1-1.3-1.3-2.3c-0.3-0.9-0.5-2-0.5-3.3c0-1.3,0.2-2.4,0.5-3.4c0.4-0.9,0.8-1.7,1.4-2.3c0.6-0.6,1.2-1,2-1.3
			c0.7-0.3,1.5-0.4,2.2-0.4c0.8,0,1.5,0,2,0.1c0.5,0.1,0.9,0.2,1.3,0.4l-0.4,1.5c-0.6-0.3-1.6-0.5-2.8-0.5c-0.6,0-1.1,0.1-1.6,0.3
			s-1,0.5-1.4,1c-0.4,0.5-0.8,1.1-1,1.8c-0.3,0.7-0.4,1.6-0.4,2.7c0,1,0.1,1.8,0.4,2.5c0.2,0.7,0.6,1.3,1,1.8
			c0.4,0.5,0.9,0.8,1.5,1.1s1.2,0.4,1.9,0.4c0.6,0,1.1-0.1,1.6-0.2c0.4-0.1,0.8-0.3,1.1-0.5L-61.3,439.7z"/>
		<path d="M-59.3,439.4c0-0.4,0.1-0.6,0.3-0.9c0.2-0.2,0.5-0.3,0.8-0.3c0.4,0,0.7,0.1,0.9,0.3c0.2,0.2,0.3,0.5,0.3,0.9
			c0,0.3-0.1,0.6-0.3,0.8s-0.5,0.3-0.9,0.3c-0.3,0-0.6-0.1-0.8-0.3C-59.2,440-59.3,439.8-59.3,439.4z"/>
		<path d="M-47.1,436.4h-5.2l-1.4,3.9h-1.7L-50,426h0.8l5.4,14.3h-1.8L-47.1,436.4z M-51.7,435h4.1l-1.6-4.3l-0.5-2.1h0l-0.5,2.2
			L-51.7,435z"/>
		<path d="M-42.3,439.4c0-0.4,0.1-0.6,0.3-0.9c0.2-0.2,0.5-0.3,0.8-0.3c0.4,0,0.7,0.1,0.9,0.3c0.2,0.2,0.3,0.5,0.3,0.9
			c0,0.3-0.1,0.6-0.3,0.8s-0.5,0.3-0.9,0.3c-0.3,0-0.6-0.1-0.8-0.3C-42.2,440-42.3,439.8-42.3,439.4z"/>
		<path d="M-28.4,433.2l-4.3-6.9h2l2.9,4.8l0.5,1.1l0.5-1.1l3-4.8h1.9l-4.4,6.8l4.6,7.3h-2l-3.2-5.1l-0.5-1.2l-0.5,1.2l-3.3,5.1
			h-1.9L-28.4,433.2z"/>
		<path d="M-19.6,430.3h1.1l0.3,1.2h0.1c0.3-0.5,0.7-0.8,1.2-1.1c0.5-0.2,1.1-0.4,1.7-0.4c1.3,0,2.3,0.4,3,1.2c0.7,0.8,1,2.1,1,3.9
			c0,0.8-0.1,1.6-0.3,2.3c-0.2,0.7-0.5,1.3-0.9,1.7c-0.4,0.5-0.9,0.8-1.5,1.1c-0.6,0.3-1.2,0.4-1.9,0.4c-0.5,0-0.9,0-1.2-0.1
			c-0.3-0.1-0.6-0.2-0.9-0.3v4.2h-1.6V430.3z M-15.5,431.4c-0.7,0-1.2,0.2-1.6,0.5c-0.4,0.4-0.7,0.9-0.8,1.6v5
			c0.2,0.2,0.5,0.3,0.8,0.4c0.3,0.1,0.7,0.2,1.2,0.2c0.9,0,1.7-0.3,2.2-1s0.8-1.7,0.8-3.1c0-0.6,0-1.1-0.1-1.5s-0.2-0.8-0.5-1.1
			c-0.2-0.3-0.5-0.6-0.8-0.7C-14.6,431.5-15,431.4-15.5,431.4z"/>
		<path d="M-2.4,434.4l0.1-1.2h-0.1l-0.8,1.3l-4.5,5.9h-0.9v-10.1H-7v6.1l-0.1,1.2H-7l0.8-1.2l4.5-6.1h0.9v10.1h-1.6V434.4z"/>
		<path d="M9.2,439.7c-0.4,0.3-0.9,0.5-1.4,0.7c-0.6,0.2-1.1,0.2-1.7,0.2c-0.8,0-1.4-0.1-2-0.4c-0.5-0.2-1-0.6-1.3-1.1
			c-0.3-0.5-0.6-1-0.7-1.7c-0.2-0.7-0.2-1.4-0.2-2.2c0-1.7,0.4-3,1.1-3.9c0.8-0.9,1.8-1.4,3.2-1.4c0.6,0,1.2,0.1,1.6,0.2
			c0.5,0.1,0.9,0.2,1.2,0.4L8.6,432c-0.3-0.2-0.7-0.3-1-0.4c-0.4-0.1-0.8-0.2-1.2-0.2c-1.9,0-2.9,1.3-2.9,3.9c0,0.5,0.1,1,0.2,1.5
			c0.1,0.5,0.3,0.9,0.5,1.2c0.2,0.4,0.5,0.6,0.9,0.9c0.4,0.2,0.9,0.3,1.4,0.3c0.5,0,0.9-0.1,1.3-0.2c0.4-0.1,0.7-0.3,0.9-0.5
			L9.2,439.7z"/>
		<path d="M18.5,431.7h-3.2v8.7h-1.6v-8.7h-3.2v-1.4h7.9V431.7z"/>
		<path d="M26.7,434.4l0.1-1.2h-0.1l-0.8,1.3l-4.5,5.9h-0.9v-10.1H22v6.1l-0.1,1.2H22l0.8-1.2l4.5-6.1h0.9v10.1h-1.6V434.4z"/>
		<path d="M31.2,431c0.5-0.3,1.1-0.5,1.8-0.7c0.7-0.1,1.4-0.2,2.1-0.2c0.7,0,1.3,0.1,1.7,0.3c0.4,0.2,0.7,0.4,1,0.7
			c0.2,0.3,0.4,0.6,0.4,1c0.1,0.4,0.1,0.7,0.1,1.1c0,0.8,0,1.6-0.1,2.4c0,0.8-0.1,1.5-0.1,2.2c0,0.5,0,1,0.1,1.4
			c0,0.4,0.1,0.9,0.2,1.2h-1.2l-0.4-1.4h-0.1c-0.1,0.2-0.3,0.4-0.5,0.6c-0.2,0.2-0.4,0.3-0.7,0.5c-0.3,0.1-0.6,0.3-0.9,0.4
			c-0.3,0.1-0.7,0.1-1.1,0.1c-0.4,0-0.8-0.1-1.2-0.2c-0.4-0.1-0.7-0.3-1-0.6c-0.3-0.2-0.5-0.5-0.6-0.9c-0.2-0.3-0.2-0.7-0.2-1.2
			c0-0.6,0.1-1.1,0.4-1.5c0.2-0.4,0.6-0.7,1-0.9c0.4-0.2,1-0.4,1.6-0.5c0.6-0.1,1.3-0.2,2-0.2c0.2,0,0.4,0,0.6,0c0.2,0,0.4,0,0.6,0
			c0-0.4,0.1-0.8,0.1-1.1c0-0.7-0.1-1.3-0.4-1.6c-0.3-0.3-0.8-0.4-1.6-0.4c-0.2,0-0.5,0-0.7,0.1c-0.3,0-0.5,0.1-0.8,0.1
			c-0.3,0.1-0.5,0.1-0.8,0.2c-0.2,0.1-0.5,0.2-0.7,0.3L31.2,431z M34,439.1c0.4,0,0.7-0.1,1-0.2c0.3-0.1,0.6-0.2,0.8-0.4
			c0.2-0.2,0.4-0.3,0.5-0.5c0.1-0.2,0.2-0.4,0.3-0.5v-1.7c-0.2,0-0.4,0-0.6,0c-0.2,0-0.4,0-0.6,0c-0.4,0-0.8,0-1.2,0.1
			c-0.4,0-0.7,0.1-1,0.3c-0.3,0.1-0.5,0.3-0.7,0.5c-0.2,0.2-0.3,0.5-0.3,0.8c0,0.5,0.2,0.9,0.5,1.2C33.1,438.9,33.5,439.1,34,439.1z
			"/>
		<path d="M47.4,435.9h-4.6v4.5h-1.6v-10.1h1.6v4.2h4.6v-4.2H49v10.1h-1.6V435.9z"/>
		<path d="M51.6,435.3c0-1.7,0.4-3,1.1-3.9c0.8-0.9,1.9-1.4,3.3-1.4c0.8,0,1.4,0.1,2,0.4c0.6,0.2,1,0.6,1.4,1.1
			c0.4,0.5,0.6,1,0.8,1.7c0.2,0.7,0.3,1.4,0.3,2.2c0,1.7-0.4,3-1.1,3.9c-0.8,0.9-1.9,1.4-3.3,1.4c-0.8,0-1.4-0.1-2-0.4
			c-0.6-0.2-1-0.6-1.4-1.1c-0.4-0.5-0.6-1-0.8-1.7C51.7,436.8,51.6,436.1,51.6,435.3z M53.3,435.3c0,0.5,0.1,1,0.2,1.5
			c0.1,0.5,0.3,0.9,0.5,1.2c0.2,0.3,0.5,0.6,0.8,0.8c0.3,0.2,0.8,0.3,1.3,0.3c1.8,0,2.7-1.3,2.7-3.9c0-0.5-0.1-1-0.2-1.5
			c-0.1-0.5-0.3-0.9-0.5-1.2c-0.2-0.3-0.5-0.6-0.8-0.8c-0.3-0.2-0.8-0.3-1.3-0.3C54.2,431.4,53.3,432.7,53.3,435.3z"/>
		<path d="M62.9,430.3c0.5,0,1-0.1,1.5-0.1c0.5,0,1.2-0.1,1.9-0.1c1.3,0,2.3,0.2,2.9,0.6c0.6,0.4,0.9,1,0.9,1.9
			c0,0.5-0.1,0.9-0.4,1.4c-0.3,0.5-0.7,0.8-1.4,1v0.1c0.8,0.1,1.4,0.4,1.7,0.8c0.3,0.4,0.5,0.9,0.5,1.6c0,1-0.4,1.8-1.1,2.3
			c-0.8,0.5-1.9,0.7-3.4,0.7c-0.6,0-1.1,0-1.6-0.1c-0.5,0-1-0.1-1.4-0.1V430.3z M66.5,434.5c0.2,0,0.5,0,0.7-0.1
			c0.2-0.1,0.4-0.2,0.6-0.3c0.2-0.1,0.3-0.3,0.4-0.5c0.1-0.2,0.2-0.4,0.2-0.6c0-0.5-0.2-0.9-0.5-1.1c-0.3-0.2-0.9-0.3-1.7-0.3
			c-0.4,0-0.8,0-1,0c-0.2,0-0.5,0-0.7,0v2.9H66.5z M64.5,439c0.3,0,0.5,0,0.8,0.1c0.2,0,0.5,0,0.9,0c0.9,0,1.6-0.1,2-0.4
			c0.4-0.3,0.7-0.7,0.7-1.3c0-0.5-0.2-0.9-0.6-1.2c-0.4-0.3-1-0.5-2-0.5h-1.8V439z"/>
		<path d="M79.3,434.4l0.1-1.2h-0.1l-0.8,1.3l-4.5,5.9H73v-10.1h1.6v6.1l-0.1,1.2h0.1l0.8-1.2l4.5-6.1h0.9v10.1h-1.6V434.4z"/>
		<path d="M84.9,430.3v2.7c0,0.4,0,0.7,0.1,1c0,0.3,0.1,0.5,0.2,0.7c0.1,0.2,0.3,0.4,0.5,0.5c0.2,0.1,0.5,0.2,0.9,0.2
			c0.6,0,1.1-0.1,1.5-0.2c0.4-0.1,0.7-0.3,0.9-0.4v-4.5h1.6v10.1H89v-4.2c-0.2,0.1-0.5,0.3-1,0.4c-0.4,0.2-1,0.2-1.7,0.2
			c-0.5,0-0.9-0.1-1.3-0.2c-0.4-0.1-0.7-0.3-0.9-0.6c-0.3-0.3-0.4-0.6-0.6-1.1c-0.1-0.4-0.2-1-0.2-1.7v-3.1H84.9z"/>
		<path d="M93.5,431c0.5-0.3,1.1-0.5,1.8-0.7c0.7-0.1,1.4-0.2,2.1-0.2c0.7,0,1.3,0.1,1.7,0.3c0.4,0.2,0.7,0.4,1,0.7
			c0.2,0.3,0.4,0.6,0.4,1c0.1,0.4,0.1,0.7,0.1,1.1c0,0.8,0,1.6-0.1,2.4c0,0.8-0.1,1.5-0.1,2.2c0,0.5,0,1,0.1,1.4
			c0,0.4,0.1,0.9,0.2,1.2h-1.2l-0.4-1.4h-0.1c-0.1,0.2-0.3,0.4-0.5,0.6c-0.2,0.2-0.4,0.3-0.7,0.5c-0.3,0.1-0.6,0.3-0.9,0.4
			c-0.3,0.1-0.7,0.1-1.1,0.1c-0.4,0-0.8-0.1-1.2-0.2c-0.4-0.1-0.7-0.3-1-0.6c-0.3-0.2-0.5-0.5-0.6-0.9c-0.2-0.3-0.2-0.7-0.2-1.2
			c0-0.6,0.1-1.1,0.4-1.5c0.2-0.4,0.6-0.7,1-0.9c0.4-0.2,1-0.4,1.6-0.5c0.6-0.1,1.3-0.2,2-0.2c0.2,0,0.4,0,0.6,0c0.2,0,0.4,0,0.6,0
			c0-0.4,0.1-0.8,0.1-1.1c0-0.7-0.1-1.3-0.4-1.6c-0.3-0.3-0.8-0.4-1.6-0.4c-0.2,0-0.5,0-0.7,0.1c-0.3,0-0.5,0.1-0.8,0.1
			c-0.3,0.1-0.5,0.1-0.8,0.2c-0.2,0.1-0.5,0.2-0.7,0.3L93.5,431z M96.4,439.1c0.4,0,0.7-0.1,1-0.2c0.3-0.1,0.6-0.2,0.8-0.4
			c0.2-0.2,0.4-0.3,0.5-0.5c0.1-0.2,0.2-0.4,0.3-0.5v-1.7c-0.2,0-0.4,0-0.6,0c-0.2,0-0.4,0-0.6,0c-0.4,0-0.8,0-1.2,0.1
			s-0.7,0.1-1,0.3c-0.3,0.1-0.5,0.3-0.7,0.5c-0.2,0.2-0.3,0.5-0.3,0.8c0,0.5,0.2,0.9,0.5,1.2C95.4,438.9,95.9,439.1,96.4,439.1z"/>
	</g>
	
		<image display="none" width="136" height="66" xlink:href="../../../../../../../../../ИПРИМ/наука/САЙТ/мкмк/label.gif"  transform="matrix(1 0 0 1 -73 279)">
	</image>
</g>
<g id="Layer_2">
</g>
</svg>
