<?xml version="1.0" encoding="utf-8"?>
<!-- Generator: Adobe Illustrator 16.0.0, SVG Export Plug-In . SVG Version: 6.00 Build 0)  -->
<!DOCTYPE svg PUBLIC "-//W3C//DTD SVG 1.1//EN" "http://www.w3.org/Graphics/SVG/1.1/DTD/svg11.dtd">
<svg version="1.1"
	 id="svg5090" xmlns:dc="http://purl.org/dc/elements/1.1/" xmlns:cc="http://creativecommons.org/ns#" xmlns:rdf="http://www.w3.org/1999/02/22-rdf-syntax-ns#" xmlns:svg="http://www.w3.org/2000/svg" xmlns:sodipodi="http://sodipodi.sourceforge.net/DTD/sodipodi-0.dtd" xmlns:inkscape="http://www.inkscape.org/namespaces/inkscape" sodipodi:version="0.32" inkscape:version="0.46" sodipodi:docname="Isaac_Newton_signature.svg" inkscape:output_extension="org.inkscape.output.svg.inkscape"
	 xmlns="http://www.w3.org/2000/svg" xmlns:xlink="http://www.w3.org/1999/xlink" x="0px" y="0px" width="399px" height="135px"
	 viewBox="0 0 399 135" enable-background="new 0 0 399 135" xml:space="preserve">
<defs>
	
	
		<inkscape:perspective  sodipodi:type="inkscape:persp3d" inkscape:vp_y="0 : 1000 : 0" inkscape:vp_x="0 : 526.18109 : 1" inkscape:vp_z="744.09448 : 526.18109 : 1" id="perspective5097" inkscape:persp3d-origin="372.04724 : 350.78739 : 1">
		</inkscape:perspective>
</defs>
<sodipodi:namedview  inkscape:cy="43.990897" inkscape:cx="154.78725" inkscape:zoom="1.3634085" showgrid="false" pagecolor="#ffffff" bordercolor="#666666" borderopacity="1.0" objecttolerance="10.0" gridtolerance="10.0" guidetolerance="10.0" id="base" inkscape:window-height="968" inkscape:pageshadow="2" inkscape:window-width="1280" inkscape:current-layer="svg5090" inkscape:window-x="-4" inkscape:window-y="-4" inkscape:pageopacity="0.0">
	</sodipodi:namedview>
<path id="path5686" fill="#FFFFFF" d="M2.125,126.602c-2.188-2.188-2.415-3.068-1.881-7.295C0.917,113.965,3.61,107.801,6.93,104
	c4.764-5.455,17.683-12.145,37.683-19.514c5.775-2.127,11.021-4.253,11.657-4.723c0.636-0.469,2.383-3.871,3.883-7.559
	c3.789-9.319,5.374-13.075,7.468-17.705c8.182-18.082,10.282-23.898,11.56-32c0.347-2.2,0.808-4.29,1.025-4.644
	c0.889-1.451-2.71-7.761-4.825-8.46c-4.705-1.555-8.95-0.286-15.864,4.743c-8.313,6.046-13.74,12.073-18.198,20.208
	c-4.359,7.954-4.975,11.38-3.152,17.519c1.235,4.159,1.951,5.085,4.335,5.609c4.832,1.061,7.933-0.463,13.533-6.651
	c2.961-3.272,5.649-5.52,5.974-4.995s-1.994,3.716-5.152,7.092c-5.715,6.109-5.769,6.139-11.559,6.241
	c-3.199,0.057-6.177-0.294-6.617-0.779c-0.44-0.486-1.525-3.073-2.412-5.748c-2.103-6.349-0.984-11.504,4.561-21.02
	C47.904,19.476,59.055,10,69.469,7.281c6.818-1.78,10.264-0.604,11.959,4.085c2.293,6.342,0.979,14.181-4.547,27.134
	c-8.767,20.546-13.42,30.99-15.931,35.75C60.153,75.763,59.942,77,60.482,77s4.704-1.8,9.253-4s9.056-4,10.016-4
	c0.959,0,2.022-0.45,2.362-1c0.758-1.227,2.5-1.321,2.5-0.136c0,0.476-2.138,1.632-4.75,2.569s-8.657,3.586-13.433,5.886
	c-8.049,3.876-8.808,4.503-10.395,8.593c-0.941,2.428-3.896,7.973-6.567,12.324c-2.67,4.351-4.855,8.457-4.855,9.125
	c0,1.372-7.714,8.97-13,12.804c-6.675,4.841-13.687,7.64-23.25,9.282C5.211,128.988,4.216,128.693,2.125,126.602z M13.613,122.376
	c3.025-0.347,6.969-1.514,8.764-2.593c1.795-1.08,4.361-2.261,5.702-2.623c2.736-0.741,13.411-9.139,13.486-10.61
	c0.026-0.522,2.705-5.022,5.951-10C54.217,86.276,55.583,83,53.167,83c-0.87,0-2.362,0.443-3.317,0.984
	c-0.955,0.543-5.786,2.61-10.736,4.596C17.016,97.445,9.99,101.967,5.176,110.416c-3.057,5.365-3.866,9.15-2.501,11.699
	c0.795,1.486,1.723,1.906,3.274,1.482C7.139,123.272,10.588,122.723,13.613,122.376z M83.499,84.225
	c-0.745-4.736-0.498-6.448,1.251-8.671C85.854,74.148,87.208,73,87.758,73c0.55,0,0.067,1.186-1.072,2.635
	c-3.832,4.871-1.703,8.918,2.257,4.293c2.296-2.682,3.67-6.355,3.67-9.812c0-5.066,2.998-12.96,6.1-16.062
	c3.715-3.715,5.511-3.87,6.15-0.53c0.575,3.01-0.744,4.202-2.056,1.857c-0.553-0.988-1.431-1.352-2.166-0.898
	c-2.038,1.259-4.982,8.757-5.005,12.747c-0.024,4.165-2.604,11.381-4.989,13.956C88.865,83.107,83.671,85.317,83.499,84.225z
	 M147.613,83.412c0-2.272,6.533-13.641,11.337-19.728c2.251-2.852,7.136-8.334,10.855-12.185s6.773-7.592,6.786-8.316
	s0.563-2.298,1.224-3.5c1.44-2.617,1.691-3.568,2.821-10.684c0.502-3.164,0.499-5.875-0.008-6.383
	c-0.51-0.51-3.28,0.471-6.568,2.326c-4.927,2.781-8.768,6.18-15.55,13.765c-0.881,0.986-3.713,3.763-6.291,6.172
	c-2.579,2.409-5.397,5.784-6.264,7.5s-2.47,4.1-3.563,5.296s-1.708,2.628-1.367,3.181c0.341,0.553,0.113,1.319-0.507,1.702
	c-2.07,1.28-2.807-1.848-1.177-5c2.467-4.772,6.913-10.025,18.272-21.589c10.325-10.51,12.943-12.507,20.087-15.32
	c6.435-2.533,8.268,0.803,5.944,10.821c-0.506,2.185-0.747,4.146-0.534,4.359c0.213,0.212,2.55-1.392,5.194-3.566
	c5.916-4.863,10.937-7.036,12.544-5.429c0.618,0.618,1.048,3.721,0.956,6.895c-0.131,4.513-1.398,8.714-5.816,19.271
	c-5.605,13.396-8.328,22.38-7.143,23.566c0.34,0.34,2.114,0.064,3.943-0.611c3.188-1.18,13.27-11.774,15.227-16.004
	c1.147-2.478,2.003-2.45,5.562,0.181c1.911,1.413,3.777,1.96,5.538,1.624c3.147-0.602,4.282,1.313,2.703,4.563
	c-0.584,1.201-1.346,3.909-1.695,6.02c-0.602,3.649-0.521,3.804,1.679,3.159c1.271-0.373,6.099-4.463,10.728-9.087
	c4.628-4.625,9.024-8.409,9.769-8.409c1.378,0,1.105,2.563-0.831,7.815c-1.109,3.009-1.086,3.192,0.396,3.149
	c1.729-0.05,6.305-4.085,7.072-6.236c0.84-2.353,3.668-3.36,4.709-1.677c0.46,0.744,0.381,2.18-0.178,3.224
	c-1.252,2.338-0.426,4.726,1.635,4.726c3.796,0,14.346-9.085,17.591-15.147c0.685-1.278,1.378-4.737,1.541-7.686
	c0.237-4.283,0.827-5.852,2.929-7.799c5.682-5.266,13.262-10.38,16.279-10.983c1.744-0.349,3.172-0.945,3.172-1.325
	s1.761-1.68,3.913-2.89c2.151-1.209,7.379-5.587,11.615-9.729c4.237-4.142,8.065-7.397,8.507-7.235
	c0.959,0.352-8.7,17.347-17.726,31.188c-8.868,13.6-12.405,23.194-9.266,25.135c0.972,0.601,5.005-1.509,7.573-3.961
	c0.614-0.586,2.414-2.14,4-3.452c1.586-1.312,4.185-3.562,5.775-5c2.827-2.556,2.881-2.564,2.344-0.365
	c-0.69,2.83-0.368,2.816,2.473-0.104c4.83-4.963,16.081-7.232,20.503-4.135c1.187,0.831,2.3,2.744,2.473,4.25
	c0.235,2.042,0.944,2.828,2.788,3.088c1.36,0.192,3.663,1.35,5.117,2.574c1.455,1.224,4.055,2.809,5.777,3.522
	c3.239,1.342,4.201,3.055,1.716,3.055c-2.313,0-10.003-3.596-11.47-5.363c-2.057-2.478-4.975-2.036-5.703,0.863
	c-0.345,1.375-0.976,2.5-1.402,2.5c-0.426,0-1.01,0.898-1.297,1.995c-0.505,1.933-3.303,3.746-4.277,2.771
	c-0.264-0.264,0.65-2.457,2.031-4.874c2.928-5.123,3.193-9.494,0.763-12.606c-1.509-1.932-2.214-2.102-5.557-1.337
	c-4.632,1.059-5.405,1.715-3.854,3.267c2.064,2.064,1.285,5.136-2.608,10.277c-4.208,5.556-6.19,6.403-9.661,4.129
	c-2.088-1.368-2.258-1.969-1.506-5.305c0.467-2.069,0.723-3.888,0.569-4.042s-3.084,1.971-6.511,4.722
	c-8.673,6.96-14.1,6.924-14.1-0.094c0-3.449,8.559-19.769,14.184-27.048c1.549-2.004,2.816-3.926,2.816-4.271
	s1.191-2.427,2.646-4.626c1.455-2.199,2.43-4.215,2.164-4.48c-0.264-0.265-2.435,1.377-4.822,3.648
	c-4.123,3.921-10.949,7.804-13.805,7.852c-0.725,0.012-2.792,1.147-4.595,2.522s-3.685,2.533-4.183,2.572s-2.256,1.692-3.906,3.672
	c-2.329,2.795-3.027,4.655-3.125,8.316c-0.191,7.161-5.822,14.575-16.557,21.792c-3.919,2.636-5.101,2.99-7.25,2.172
	c-1.822-0.691-2.568-1.71-2.568-3.5c0-3.23-0.435-3.175-3.764,0.472c-1.506,1.648-3.861,3.11-5.236,3.25
	c-2.268,0.229-2.5-0.097-2.5-3.498c0-2.063-0.246-3.75-0.547-3.75c-0.301,0-2.326,1.855-4.5,4.122
	C228.156,74.281,222.66,78,219.463,78c-2.55,0-2.85-0.342-2.844-3.25c0.004-1.787,0.679-4.539,1.5-6.114
	c0.822-1.575,1.494-3.018,1.494-3.205c0-0.188-1.688-0.645-3.75-1.018c-2.063-0.372-4.57-1.101-5.574-1.62
	c-1.422-0.735-1.935-0.52-2.326,0.976c-0.506,1.935-9.533,10.305-14.564,13.504c-1.493,0.949-3.693,1.727-4.89,1.727
	c-2.028,0-2.138-0.355-1.62-5.25c0.305-2.888,2.102-8.85,3.99-13.25c5.146-11.986,7.594-19.545,7.77-24
	c0.24-6.059,0.111-6.5-1.887-6.5c-2.277,0-15.039,9.042-15.103,10.7c-0.025,0.66-0.609,1.56-1.297,2
	c-1.255,0.803-3.955,5.914-7.553,14.3c-1.062,2.475-2.943,6.75-4.18,9.5c-1.237,2.75-2.89,6.455-3.672,8.234
	C162.944,79.311,155.191,85,150.97,85C148.571,85,147.613,84.547,147.613,83.412z M156.715,80.609
	c2.452-1.988,3.836-3.953,7.825-11.109c2.55-4.574,7.187-15.72,6.729-16.177c-0.222-0.223-3.187,2.631-6.587,6.342
	c-5.48,5.981-15.069,20.94-15.069,23.51C149.613,84.551,153.654,83.092,156.715,80.609z M318.242,60.25
	c2.705-3.709,3.533-6.165,2.826-8.391c-0.808-2.545-2.115-2.337-5.624,0.891c-3.796,3.493-5.275,7.01-3.729,8.872
	C313.508,63.783,316.057,63.248,318.242,60.25z M104.803,78.327c0.322-3.803,2.141-5.515,3.128-2.942
	c0.625,1.627-1.352,6.596-2.628,6.607C104.857,81.996,104.632,80.348,104.803,78.327z"/>
</svg>
