<?xml version="1.0" encoding="utf-8"?>
<!-- Generator: Adobe Illustrator 17.0.0, SVG Export Plug-In . SVG Version: 6.00 Build 0)  -->
<!DOCTYPE svg PUBLIC "-//W3C//DTD SVG 1.1//EN" "http://www.w3.org/Graphics/SVG/1.1/DTD/svg11.dtd">
<svg version="1.1" id="Layer_1" xmlns="http://www.w3.org/2000/svg" xmlns:xlink="http://www.w3.org/1999/xlink" x="0px" y="0px"
	 width="113.386px" height="113.386px" viewBox="0 0 113.386 113.386" enable-background="new 0 0 113.386 113.386"
	 xml:space="preserve">
<g>
	<path fill-rule="evenodd" clip-rule="evenodd" fill="#0095DA" d="M78.167,5.17c24.517,0,37.321,18.333,31.524,45.011
		c-6.361,29.169-27.425,49.873-53.341,60.764C23.616,97.36,4.766,70.374,1.31,33.913C15.761,31.507,27.133,21.369,26.333,5.17l0,0
		H78.167L78.167,5.17z"/>
	<path fill-rule="evenodd" clip-rule="evenodd" fill="#FFFFFF" d="M105.82,49.323c-5.496,25.782-24.137,46.373-49.453,57.313
		C26.58,93.847,9.428,68.58,5.68,36.947c13.299-3.39,23.622-13.404,24.546-27.886l0,0h48.118l0,0
		C101.916,8.958,110.699,27.497,105.82,49.323L105.82,49.323z"/>
	<path fill-rule="evenodd" clip-rule="evenodd" fill="#0095DA" d="M102.389,48.566c-5.443,25.061-22.957,43.753-46.016,54.23
		C30.184,91.138,13.802,68.541,9.539,39.476c12.325-4.212,21.723-13.712,23.829-26.859l0,0h44.986l0,0
		C99.665,12.515,106.651,29.05,102.389,48.566L102.389,48.566z"/>
	<path fill-rule="evenodd" clip-rule="evenodd" fill="#FFFFFF" d="M85.875,42.407H51.513l9.817-14.555l6.259-2.154
		c0.79-0.272,0.566-0.839,0.157-0.839h-5.87l-0.635-6.37c-0.022-0.34-0.567-0.477-0.702-0.023l-1.928,6.393h-6.121
		c-0.522,0-0.589,0.612,0,0.839l5.576,2.017L44.939,42.407H17.178c-1.089,0-1.246,1.836,0,1.926l24.112,3.039
		c-0.817,1.474-2.177,2.902-2.654,4.556c-0.499,1.723,0.839,3.039,2.176,2.743c2.154-0.474,5.713-4.942,7.163-6.732l0.564-0.881
		l37.336-2.791C87.19,44.197,87.166,42.407,85.875,42.407z"/>
	<path fill-rule="evenodd" clip-rule="evenodd" fill="#0095DA" d="M47.488,71.018c-0.244,0.918-0.455,1.572-0.634,2.073
		c0-1.567,0-7.427,0-7.511c0.741-0.037,1.77-0.087,1.77-0.087l0.129-2.531v-4.397H38.359c0,0-1.178,3.116-1.504,3.981
		c-0.326-0.865-1.504-3.981-1.504-3.981H24.753v6.921c0,0,1.126,0.056,1.899,0.094c0,0.095-0.003,8.4-0.003,8.475
		c-0.697,0.036,61.496,0.038,60.722,0.002c0-0.102,0-8.381,0-8.477c0.741-0.037,1.77-0.087,1.77-0.087l0.131-2.531v-4.397H66.76
		v6.927c0,0,1.191,0.056,1.951,0.092c0,0.099,0,7.279,0,8.076c-0.208-0.428-0.492-1.271-0.922-3.128l-7.192-30.718l-5.156-0.049
		C55.441,39.765,47.497,70.974,47.488,71.018z M57.485,72.756c0.104,0.503,0.184,0.93,0.241,1.29
		c-0.381,0.014-0.582,0.022-1.065,0.041c0-0.002,0-0.065,0-0.065s-1.315,0-2.042,0c0.038-0.15,0.165-0.646,0.322-1.266
		C56.025,72.756,56.388,72.756,57.485,72.756z"/>
	<path fill-rule="evenodd" clip-rule="evenodd" fill="#FFFFFF" d="M59.143,68.149l-2.62-12.889l-3.081,12.889H59.143L59.143,68.149z
		 M75.012,72.209l6.059-7.397v-0.256l0,0c0-0.823-0.463-1.595-1.952-1.595l0,0v-1.743h7.499v1.743l0,0
		c-1.848,0-1.899,0.721-1.899,2.571l0,0v8.576l0,0c0,1.899,0.152,2.567,1.899,2.567l0,0v1.693h-7.499v-1.693l0,0
		c1.695,0,1.952-0.617,1.952-2.567l0,0v-6.674l-6.059,7.444v0.308l0,0c0,1.027,0.566,1.489,1.95,1.489l0,0v1.693H58.321v-1.693l0,0
		c1.335,0,2.209-0.102,2.209-1.439c0-0.821-0.361-2.874-0.925-5.135l0,0h-6.726l-0.875,3.443l0,0
		c-0.615,2.259-0.41,3.131,2.003,3.131l0,0v1.693H38.447v-1.693l0,0c1.848,0,2.055-0.617,2.055-2.567l0,0v-8.01l-4.725,11.708
		l-4.775-12.069v8.524l0,0c0,1.644,0.205,2.414,2.002,2.414l0,0v1.693h-5.75v-1.693l0,0c1.95,0,2.053-1.181,2.053-2.825l0,0v-8.318
		l0,0c0-1.491,0-2.571-1.899-2.571l0,0v-1.743h6.109l3.34,8.831l3.338-8.831h5.905v1.743l0,0c-1.848,0-1.899,0.721-1.899,2.571l0,0
		v8.576l0,0c0,1.642,0.154,2.157,0.666,2.312c1.131,0.409,3.237,0.307,3.852-0.925c0.412-0.77,0.873-2.054,1.337-3.799l0,0
		l7.96-31.276l7.19,30.71l0,0c0.77,3.337,1.233,4.157,1.952,4.877c0.719,0.617,3.08,1.08,3.901,0.155
		c0.206-0.206,0.308-0.567,0.308-2.054l0,0v-8.576l0,0c0-1.952-0.153-2.571-1.95-2.571l0,0v-1.743h7.548v1.743l0,0
		c-1.848,0-1.95,0.772-1.95,2.571l0,0V72.209L75.012,72.209z"/>
</g>
</svg>
