<?xml version="1.0" encoding="utf-8"?>
<!-- Generator: Adobe Illustrator 16.0.0, SVG Export Plug-In . SVG Version: 6.00 Build 0)  -->
<!DOCTYPE svg PUBLIC "-//W3C//DTD SVG 1.1//EN" "http://www.w3.org/Graphics/SVG/1.1/DTD/svg11.dtd">
<svg version="1.1" id="Слой_1" xmlns="http://www.w3.org/2000/svg" xmlns:xlink="http://www.w3.org/1999/xlink" x="0px" y="0px"
	 width="400px" height="400px" viewBox="0 -100 400 400" enable-background="new 0 -100 400 400" xml:space="preserve">
<g>
	<polygon fill="#0072BC" points="-0.252,-99 401,-99 401,301 -0.252,301 	"/>
	<polygon fill="#FFFFFF" points="118.59,78.534 141.623,78.534 142.375,103.409 142.664,103.409 152.237,78.534 175.211,78.534 
		166.97,124.004 153.05,124.004 159.543,88.276 159.194,88.276 144.695,124.004 131.763,124.004 130.481,88.276 130.074,88.276 
		123.58,124.004 110.353,124.004 118.59,78.534 	"/>
	<path fill="#FFFFFF" d="M207.104,107.109h0.928c4.351,0,6.787-5.321,6.787-9.281c0-2.923-1.508-5.133-4.234-5.133h-0.87
		L207.104,107.109L207.104,107.109L207.104,107.109z M195.56,92.695h-0.868c-4.12,0-6.902,4.87-6.902,9.159
		c0,2.657,1.45,5.256,4.236,5.256h0.926L195.56,92.695L195.56,92.695L195.56,92.695z M189.066,124.784l1.277-7.281h-2.786
		c-10.675,0-14.563-6.747-14.563-13.505c0-10.003,7.196-21.697,21.351-21.697h2.437l1.215-6.821h15.553l-1.22,6.821h2.436
		c5.682,0,14.846,1.494,14.846,13.579c0,10.584-6.783,21.623-20.65,21.623h-3.074l-1.277,7.281H189.066L189.066,124.784
		L189.066,124.784z"/>
	<polygon fill="#FFFFFF" points="275.921,78.534 273.484,91.981 259.792,91.981 253.995,124.004 238.448,124.004 244.247,91.981 
		230.555,91.981 232.992,78.534 275.921,78.534 	"/>
	<polygon fill="#FFFFFF" points="294.947,78.534 290.246,104.512 290.479,104.512 305.451,78.534 323.606,78.534 315.37,124.004 
		299.821,124.004 304.46,98.54 304.229,98.54 289.324,124.004 271.166,124.004 279.4,78.534 294.947,78.534 	"/>
	<polygon fill="#FFFFFF" points="335.675,141.141 337.883,128.251 359.638,135.579 335.675,141.141 	"/>
	<path fill="#FFFFFF" d="M330.52,131.188H105.765c-4.151,0-5.957,5.158-7.7,10.146c-0.61,1.737-1.567,4.472-2.298,5.599
		c-1.326-1.481-2.301-8.562-2.681-11.352l-0.212-1.543c-1.337-9.577-2.542-19.686-3.708-29.456
		C84.07,61.85,81.654,46.888,74.562,46.738c-8.895-0.187-12.057,17.457-21.438,69.825l-1.229,6.844
		c-1.391,7.781-4.56,7.781-5.912,7.781H41.76l-1.047,6.739h5.27c3.528,0,9.758-1.715,11.815-13.194l1.224-6.844
		c5.786-32.286,11.253-62.743,15.114-64.267c3.355,3.999,6.645,31.552,9.065,51.846c1.173,9.812,2.38,19.954,3.732,29.608
		l0.205,1.514c1.05,7.727,2.356,17.342,8.829,17.342c4.152,0,5.957-5.156,7.701-10.144c0.667-1.907,1.753-4.993,2.504-5.862h223.304
		L330.52,131.188L330.52,131.188L330.52,131.188z"/>
</g>
</svg>
