<?xml version="1.0" encoding="utf-8"?>
<!-- Generator: Adobe Illustrator 16.0.0, SVG Export Plug-In . SVG Version: 6.00 Build 0)  -->
<!DOCTYPE svg PUBLIC "-//W3C//DTD SVG 1.1//EN" "http://www.w3.org/Graphics/SVG/1.1/DTD/svg11.dtd">
<svg version="1.1" id="Layer_1" xmlns="http://www.w3.org/2000/svg" xmlns:xlink="http://www.w3.org/1999/xlink" x="0px" y="0px"
	 width="200px" height="20px" viewBox="0 0 200 20" enable-background="new 0 0 200 20" xml:space="preserve">
<g>
	<rect fill="#FFFFFF" width="2" height="13"/>
	<rect x="9" fill="#FFFFFF" width="2" height="13"/>
	<rect x="19" fill="#FFFFFF" width="2" height="13"/>
	<rect x="28" fill="#FFFFFF" width="2" height="13"/>
	<rect x="38" fill="#FFFFFF" width="1" height="13"/>
	<rect x="48" fill="#FFFFFF" width="1" height="13"/>
	<rect x="57" fill="#FFFFFF" width="1" height="13"/>
	<rect x="65" fill="#FFFFFF" width="1" height="13"/>
	<rect x="74" fill="#FFFFFF" width="1" height="13"/>
	<rect x="83" fill="#FFFFFF" width="1" height="13"/>
	<rect x="93" fill="#FFFFFF" width="1" height="13"/>
	<rect x="102" fill="#FFFFFF" width="1" height="13"/>
	<rect x="111" fill="#FFFFFF" width="1" height="13"/>
	<rect x="119" fill="#FFFFFF" width="1" height="13"/>
	<rect x="128" fill="#FFFFFF" width="1" height="13"/>
	<rect x="138" fill="#FFFFFF" width="1" height="13"/>
	<rect x="145" fill="#FFFFFF" width="1" height="13"/>
	<rect x="155" fill="#FFFFFF" width="1" height="13"/>
	<rect x="164" fill="#FFFFFF" width="1" height="13"/>
	<rect x="173" fill="#FFFFFF" width="1" height="13"/>
	<rect x="181" fill="#FFFFFF" width="1" height="13"/>
	<rect x="190" fill="#FFFFFF" width="1" height="13"/>
	<rect x="199" fill="#FFFFFF" width="1" height="13"/>
</g>
</svg>
