<?xml version="1.0" encoding="utf-8"?>
<!-- Generator: Adobe Illustrator 16.0.0, SVG Export Plug-In . SVG Version: 6.00 Build 0)  -->
<svg version="1.2" baseProfile="tiny" id="Layer_1" xmlns="http://www.w3.org/2000/svg" xmlns:xlink="http://www.w3.org/1999/xlink"
	 x="0px" y="0px" width="160px" height="100px" viewBox="0 0 160 100" xml:space="preserve">
<g>
	<path fill="#FFFFFF" d="M1.75,71.377c-1.097,0-2-0.89-2-1.988V19.664c0-1.099,0.902-1.99,2-1.99c1.098,0,2,0.891,2,1.99v49.725
		C3.75,70.486,2.849,71.377,1.75,71.377z"/>
	<path fill="#FFFFFF" d="M11.749,71.377c-1.098,0-2-0.89-2-1.988V19.664c0-1.099,0.9-1.99,2-1.99c1.099,0,2,0.891,2,1.99v49.725
		C13.75,70.486,12.848,71.377,11.749,71.377z"/>
	<path fill="#FFFFFF" d="M22.75,65.41c-1.098,0-2-0.892-2-1.989V25.63c0-1.097,0.902-1.989,2-1.989c1.099,0,2,0.891,2,1.989v37.791
		C24.75,64.52,23.85,65.41,22.75,65.41z"/>
	<path fill="#FFFFFF" d="M34.75,65.41c-1.099,0-2-0.892-2-1.989V25.63c0-1.097,0.9-1.989,2-1.989c1.097,0,2,0.891,2,1.989v37.791
		C36.75,64.52,35.848,65.41,34.75,65.41z"/>
	<path fill="#FFFFFF" d="M45.75,78.835c-0.549,0-1-0.441-1-0.993V11.21c0-0.548,0.451-0.994,1-0.994c0.548,0,1,0.445,1,0.994v66.631
		C46.75,78.391,46.298,78.835,45.75,78.835z"/>
	<path fill="#FFFFFF" d="M56.75,81.32c-0.549,0-1-0.442-1-0.991V8.725c0-0.549,0.451-0.996,1-0.996c0.548,0,1,0.446,1,0.996v71.604
		C57.75,80.877,57.299,81.32,56.75,81.32z"/>
	<path fill="#FFFFFF" d="M66.534,81.32c-0.549,0-1-0.442-1-0.991V8.725c0-0.549,0.452-0.996,1-0.996c0.548,0,1,0.446,1,0.996v71.604
		C67.533,80.877,67.082,81.32,66.534,81.32z"/>
	<path fill="#FFFFFF" d="M75.75,78.835c-0.549,0-1-0.441-1-0.993V11.21c0-0.548,0.451-0.994,1-0.994s1,0.445,1,0.994v66.631
		C76.75,78.391,76.3,78.835,75.75,78.835z"/>
	<path fill="#FFFFFF" d="M86.75,70.383c-0.551,0-1-0.443-1-0.994V19.664c0-0.549,0.449-0.994,1-0.994c0.549,0,1,0.445,1,0.994
		v49.725C87.75,69.938,87.299,70.383,86.75,70.383z"/>
	<path fill="#FFFFFF" d="M96.751,64.416c-0.549,0-1.001-0.443-1.001-0.995V25.63c0-0.549,0.452-0.994,1.001-0.994
		c0.551,0,0.999,0.445,0.999,0.994v37.791C97.75,63.973,97.302,64.416,96.751,64.416z"/>
	<path fill="#FFFFFF" d="M106.749,64.416c-0.55,0-0.999-0.443-0.999-0.995V25.63c0-0.549,0.449-0.994,0.999-0.994
		c0.549,0,1,0.445,1,0.994v37.791C107.751,63.973,107.3,64.416,106.749,64.416z"/>
	<path fill="#FFFFFF" d="M118.75,64.416c-0.55,0-0.999-0.443-0.999-0.995V25.63c0-0.549,0.449-0.994,0.999-0.994
		c0.549,0,1,0.445,1,0.994v37.791C119.75,63.973,119.299,64.416,118.75,64.416z"/>
	<path fill="#FFFFFF" d="M128.75,64.416c-0.552,0-1-0.443-1-0.995V25.63c0-0.549,0.448-0.994,1-0.994
		c0.549,0,0.999,0.445,0.999,0.994v37.791C129.75,63.973,129.299,64.416,128.75,64.416z"/>
	<path fill="#FFFFFF" d="M137.75,64.416c-0.549,0-0.999-0.443-0.999-0.995V25.63c0-0.549,0.45-0.994,0.999-0.994
		c0.55,0,1,0.445,1,0.994v37.791C138.75,63.973,138.3,64.416,137.75,64.416z"/>
	<path fill="#FFFFFF" d="M148.75,70.383c-0.551,0-0.999-0.443-0.999-0.994V19.664c0-0.549,0.448-0.994,0.999-0.994
		c0.549,0,1,0.445,1,0.994v49.725C149.75,69.938,149.299,70.383,148.75,70.383z"/>
	<path fill="#FFFFFF" d="M158.75,70.383c-0.55,0-0.999-0.443-0.999-0.994V19.664c0-0.549,0.449-0.994,0.999-0.994
		c0.551,0,1,0.445,1,0.994v49.725C159.75,69.938,159.301,70.383,158.75,70.383z"/>
</g>
</svg>
