<?xml version="1.0" encoding="utf-8"?>
<!-- Generator: Adobe Illustrator 16.0.0, SVG Export Plug-In . SVG Version: 6.00 Build 0)  -->
<!DOCTYPE svg PUBLIC "-//W3C//DTD SVG 1.1 Tiny//EN" "http://www.w3.org/Graphics/SVG/1.1/DTD/svg11-tiny.dtd">
<svg version="1.1" baseProfile="tiny" id="Layer_1" xmlns="http://www.w3.org/2000/svg" xmlns:xlink="http://www.w3.org/1999/xlink"
	 x="0px" y="0px" width="60px" height="60px" viewBox="0 0 60 60" xml:space="preserve">
<g id="Layer_2">
	<g transform="translate(0,-952.36216)">
		<path fill="#FFFFFF" d="M23.622,964c-0.348,0-0.648,0.24-0.721,0.589l-9.613,5.828c-0.108-0.047-0.241-0.108-0.373-0.108
			c-0.409,0-0.721,0.324-0.721,0.721c0,0.132,0.024,0.265,0.108,0.373l-4.854,8.543c-0.024,0-0.048,0-0.084,0
			c-0.409,0-0.721,0.325-0.721,0.722c0,0.264,0.132,0.504,0.373,0.648l-0.721,4.758c-0.324,0.085-0.564,0.373-0.564,0.722
			c0,0.372,0.265,0.697,0.649,0.721l2.547,3.846c-0.156,0.132-0.24,0.348-0.24,0.54c0,0.409,0.324,0.723,0.721,0.723
			c0.3,0,0.565-0.193,0.672-0.458h1.395c0.108,0.132,0.265,0.216,0.433,0.241l1.479,2.365c0,0.025,0,0.049,0,0.049
			c0,0.409,0.324,0.722,0.721,0.722c0.3,0,0.564-0.192,0.673-0.457l2.655-0.191c0.132,0.216,0.373,0.324,0.613,0.324
			c0.084,0,0.156,0,0.216-0.024l0.83,1.238c0,0.047-0.024,0.107-0.024,0.155c0,0.133,0.048,0.301,0.132,0.409l-1.285,2.716
			c-0.084-0.024-0.192-0.048-0.265-0.048c-0.408,0-0.721,0.323-0.721,0.72l0,0c0,0.409,0.325,0.722,0.721,0.722
			c0.241,0,0.458-0.107,0.589-0.3l2.091,0.456c0.024,0.372,0.349,0.696,0.721,0.696c0.408,0,0.721-0.324,0.721-0.72
			c0-0.048,0-0.132-0.024-0.192l2.283-1.982c0.048,0,0.108,0.022,0.156,0.022c0.409,0,0.721-0.323,0.721-0.72
			c0-0.049,0-0.084,0-0.133l4.759-4.938c0.048,0,0.108,0.023,0.157,0.023c0.324,0,0.612-0.216,0.696-0.541l2.44-0.829
			c0.132,0.192,0.348,0.325,0.59,0.325c0.107,0,0.239-0.024,0.348-0.085l2.019,1.767c0,0.024,0,0.049,0,0.085
			c0,0.408,0.324,0.722,0.722,0.722c0.3,0,0.54-0.157,0.673-0.433l4.506-1.263c0.132,0.192,0.348,0.3,0.589,0.3
			c0.372,0,0.673-0.264,0.722-0.648l6.224-1.418c0.133,0.191,0.349,0.301,0.589,0.301l0,0c0.409,0,0.722-0.325,0.722-0.721
			c0-0.157-0.049-0.325-0.156-0.457l2.656-6.418c0.348-0.047,0.588-0.372,0.588-0.72c0-0.265-0.132-0.505-0.372-0.649l-1.767-6.309
			c0.132-0.131,0.216-0.324,0.216-0.54l0,0c0-0.409-0.324-0.722-0.722-0.722c-0.047,0-0.108,0-0.155,0.024l-0.673-0.613
			l-3.304-3.545c-0.025-0.409-0.349-0.697-0.722-0.697c-0.108,0-0.193,0.023-0.265,0.047l-11.633-5.371
			c-0.107-0.265-0.371-0.457-0.673-0.457c-0.215,0-0.408,0.083-0.541,0.24l-8.916-0.324C24.126,964.132,23.886,964,23.622,964
			L23.622,964z M24.343,964.938l8.676,0.324c0,0.024,0,0.024,0,0.049l-10.395,5.047l1.105-4.891
			C23.994,965.418,24.258,965.202,24.343,964.938L24.343,964.938L24.343,964.938z M23.021,965.154
			c0.048,0.048,0.108,0.107,0.156,0.156l-1.129,4.914c-0.024,0-0.048,0-0.084,0c-0.264,0-0.541,0.157-0.648,0.409l-7.282-0.048
			L23.021,965.154L23.021,965.154z M34.389,965.527l11.248,5.179c-0.024,0.023-0.024,0.084-0.024,0.108l-6.717,1.177
			c-0.133-0.24-0.374-0.408-0.649-0.408c-0.084,0-0.156,0-0.216,0.024l-3.81-5.913C34.281,965.694,34.353,965.61,34.389,965.527
			L34.389,965.527z M31.325,971.355l-7.788-0.865l9.722-4.723L31.325,971.355z M33.739,966.043l3.87,5.96
			c0,0.024-0.024,0.024-0.024,0.049l-5.695-0.614L33.739,966.043L33.739,966.043z M22.841,970.982l8.328,0.913l-1.106,3.221
			c-0.084,0.024-0.132,0.047-0.192,0.084L22.841,970.982L22.841,970.982z M13.647,971.138l7.631,0.048l0,0l-6.309,4.194
			l-1.478-3.893C13.576,971.415,13.624,971.27,13.647,971.138L13.647,971.138z M45.721,971.355c0.048,0.083,0.107,0.132,0.192,0.192
			c-0.155,0.781-0.409,1.874-0.673,3.244c-0.217,1.045-0.433,2.091-0.59,2.896c-0.048,0.264-0.084,0.48-0.132,0.696
			c-0.048,0-0.084-0.024-0.132-0.024c-0.023,0-0.048,0-0.048,0l-5.456-5.612c0.049-0.048,0.085-0.132,0.108-0.216L45.721,971.355
			L45.721,971.355L45.721,971.355z M22.672,971.547l6.849,4.133c0,0.048-0.024,0.108-0.024,0.156c0,0.192,0.084,0.373,0.216,0.504
			l-3.544,5.239c-0.048-0.023-0.132-0.084-0.217-0.084L22.672,971.547L22.672,971.547z M21.627,971.619L21.627,971.619l-4.242,9.421
			c-0.084-0.024-0.192-0.048-0.264-0.048c0,0,0,0-0.024,0l-1.934-5.071L21.627,971.619L21.627,971.619z M46.573,971.655l3.39,3.22
			l0.564,0.589c-0.023,0.084-0.085,0.156-0.085,0.241l-5.394,2.679c0.022-0.192,0.047-0.348,0.107-0.564
			c0.155-0.805,0.372-1.851,0.588-2.896c0.264-1.346,0.505-2.439,0.674-3.221C46.466,971.703,46.525,971.679,46.573,971.655
			L46.573,971.655z M12.734,971.764c0.048,0.023,0.108,0.023,0.156,0.023c0.024,0,0.048,0,0.084,0l1.501,3.942L8,980.031
			L12.734,971.764L12.734,971.764z M25.412,981.557c-0.132,0.084-0.24,0.216-0.324,0.373l-7.283-0.48l4.374-9.662L25.412,981.557z
			 M37.369,972.568l-6.525,2.788c-0.048-0.084-0.132-0.132-0.217-0.193l1.104-3.22L37.369,972.568z M37.85,972.965L37.85,972.965
			l-2.499,4.891c-0.024,0-0.024,0-0.049,0c-0.156,0-0.324,0.048-0.457,0.156L31,975.861L37.85,972.965L37.85,972.965z
			 M38.414,973.098l5.396,5.563c-0.108,0.133-0.156,0.301-0.156,0.458c0,0.192,0.048,0.348,0.192,0.479l-4.025,5.216
			c-0.085-0.024-0.192-0.048-0.301-0.048c-0.023,0-0.023,0-0.048,0l-3.568-5.72c0.107-0.132,0.156-0.3,0.156-0.456
			c0-0.192-0.085-0.349-0.192-0.481L38.414,973.098L38.414,973.098L38.414,973.098z M16.58,981.161l-8.46-0.541l6.573-4.375
			L16.58,981.161z M50.575,976.245c0.133,0.192,0.349,0.3,0.589,0.325l1.695,6.044c-0.084,0.024-0.156,0.084-0.241,0.132l-7.33-3.87
			L50.575,976.245L50.575,976.245z M30.76,976.378l3.846,2.126c0,0.024,0,0.048,0,0.085c0,0.131,0.023,0.264,0.108,0.408
			l-5.504,7.223c-0.048-0.024-0.108-0.024-0.192-0.024l-2.5-3.809c0.025-0.048,0.025-0.108,0.025-0.192c0-0.048,0-0.108-0.025-0.156
			l3.738-5.48l0,0C30.435,976.57,30.604,976.486,30.76,976.378L30.76,976.378L30.76,976.378z M35.134,979.31
			c0.048,0.024,0.108,0.024,0.156,0.024c0.024,0,0.083,0,0.108,0l3.545,5.67c-0.084,0.085-0.132,0.193-0.157,0.301l-9.156,1.287
			c0,0,0-0.024-0.023-0.024L35.134,979.31L35.134,979.31z M45.071,979.358l7.283,3.845c0,0.023,0,0.047,0,0.084l-4.267,2.126
			c-0.084-0.084-0.192-0.132-0.324-0.192L45.071,979.358L45.071,979.358z M47.198,985.318c-0.216,0.133-0.349,0.372-0.349,0.612
			c0,0.108,0.024,0.216,0.085,0.325l-3.568,2.715l1.345-9.072L47.198,985.318z M44.11,980.079l-1.395,9.35l-5.479,4.157
			c-0.048-0.048-0.107-0.108-0.156-0.133l2.524-7.245c0.349-0.049,0.613-0.372,0.613-0.721c0-0.109-0.024-0.193-0.049-0.301
			L44.11,980.079L44.11,980.079z M7.963,981.161l8.436,0.541c0,0.024,0,0.024,0,0.048s0,0.024,0,0.047l-6.85,3.413L7.963,981.161
			L7.963,981.161z M7.507,981.509l1.563,3.917l-1.983,0.997c-0.048-0.108-0.156-0.216-0.264-0.3L7.507,981.509L7.507,981.509z
			 M17.901,982.013l7.222,0.481l0,0l-6.261,5.744L17.901,982.013L17.901,982.013z M17.385,982.422l0.937,5.984
			c-0.084,0.024-0.156,0.085-0.216,0.157l-5.215-0.83l4.001-5.288c0.084,0.024,0.132,0.024,0.216,0.024
			C17.229,982.471,17.3,982.446,17.385,982.422L17.385,982.422z M12.277,987.626l-1.91-0.301l-0.649-1.61l6.417-3.196
			L12.277,987.626z M25.52,982.879c0.048,0.024,0.108,0.024,0.156,0.047l-0.997,9.049c-0.108,0.023-0.217,0.084-0.325,0.156
			l-5.023-3.041v-0.022c0-0.157-0.048-0.302-0.132-0.433L25.52,982.879L25.52,982.879z M28.476,986.399
			c-0.132,0.132-0.216,0.325-0.216,0.505c0,0.133,0.048,0.265,0.108,0.409l-3.112,4.481l0.961-8.832L28.476,986.399z
			 M52.534,983.816c0.023,0.048,0.084,0.084,0.132,0.107l-2.584,6.286c-0.024,0-0.024,0-0.047,0l-1.911-3.786
			c0.108-0.132,0.192-0.3,0.192-0.48v-0.023L52.534,983.816L52.534,983.816L52.534,983.816z M38.87,985.835L38.87,985.835
			l-4.782,5.179c-0.132-0.107-0.3-0.191-0.48-0.191c-0.084,0-0.156,0.023-0.265,0.048l-3.544-3.786L38.87,985.835L38.87,985.835
			L38.87,985.835z M9.25,985.968l0.505,1.261l-2.308-0.372L9.25,985.968L9.25,985.968z M38.896,986.641l-2.367,6.741
			c-0.108,0.023-0.217,0.085-0.325,0.132l-1.935-1.694c0.023-0.084,0.023-0.156,0.023-0.24l0,0L38.896,986.641L38.896,986.641z
			 M47.355,986.641c0.084,0.022,0.155,0.022,0.24,0.022c0.023,0,0.048,0,0.084,0l1.874,3.703c-0.133,0.107-0.216,0.3-0.24,0.456
			l-6.224,1.418c-0.048-0.049-0.109-0.108-0.157-0.157l0.349-2.366L47.355,986.641L47.355,986.641L47.355,986.641z M6.918,987.337
			l3.089,0.481l0.72,1.85l-1.153,1.503c-0.049-0.024-0.108-0.024-0.157-0.024L6.918,987.337
			C6.918,987.361,6.918,987.337,6.918,987.337L6.918,987.337z M29.498,987.601l3.437,3.677c-0.023,0.048-0.048,0.132-0.048,0.192
			l-2.368,0.806c-0.048-0.108-0.156-0.217-0.264-0.265L29.498,987.601L29.498,987.601z M28.825,987.626
			c0.024,0,0.084,0.023,0.108,0.023l0.697,4.266c-0.24,0.084-0.457,0.265-0.505,0.541l-3.569-0.131L28.825,987.626L28.825,987.626z
			 M11.905,988.142l-0.782,1.045l-0.48-1.261L11.905,988.142z M12.53,988.215l4.915,0.781l-4.891,2.223
			c-0.131-0.157-0.348-0.264-0.564-0.264c-0.048,0-0.108,0-0.156,0.022l-0.481-1.213L12.53,988.215L12.53,988.215z M17.757,989.475
			l-3.545,4.675c-0.024,0-0.084,0-0.108,0c-0.157,0-0.301,0.049-0.434,0.133l-1.237-1.958c0.156-0.134,0.265-0.325,0.301-0.541
			L17.757,989.475L17.757,989.475z M19.127,989.62l4.999,3.04c0,0.024,0,0.024,0,0.049c0,0.084,0.024,0.156,0.048,0.24l-3.941,3.088
			c-0.133-0.084-0.265-0.132-0.409-0.132s-0.264,0.023-0.373,0.108l-0.757-1.13c0.049-0.109,0.084-0.216,0.084-0.349
			c0-0.24-0.108-0.456-0.325-0.589l0.373-4.133C18.947,989.752,19.055,989.692,19.127,989.62L19.127,989.62z M18.274,989.728
			L18.274,989.728l-0.349,4.086c-0.3,0.048-0.541,0.301-0.589,0.589l-2.523,0.192c-0.024-0.048-0.048-0.108-0.084-0.156
			L18.274,989.728L18.274,989.728z M42.355,991.975c-0.324,0.048-0.564,0.301-0.612,0.613l-3.569,0.997l4.458-3.388L42.355,991.975z
			 M10.968,990.293l0.409,1.046c-0.048,0.107-0.108,0.216-0.108,0.324h-1.214c0-0.023-0.024-0.048-0.048-0.108L10.968,990.293
			L10.968,990.293z M25.581,992.89l3.652,0.131l0,0l-4.542,4.711l0.265-4.326C25.256,993.382,25.496,993.165,25.581,992.89
			L25.581,992.89z M24.427,993.453l-0.265,4.219c-0.192,0.024-0.349,0.108-0.48,0.24l-3.112-1.238c0-0.023,0-0.023,0-0.048
			c0-0.048,0-0.107-0.024-0.132L24.427,993.453L24.427,993.453L24.427,993.453z M20.317,997.191l3.173,1.262
			c0,0.024,0,0.047,0,0.047l-2.223,0.41c-0.132-0.192-0.325-0.301-0.541-0.301l-0.505-1.346
			C20.233,997.239,20.281,997.214,20.317,997.191L20.317,997.191z M19.668,997.347L19.668,997.347l0.541,1.395
			c-0.132,0.132-0.241,0.301-0.265,0.48l-1.417,0.541L19.668,997.347L19.668,997.347z M23.237,999.089l-1.802,1.563
			c-0.084-0.049-0.156-0.084-0.24-0.108l-0.084-0.648c0.156-0.108,0.264-0.301,0.3-0.481L23.237,999.089L23.237,999.089z
			 M20.1,999.799c0.109,0.132,0.301,0.239,0.481,0.265l0.084,0.647c-0.048,0.025-0.108,0.085-0.132,0.134l-2.019-0.434L20.1,999.799
			L20.1,999.799z"/>
	</g>
</g>
<g>
</g>
<g>
</g>
<g>
</g>
<g>
</g>
<g>
</g>
<g>
</g>
<g>
</g>
<g>
</g>
<g>
</g>
<g>
</g>
<g>
</g>
<g>
</g>
<g>
</g>
<g>
</g>
<g>
</g>
</svg>
