<?xml version="1.0" encoding="utf-8"?>
<!-- Generator: Adobe Illustrator 16.0.0, SVG Export Plug-In . SVG Version: 6.00 Build 0)  -->
<!DOCTYPE svg PUBLIC "-//W3C//DTD SVG 1.1 Tiny//EN" "http://www.w3.org/Graphics/SVG/1.1/DTD/svg11-tiny.dtd">
<svg version="1.1" baseProfile="tiny" id="Layer_1" xmlns="http://www.w3.org/2000/svg" xmlns:xlink="http://www.w3.org/1999/xlink"
	 x="0px" y="0px" width="595.279px" height="680px" viewBox="0 80.945 595.279 680" xml:space="preserve">
<g id="Layer_2">
	<g transform="translate(0,-952.36216)">
		<path fill="#2980B9" d="M397.602,1134.383c-2.286,0-4.257,1.576-4.731,3.864l-63.079,38.243c-0.709-0.315-1.576-0.71-2.443-0.71
			c-2.682,0-4.73,2.128-4.73,4.731c0,0.867,0.157,1.734,0.709,2.445l-31.854,56.062c-0.158,0-0.316,0-0.552,0
			c-2.681,0-4.731,2.128-4.731,4.731c0,1.734,0.868,3.311,2.444,4.257l-4.731,31.225c-2.128,0.552-3.705,2.445-3.705,4.731
			c0,2.445,1.735,4.573,4.258,4.731l16.715,25.233c-1.024,0.866-1.576,2.285-1.576,3.547c0,2.68,2.128,4.732,4.73,4.732
			c1.971,0,3.707-1.264,4.415-2.997h9.147c0.709,0.867,1.734,1.42,2.838,1.577l9.698,15.532c0,0.158,0,0.316,0,0.316
			c0,2.68,2.129,4.731,4.731,4.731c1.971,0,3.705-1.261,4.416-2.996l17.425-1.262c0.867,1.419,2.444,2.128,4.021,2.128
			c0.551,0,1.025,0,1.419-0.158l5.441,8.123c0,0.314-0.158,0.709-0.158,1.024c0,0.868,0.316,1.972,0.867,2.682l-8.437,17.82
			c-0.552-0.158-1.263-0.316-1.734-0.316c-2.681,0-4.73,2.13-4.73,4.73l0,0c0,2.682,2.128,4.731,4.73,4.731
			c1.576,0,2.996-0.709,3.863-1.971l13.72,2.996c0.157,2.445,2.287,4.574,4.731,4.574c2.681,0,4.73-2.129,4.73-4.73
			c0-0.316,0-0.867-0.156-1.262l14.98-13.009c0.315,0,0.711,0.156,1.024,0.156c2.682,0,4.731-2.129,4.731-4.731
			c0-0.316,0-0.551,0-0.867l31.225-32.406c0.315,0,0.71,0.156,1.024,0.156c2.13,0,4.021-1.419,4.574-3.549l16.005-5.44
			c0.868,1.261,2.286,2.128,3.865,2.128c0.709,0,1.576-0.158,2.286-0.552l13.246,11.59c0,0.158,0,0.316,0,0.553
			c0,2.68,2.129,4.73,4.73,4.73c1.971,0,3.549-1.025,4.416-2.839l29.569-8.278c0.867,1.261,2.286,1.97,3.863,1.97
			c2.444,0,4.416-1.735,4.731-4.26l40.844-9.303c0.868,1.262,2.287,1.972,3.863,1.972l0,0c2.682,0,4.731-2.128,4.731-4.731
			c0-1.025-0.315-2.129-1.025-2.996l17.427-42.106c2.286-0.315,3.862-2.444,3.862-4.731c0-1.734-0.866-3.311-2.443-4.257
			l-11.592-41.396c0.867-0.867,1.42-2.129,1.42-3.548l0,0c0-2.682-2.13-4.732-4.73-4.732c-0.316,0-0.711,0-1.025,0.158l-4.417-4.02
			l-21.683-23.261c-0.157-2.682-2.286-4.574-4.73-4.574c-0.71,0-1.262,0.159-1.733,0.316l-76.327-35.245
			c-0.71-1.735-2.444-2.997-4.415-2.997c-1.419,0-2.682,0.552-3.55,1.578l-58.505-2.129
			C400.914,1135.25,399.337,1134.383,397.602,1134.383L397.602,1134.383z M402.334,1140.534l56.929,2.128c0,0.157,0,0.157,0,0.315
			l-68.205,33.117l7.254-32.091C400.047,1143.687,401.782,1142.268,402.334,1140.534L402.334,1140.534L402.334,1140.534z
			 M393.66,1141.952c0.315,0.316,0.71,0.71,1.024,1.025l-7.411,32.249c-0.158,0-0.316,0-0.552,0c-1.734,0-3.549,1.025-4.258,2.681
			l-47.783-0.316L393.66,1141.952L393.66,1141.952z M468.253,1144.397l73.803,33.984c-0.159,0.159-0.159,0.552-0.159,0.71
			l-44.076,7.727c-0.866-1.577-2.444-2.681-4.257-2.681c-0.554,0-1.026,0-1.42,0.158l-24.995-38.794
			C467.542,1145.501,468.014,1144.949,468.253,1144.397L468.253,1144.397z M448.145,1182.64l-51.095-5.677l63.789-30.988
			L448.145,1182.64z M463.993,1147.787l25.391,39.109c0,0.159-0.157,0.159-0.157,0.316l-37.375-4.021L463.993,1147.787
			L463.993,1147.787z M392.477,1180.195l54.643,5.993l-7.254,21.131c-0.552,0.158-0.867,0.315-1.262,0.552L392.477,1180.195
			L392.477,1180.195z M332.158,1181.219l50.069,0.316l0,0l-41.395,27.518l-9.699-25.546
			C331.684,1183.033,332.001,1182.086,332.158,1181.219L332.158,1181.219z M542.606,1182.64c0.315,0.551,0.71,0.867,1.262,1.262
			c-1.024,5.125-2.681,12.3-4.415,21.289c-1.419,6.859-2.84,13.72-3.865,19.003c-0.314,1.733-0.552,3.154-0.865,4.572
			c-0.316,0-0.553-0.157-0.868-0.157c-0.157,0-0.314,0-0.314,0l-35.798-36.822c0.315-0.316,0.553-0.869,0.711-1.42L542.606,1182.64
			L542.606,1182.64L542.606,1182.64z M391.374,1183.901l44.943,27.124c0,0.315-0.157,0.71-0.157,1.026
			c0,1.261,0.553,2.444,1.419,3.311l-23.259,34.377c-0.316-0.157-0.868-0.551-1.42-0.551L391.374,1183.901L391.374,1183.901z
			 M384.514,1184.373L384.514,1184.373l-27.834,61.819c-0.552-0.159-1.262-0.316-1.734-0.316c0,0,0,0-0.158,0l-12.693-33.274
			L384.514,1184.373L384.514,1184.373z M548.205,1184.611l22.235,21.131l3.707,3.864c-0.159,0.551-0.553,1.024-0.553,1.577
			l-35.403,17.583c0.157-1.262,0.315-2.286,0.709-3.705c1.025-5.283,2.444-12.143,3.864-19.003
			c1.733-8.832,3.313-16.007,4.416-21.131C547.495,1184.925,547.888,1184.767,548.205,1184.611L548.205,1184.611z M326.165,1185.32
			c0.314,0.157,0.709,0.157,1.025,0.157c0.158,0,0.316,0,0.552,0l9.856,25.863l-42.5,28.229L326.165,1185.32L326.165,1185.32z
			 M409.35,1249.582c-0.866,0.552-1.576,1.419-2.128,2.444l-47.783-3.154l28.702-63.395L409.35,1249.582z M487.805,1190.603
			l-42.814,18.292c-0.315-0.551-0.867-0.866-1.419-1.262l7.253-21.132L487.805,1190.603z M490.961,1193.204L490.961,1193.204
			l-16.4,32.091c-0.158,0-0.158,0-0.315,0c-1.025,0-2.13,0.316-2.997,1.025l-25.231-14.114L490.961,1193.204L490.961,1193.204z
			 M494.667,1194.072l35.402,36.507c-0.709,0.868-1.023,1.971-1.023,2.997c0,1.262,0.314,2.287,1.262,3.154l-26.416,34.221
			c-0.551-0.157-1.261-0.316-1.971-0.316c-0.156,0-0.156,0-0.315,0l-23.418-37.531c0.71-0.867,1.025-1.972,1.025-2.996
			c0-1.262-0.552-2.287-1.261-3.154L494.667,1194.072L494.667,1194.072L494.667,1194.072z M351.396,1246.98l-55.51-3.548
			l43.131-28.703L351.396,1246.98z M574.462,1214.729c0.868,1.263,2.287,1.972,3.863,2.13l11.118,39.66
			c-0.552,0.159-1.024,0.553-1.576,0.867l-48.099-25.39L574.462,1214.729L574.462,1214.729z M444.44,1215.598l25.231,13.956
			c0,0.158,0,0.316,0,0.552c0,0.868,0.157,1.735,0.709,2.681l-36.113,47.389c-0.314-0.157-0.71-0.157-1.262-0.157l-16.401-24.996
			c0.158-0.315,0.158-0.71,0.158-1.262c0-0.315,0-0.709-0.158-1.025l24.522-35.955l0,0
			C442.309,1216.86,443.415,1216.307,444.44,1215.598L444.44,1215.598L444.44,1215.598z M473.141,1234.836
			c0.315,0.159,0.709,0.159,1.022,0.159c0.159,0,0.554,0,0.711,0l23.261,37.216c-0.553,0.552-0.867,1.261-1.026,1.971l-60.083,8.438
			c0,0,0-0.157-0.155-0.157L473.141,1234.836L473.141,1234.836z M538.348,1235.152l47.783,25.232c0,0.157,0,0.315,0,0.552
			l-27.991,13.956c-0.553-0.551-1.261-0.867-2.129-1.262L538.348,1235.152L538.348,1235.152z M552.304,1274.261
			c-1.418,0.868-2.286,2.445-2.286,4.021c0,0.71,0.157,1.419,0.552,2.13l-23.418,17.82l8.832-59.531L552.304,1274.261z
			 M532.041,1239.883l-9.147,61.345l-35.954,27.282c-0.315-0.314-0.71-0.709-1.024-0.867l16.559-47.546
			c2.285-0.316,4.021-2.444,4.021-4.731c0-0.71-0.158-1.262-0.315-1.971L532.041,1239.883L532.041,1239.883z M294.863,1246.98
			l55.352,3.548c0,0.157,0,0.157,0,0.315c0,0.159,0,0.159,0,0.315l-44.944,22.394L294.863,1246.98L294.863,1246.98z
			 M291.865,1249.266l10.25,25.705l-13.009,6.544c-0.316-0.709-1.026-1.419-1.734-1.97L291.865,1249.266L291.865,1249.266z
			 M360.07,1252.578l47.389,3.154l0,0l-41.081,37.69L360.07,1252.578L360.07,1252.578z M356.679,1255.259l6.15,39.267
			c-0.552,0.157-1.024,0.552-1.42,1.025l-34.22-5.44l26.256-34.694c0.552,0.157,0.868,0.157,1.42,0.157
			C355.654,1255.575,356.128,1255.417,356.679,1255.259L356.679,1255.259z M323.169,1289.4l-12.537-1.971l-4.258-10.565
			l42.105-20.974L323.169,1289.4z M410.06,1258.255c0.315,0.157,0.709,0.157,1.024,0.314l-6.544,59.374
			c-0.709,0.157-1.42,0.551-2.128,1.025l-32.96-19.95v-0.157c0-1.025-0.315-1.971-0.866-2.838L410.06,1258.255L410.06,1258.255z
			 M429.458,1281.358c-0.867,0.868-1.418,2.129-1.418,3.311c0,0.868,0.315,1.735,0.708,2.682l-20.421,29.411l6.306-57.955
			L429.458,1281.358z M587.314,1264.406c0.157,0.316,0.552,0.552,0.866,0.71l-16.952,41.237c-0.158,0-0.158,0-0.314,0
			l-12.537-24.838c0.709-0.867,1.262-1.97,1.262-3.152v-0.159L587.314,1264.406L587.314,1264.406L587.314,1264.406z
			 M497.662,1277.652L497.662,1277.652l-31.382,33.984c-0.867-0.711-1.972-1.262-3.153-1.262c-0.552,0-1.026,0.158-1.735,0.316
			l-23.259-24.838L497.662,1277.652L497.662,1277.652L497.662,1277.652z M303.3,1278.519l3.312,8.28l-15.139-2.445L303.3,1278.519
			L303.3,1278.519z M497.82,1282.935l-15.532,44.235c-0.711,0.156-1.42,0.551-2.131,0.868l-12.693-11.119
			c0.157-0.551,0.157-1.024,0.157-1.575l0,0L497.82,1282.935L497.82,1282.935z M553.33,1282.935
			c0.552,0.157,1.025,0.157,1.577,0.157c0.158,0,0.315,0,0.552,0l12.3,24.286c-0.866,0.709-1.419,1.972-1.576,2.996l-40.845,9.305
			c-0.314-0.314-0.709-0.709-1.024-1.024l2.286-15.534L553.33,1282.935L553.33,1282.935L553.33,1282.935z M288.003,1287.509
			l20.264,3.154l4.731,12.142l-7.569,9.857c-0.315-0.158-0.711-0.158-1.025-0.158L288.003,1287.509
			C288.003,1287.666,288.003,1287.509,288.003,1287.509L288.003,1287.509z M436.16,1289.244l22.551,24.129
			c-0.156,0.314-0.314,0.866-0.314,1.261l-15.533,5.282c-0.316-0.709-1.025-1.419-1.735-1.735L436.16,1289.244L436.16,1289.244z
			 M431.744,1289.4c0.158,0,0.552,0.157,0.71,0.157l4.572,27.991c-1.576,0.552-2.995,1.735-3.311,3.549l-23.417-0.866
			L431.744,1289.4L431.744,1289.4z M320.725,1292.791l-5.126,6.86l-3.153-8.279L320.725,1292.791z M324.825,1293.266l32.249,5.124
			l-32.091,14.588c-0.868-1.025-2.287-1.735-3.706-1.735c-0.315,0-0.71,0-1.025,0.157l-3.153-7.963L324.825,1293.266
			L324.825,1293.266z M359.124,1301.544l-23.26,30.673c-0.158,0-0.552,0-0.71,0c-1.026,0-1.972,0.314-2.839,0.867l-8.121-12.851
			c1.023-0.869,1.734-2.131,1.971-3.55L359.124,1301.544L359.124,1301.544z M368.114,1302.49l32.8,19.949c0,0.157,0,0.157,0,0.315
			c0,0.551,0.158,1.025,0.315,1.577l-25.862,20.264c-0.866-0.551-1.734-0.867-2.681-0.867s-1.734,0.158-2.444,0.711l-4.969-7.414
			c0.316-0.708,0.553-1.417,0.553-2.285c0-1.577-0.71-2.998-2.129-3.865l2.444-27.123
			C366.93,1303.357,367.639,1302.963,368.114,1302.49L368.114,1302.49z M362.514,1303.199L362.514,1303.199l-2.287,26.809
			c-1.971,0.316-3.548,1.972-3.863,3.863l-16.559,1.262c-0.157-0.314-0.315-0.709-0.553-1.024L362.514,1303.199L362.514,1303.199z
			 M520.528,1317.945c-2.128,0.314-3.706,1.971-4.021,4.021l-23.418,6.543l29.254-22.234L520.528,1317.945z M314.575,1306.904
			l2.682,6.86c-0.316,0.709-0.711,1.419-0.711,2.13h-7.963c0-0.158-0.158-0.316-0.316-0.711L314.575,1306.904L314.575,1306.904z
			 M410.457,1323.937l23.969,0.868l0,0l-29.805,30.908l1.733-28.386C408.327,1327.17,409.903,1325.751,410.457,1323.937
			L410.457,1323.937z M402.885,1327.642l-1.734,27.676c-1.261,0.157-2.287,0.709-3.153,1.577l-20.423-8.123c0-0.157,0-0.157,0-0.313
			c0-0.316,0-0.709-0.157-0.868L402.885,1327.642L402.885,1327.642L402.885,1327.642z M375.92,1352.165l20.816,8.279
			c0,0.158,0,0.314,0,0.314l-14.587,2.682c-0.868-1.261-2.13-1.972-3.549-1.972l-3.313-8.831
			C375.367,1352.481,375.683,1352.323,375.92,1352.165L375.92,1352.165z M371.662,1353.19L371.662,1353.19l3.548,9.146
			c-0.867,0.867-1.577,1.972-1.734,3.154l-9.304,3.55L371.662,1353.19L371.662,1353.19z M395.079,1364.622l-11.826,10.25
			c-0.552-0.313-1.025-0.549-1.576-0.707l-0.553-4.258c1.025-0.711,1.734-1.972,1.971-3.155L395.079,1364.622L395.079,1364.622z
			 M374.501,1369.275c0.709,0.868,1.971,1.575,3.153,1.733l0.553,4.259c-0.314,0.158-0.71,0.553-0.868,0.867l-13.246-2.838
			L374.501,1369.275L374.501,1369.275z"/>
	</g>
</g>
<g>
	<path fill="#313131" d="M39.828,478.716H13.297v33.216H5.585v-71.984h7.712v31.674h26.531v-31.674h7.712v71.984h-7.712V478.716z"/>
	<path fill="#313131" d="M65.084,463.6c1.987-1.234,4.404-2.193,7.25-2.88c2.844-0.684,5.844-1.028,8.998-1.028
		c2.879,0,5.193,0.43,6.941,1.286c1.748,0.857,3.119,2.022,4.113,3.496c0.993,1.475,1.646,3.154,1.954,5.039
		c0.308,1.886,0.462,3.856,0.462,5.913c0,4.113-0.088,8.124-0.265,12.031c-0.177,3.908-0.263,7.609-0.263,11.106
		c0,2.605,0.086,5.022,0.263,7.25c0.177,2.229,0.505,4.336,0.985,6.324h-5.797l-1.798-6.067H87.52
		c-1.022,1.783-2.518,3.326-4.491,4.627c-1.973,1.302-4.627,1.954-7.961,1.954c-3.675,0-6.686-1.285-9.034-3.856
		c-2.347-2.57-3.52-6.118-3.52-10.644c0-2.946,0.491-5.414,1.478-7.403c0.986-1.988,2.379-3.6,4.183-4.833
		c1.801-1.234,3.943-2.108,6.425-2.623c2.481-0.514,5.252-0.771,8.312-0.771c0.68,0,1.359,0,2.039,0s1.395,0.035,2.144,0.103
		c0.202-2.124,0.305-4.011,0.305-5.656c0-3.907-0.579-6.648-1.732-8.227c-1.155-1.576-3.262-2.365-6.318-2.365
		c-1.902,0-3.973,0.293-6.215,0.874c-2.243,0.583-4.11,1.321-5.604,2.211L65.084,463.6z M87.194,488.486
		c-0.678-0.067-1.354-0.119-2.033-0.154c-0.678-0.033-1.354-0.052-2.031-0.052c-1.626,0-3.218,0.139-4.777,0.412
		c-1.559,0.274-2.947,0.755-4.165,1.439c-1.22,0.686-2.186,1.611-2.896,2.776c-0.712,1.167-1.067,2.64-1.067,4.422
		c0,2.743,0.66,4.868,1.981,6.376c1.321,1.509,3.031,2.262,5.13,2.262c2.844,0,5.045-0.684,6.604-2.057
		c1.559-1.37,2.642-2.879,3.252-4.524V488.486z"/>
	<path fill="#313131" d="M125.118,493.731l2.159,9.975h0.514l1.542-9.975l7.815-33.216h7.507l-12.237,46.173
		c-0.961,3.701-1.92,7.163-2.879,10.386c-0.961,3.222-2.005,6.016-3.137,8.381c-1.131,2.365-2.4,4.217-3.805,5.554
		c-1.406,1.336-3.069,2.005-4.988,2.005c-1.92,0-3.599-0.309-5.039-0.926l1.234-6.992c0.959,0.342,1.918,0.411,2.879,0.205
		c0.959-0.205,1.867-0.789,2.725-1.748c0.856-0.961,1.646-2.383,2.365-4.268c0.72-1.887,1.353-4.337,1.902-7.353l-16.659-51.417
		h8.433L125.118,493.731z"/>
	<path fill="#313131" d="M164.533,460.515v15.014c0,1.715,0.085,3.257,0.257,4.628c0.17,1.372,0.497,2.555,0.977,3.548
		c0.479,0.994,1.165,1.748,2.057,2.262c0.89,0.515,2.057,0.771,3.496,0.771c2.399,0,4.353-0.309,5.862-0.926
		c1.507-0.617,2.673-1.302,3.496-2.057v-23.24h7.404v51.417h-7.404v-21.595c-0.823,0.616-2.108,1.285-3.856,2.005
		c-1.749,0.72-4.098,1.08-7.044,1.08c-1.989,0-3.771-0.258-5.347-0.771c-1.578-0.515-2.897-1.354-3.959-2.52
		c-1.063-1.165-1.886-2.741-2.468-4.73c-0.583-1.987-0.874-4.489-0.874-7.507v-17.379H164.533z"/>
	<path fill="#313131" d="M230.985,489h-17.791v22.932h-7.404v-51.417h7.404v21.801h17.791v-21.801h7.404v51.417h-7.404V489z"/>
	<path fill="#313131" d="M254.275,486.223c0-9.255,1.594-16.058,4.782-20.412c3.188-4.353,7.729-6.53,13.626-6.53
		c6.307,0,10.952,2.229,13.934,6.685c2.982,4.457,4.474,11.209,4.474,20.258c0,9.324-1.612,16.146-4.833,20.465
		c-3.223,4.318-7.748,6.479-13.574,6.479c-6.309,0-10.952-2.228-13.934-6.685C255.766,502.026,254.275,495.273,254.275,486.223z
		 M261.988,486.223c0,3.018,0.188,5.759,0.565,8.228c0.376,2.468,0.993,4.594,1.851,6.375c0.856,1.784,1.97,3.172,3.342,4.165
		c1.371,0.995,3.016,1.491,4.936,1.491c3.563,0,6.237-1.594,8.021-4.782c1.782-3.188,2.673-8.346,2.673-15.477
		c0-2.946-0.189-5.672-0.565-8.175c-0.377-2.502-0.995-4.644-1.851-6.427c-0.858-1.782-1.971-3.171-3.342-4.165
		c-1.373-0.993-3.018-1.491-4.936-1.491c-3.497,0-6.154,1.611-7.97,4.833C262.896,474.022,261.988,479.164,261.988,486.223z"/>
	<path fill="#313131" d="M306.36,479.025h20.259v7.096H306.36V479.025z"/>
	<path fill="#313131" d="M35.303,553.9H16.588v60.056H3.631v-71.984h44.63v71.984H35.303V553.9z"/>
	<path fill="#313131" d="M61.69,588.247c0-9.116,1.782-15.903,5.348-20.36c3.563-4.456,8.535-6.685,14.911-6.685
		c6.854,0,11.962,2.263,15.322,6.787c3.358,4.524,5.039,11.278,5.039,20.258c0,9.188-1.784,15.991-5.348,20.413
		c-3.565,4.422-8.57,6.633-15.014,6.633C68.442,615.292,61.69,606.279,61.69,588.247z M74.338,588.247
		c0,5.143,0.582,9.119,1.749,11.929c1.165,2.813,3.119,4.217,5.861,4.217c2.604,0,4.541-1.217,5.81-3.65
		c1.268-2.433,1.903-6.598,1.903-12.495c0-5.278-0.583-9.288-1.749-12.031c-1.167-2.741-3.154-4.113-5.964-4.113
		c-2.4,0-4.268,1.218-5.604,3.65C75.007,578.187,74.338,582.352,74.338,588.247z"/>
	<path fill="#313131" d="M139.812,573.748h-11.929v40.208h-12.237v-51.417h36.403v51.417h-12.237V573.748z"/>
	<path fill="#313131" d="M184.801,591.435l1.337,8.021h0.514l0.925-8.123l5.964-28.794h12.546l-12.854,46.378
		c-1.167,4.046-2.262,7.678-3.291,10.9c-1.028,3.222-2.126,5.965-3.291,8.227c-1.167,2.263-2.486,3.993-3.959,5.193
		c-1.475,1.199-3.239,1.8-5.296,1.8c-1.439,0-2.828-0.119-4.165-0.356c-1.337-0.238-2.486-0.63-3.445-1.173l2.057-10.399
		c0.89,0.342,1.799,0.496,2.725,0.463c0.925-0.035,1.782-0.381,2.571-1.036c0.787-0.659,1.491-1.682,2.108-3.066
		c0.617-1.388,1.131-3.225,1.542-5.513l-17.893-51.417h14.705L184.801,591.435z"/>
	<path fill="#313131" d="M237.863,573.748h-7.404c-0.274,5.964-0.652,11.45-1.131,16.453c-0.48,5.005-1.234,9.307-2.263,12.906
		c-1.028,3.599-2.417,6.411-4.165,8.432c-1.748,2.023-4.028,3.034-6.838,3.034c-1.715,0-3.188-0.121-4.422-0.36
		c-1.234-0.241-2.296-0.633-3.188-1.183l1.439-10.694c1.646,0.55,3.034,0.514,4.165-0.103c1.131-0.617,2.073-2.314,2.828-5.091
		c0.753-2.776,1.353-6.906,1.799-12.392c0.445-5.483,0.771-12.888,0.977-22.212H250.1v51.417h-12.237V573.748z"/>
	<path fill="#313131" d="M288.014,594.52l-4.627,1.234l-7.301,18.201h-14.294l7.815-16.557l4.011-3.29
		c-2.743-0.685-4.972-2.33-6.685-4.937c-1.714-2.604-2.571-5.896-2.571-9.872c0-6.237,1.713-10.831,5.142-13.779
		c3.427-2.947,8.877-4.387,16.351-4.319c2.879,0,5.569,0.138,8.072,0.411c2.502,0.275,4.61,0.617,6.324,1.028v51.314h-12.237V594.52
		z M288.014,587.63v-14.809c-1.028-0.479-2.297-0.72-3.805-0.72c-4.799,0-7.198,2.64-7.198,7.918c0,5.074,2.708,7.679,8.124,7.815
		L288.014,587.63z"/>
	<path fill="#313131" d="M315.244,562.539h9.152l1.234,5.861h0.308c1.577-2.468,3.343-4.268,5.296-5.398
		c1.954-1.132,4.371-1.697,7.25-1.697c5.21,0,9.135,1.972,11.774,5.913c2.639,3.943,3.96,10.507,3.96,19.693
		c0,9.188-1.646,16.231-4.937,21.132c-3.291,4.902-8.057,7.353-14.294,7.353c-1.646,0-3.051-0.138-4.216-0.411
		c-1.167-0.274-2.263-0.72-3.291-1.337v20.875h-12.237V562.539z M327.481,602.438c0.685,0.687,1.456,1.2,2.313,1.543
		c0.856,0.344,1.97,0.514,3.343,0.514c2.741,0,4.833-1.353,6.272-4.062c1.439-2.708,2.159-7.317,2.159-13.831
		c0-4.867-0.549-8.484-1.645-10.85c-1.098-2.365-2.915-3.548-5.45-3.548c-3.43,0-5.759,2.023-6.993,6.067V602.438z"/>
	<path fill="#313131" d="M392.194,593.492h-12.34v20.464h-12.237v-51.417h12.237v19.744h12.34v-19.744h12.237v51.417h-12.237
		V593.492z"/>
	<path fill="#313131" d="M431.855,580.843c1.37-0.273,2.776-0.463,4.216-0.565c1.44-0.104,2.741-0.154,3.908-0.154
		c2.811,0,5.176,0.395,7.096,1.183c1.918,0.788,3.461,1.902,4.627,3.342c1.165,1.439,2.006,3.137,2.52,5.09
		c0.515,1.954,0.771,4.063,0.771,6.324c0,3.085-0.344,5.795-1.028,8.124c-0.687,2.332-1.817,4.268-3.394,5.811
		c-1.578,1.542-3.635,2.709-6.17,3.496c-2.537,0.787-5.691,1.183-9.461,1.183c-3.291,0-6.188-0.069-8.689-0.205
		c-2.503-0.139-4.714-0.309-6.633-0.515v-51.417h12.237V580.843z M431.855,603.158c1.439,0.411,2.913,0.617,4.422,0.617
		c2.193,0,3.753-0.565,4.679-1.696c0.926-1.132,1.389-2.999,1.389-5.604c0-2.399-0.447-4.182-1.337-5.348
		c-0.892-1.165-2.435-1.748-4.628-1.748c-1.577,0-3.085,0.205-4.524,0.617V603.158z M459.415,562.539h12.237v51.417h-12.237V562.539
		z"/>
	<path fill="#313131" d="M511.931,591.538l0.926-8.329h-0.309l-3.805,8.74l-13.78,22.007h-8.227v-51.417h12.237v23.343l-0.926,8.021
		h0.309l3.702-8.535l13.883-22.829h8.227v51.417h-12.237V591.538z M501.442,541.56c0.206,2.606,0.754,4.491,1.646,5.656
		c0.891,1.166,2.021,1.748,3.394,1.748c1.439,0,2.587-0.565,3.445-1.697c0.856-1.131,1.455-2.998,1.799-5.604l9.256,2.262
		c-0.756,4.663-2.486,8.072-5.193,10.232c-2.709,2.159-5.913,3.239-9.615,3.239c-1.783,0-3.531-0.239-5.244-0.72
		c-1.715-0.479-3.257-1.25-4.628-2.314c-1.372-1.062-2.52-2.45-3.445-4.164c-0.925-1.713-1.526-3.839-1.799-6.376L501.442,541.56z"
		/>
	<path fill="#313131" d="M28.516,643.994h12.237v32.188l2.982-1.439l10.797-30.748h14.5l-12.854,31.674l-4.113,3.393l5.039,4.217
		l14.5,32.701H55.973l-12.032-31.364h-3.188v31.364H28.516v-32.599l-2.879,1.439l-12.135,31.159H-1.511l14.397-31.673l4.73-3.908
		l-4.627-3.701L-0.38,643.994h15.014l10.695,30.953h3.188V643.994z"/>
	<path fill="#313131" d="M96.139,693.458l1.337,8.021h0.514l0.925-8.123l5.964-28.794h12.546l-12.854,46.378
		c-1.167,4.046-2.262,7.678-3.291,10.9c-1.028,3.222-2.126,5.965-3.291,8.227c-1.167,2.263-2.486,3.993-3.959,5.193
		c-1.475,1.199-3.239,1.8-5.296,1.8c-1.439,0-2.828-0.119-4.165-0.356c-1.337-0.238-2.486-0.63-3.445-1.173l2.057-10.399
		c0.89,0.342,1.799,0.496,2.725,0.463c0.925-0.035,1.782-0.381,2.571-1.036c0.787-0.659,1.491-1.682,2.108-3.066
		c0.617-1.388,1.131-3.225,1.542-5.513l-17.893-51.417h14.705L96.139,693.458z"/>
	<path fill="#313131" d="M128.326,664.561h9.152l1.234,5.861h0.309c1.576-2.468,3.342-4.268,5.296-5.398
		c1.954-1.132,4.371-1.697,7.25-1.697c5.209,0,9.134,1.972,11.774,5.913c2.638,3.943,3.959,10.507,3.959,19.693
		c0,9.188-1.646,16.231-4.936,21.132c-3.291,4.902-8.056,7.353-14.294,7.353c-1.646,0-3.051-0.138-4.216-0.411
		c-1.167-0.274-2.262-0.72-3.291-1.337v20.875h-12.237V664.561z M140.563,704.46c0.685,0.687,1.456,1.2,2.314,1.543
		c0.856,0.344,1.97,0.514,3.342,0.514c2.741,0,4.833-1.353,6.273-4.062c1.44-2.708,2.16-7.317,2.16-13.831
		c0-4.867-0.55-8.484-1.646-10.85c-1.097-2.365-2.915-3.548-5.45-3.548c-3.429,0-5.759,2.023-6.993,6.067V704.46z"/>
	<path fill="#313131" d="M205.276,695.514h-12.34v20.464h-12.237v-51.417h12.237v19.744h12.34v-19.744h12.237v51.417h-12.237
		V695.514z"/>
	<path fill="#313131" d="M232.638,667.646c2.057-1.234,4.627-2.228,7.712-2.982c3.085-0.753,6.582-1.131,10.489-1.131
		c5.826,0,9.888,1.509,12.186,4.524c2.296,3.018,3.445,7.302,3.445,12.854c0,3.223-0.086,6.394-0.257,9.512
		c-0.172,3.121-0.292,6.171-0.36,9.152c-0.069,2.982-0.018,5.862,0.154,8.639c0.17,2.776,0.633,5.398,1.388,7.866h-9.975
		l-1.954-6.272h-0.412c-1.097,1.989-2.64,3.635-4.627,4.936c-1.989,1.302-4.491,1.954-7.507,1.954c-4.046,0-7.234-1.353-9.563-4.062
		c-2.332-2.708-3.497-6.324-3.497-10.85c0-6.17,2.193-10.557,6.582-13.162c4.387-2.605,10.317-3.702,17.791-3.291
		c0.342-3.976,0.085-6.854-0.771-8.638c-0.858-1.782-2.691-2.674-5.501-2.674c-2.057,0-4.183,0.24-6.376,0.72
		c-2.195,0.48-4.148,1.166-5.861,2.057L232.638,667.646z M247.344,706.208c1.851,0,3.358-0.463,4.525-1.388
		c1.165-0.926,2.021-1.937,2.571-3.034v-8.535c-1.578-0.205-3.085-0.239-4.525-0.103c-1.439,0.138-2.709,0.446-3.805,0.926
		c-1.098,0.48-1.972,1.183-2.623,2.107c-0.652,0.926-0.977,2.108-0.977,3.548c0,2.126,0.427,3.737,1.285,4.833
		C244.652,705.661,245.835,706.208,247.344,706.208z"/>
	<path fill="#313131" d="M306.925,675.77h-7.404c-0.273,5.964-0.652,11.45-1.131,16.453c-0.48,5.005-1.234,9.307-2.262,12.906
		c-1.028,3.599-2.417,6.411-4.165,8.432c-1.748,2.023-4.028,3.034-6.838,3.034c-1.715,0-3.188-0.121-4.422-0.36
		c-1.234-0.241-2.296-0.633-3.188-1.183l1.439-10.694c1.646,0.55,3.034,0.514,4.165-0.103c1.131-0.617,2.073-2.314,2.828-5.091
		c0.753-2.776,1.353-6.906,1.799-12.392c0.445-5.483,0.771-12.888,0.977-22.212h30.439v51.417h-12.238V675.77z"/>
</g>
</svg>
