<?xml version="1.0" encoding="utf-8"?>
<!-- Generator: Adobe Illustrator 16.0.0, SVG Export Plug-In . SVG Version: 6.00 Build 0)  -->
<svg version="1.2" baseProfile="tiny" xmlns="http://www.w3.org/2000/svg" xmlns:xlink="http://www.w3.org/1999/xlink" x="0px"
	 y="0px" width="400px" height="400px" viewBox="0 0 400 400" xml:space="preserve">
<g id="Layer_2">
	<rect x="1" fill="#ECF0F1" width="400" height="400"/>
</g>
<g id="Layer_1">
	<g display="none">
		<path display="inline" fill="#FFFFFF" d="M294.334,164.122v-7.179h-19.831h-1.153v7.179c-14.059,0.474-26.474,4.116-33.646,13.523
			c-4.098,5.372-6.489,12.617-6.489,22.245c0,26.597,18.174,35.242,40.258,35.989v7.18h3.513h17.226v-7.18
			c20.108-0.681,36.973-7.916,39.825-29.291c0.28-2.096,0.432-4.323,0.432-6.698C334.468,173.402,316.415,164.867,294.334,164.122z
			 M316.968,204.129c-0.144,0.477-0.308,0.942-0.501,1.397c-0.724,1.717-1.775,3.262-3.075,4.558
			c-1.299,1.3-2.843,2.349-4.561,3.073c-1.715,0.727-3.6,1.129-5.581,1.129c-1.984,0-3.868-0.402-5.586-1.129
			c-1.505-0.637-2.878-1.521-4.067-2.605c-0.012-0.012-0.023-0.022-0.036-0.035c-0.159-0.158-0.323-0.316-0.493-0.471
			c-1.19-1.082-2.563-1.969-4.067-2.604c-1.714-0.727-3.603-1.127-5.582-1.127c-1.981,0-3.868,0.4-5.586,1.127
			c-0.894,0.378-1.734,0.854-2.524,1.398c-0.539,0.37-1.058,0.768-1.541,1.206c-0.17,0.154-0.334,0.313-0.495,0.471
			c-0.01,0.013-0.021,0.023-0.034,0.035c-1.191,1.084-2.564,1.969-4.067,2.605c-1.716,0.727-3.604,1.129-5.584,1.129
			s-3.87-0.402-5.586-1.129c-1.717-0.725-3.261-1.773-4.56-3.073c-1.297-1.296-2.35-2.841-3.073-4.558
			c-0.728-1.718-1.129-3.606-1.129-5.586c0-1.982,0.401-3.868,1.129-5.589c0.724-1.714,1.776-3.258,3.073-4.555
			c1.299-1.298,2.843-2.35,4.56-3.074c0.099-0.04,0.2-0.068,0.3-0.109c1.637-0.65,3.416-1.018,5.286-1.018
			c1.98,0,3.868,0.402,5.584,1.127c1.456,0.616,2.788,1.467,3.952,2.503c0.049,0.052,0.1,0.107,0.149,0.161
			c0.198,0.194,0.401,0.385,0.609,0.569c1.164,1.035,2.495,1.889,3.951,2.502c1.718,0.728,3.604,1.129,5.586,1.129
			c1.979,0,3.868-0.401,5.582-1.129c1.336-0.563,2.559-1.333,3.65-2.254c0.101-0.083,0.205-0.16,0.301-0.248
			c0.21-0.184,0.413-0.375,0.609-0.569c0.053-0.053,0.101-0.109,0.154-0.161c1.162-1.036,2.491-1.887,3.949-2.503
			c1.718-0.725,3.602-1.127,5.586-1.127c1.981,0,3.866,0.402,5.581,1.127c1.718,0.725,3.262,1.776,4.561,3.074
			c1.3,1.297,2.352,2.841,3.075,4.555c0.726,1.721,1.127,3.607,1.127,5.589C317.594,201.396,317.373,202.801,316.968,204.129z"/>
		<path display="inline" fill="#FFFFFF" d="M196.781,157.301v28.139v2.864h-3.701h-22.66v-31.002c-7.451,0-15.006,0-22.329,0v24.566
			v42.561v18.267c7.323,0,14.878,0,22.329,0V222.37v-13.947h2.825h5.081h16.507h1.948v34.272c7.438,0,14.879,0,22.306,0v-66.112
			v-19.282c-2.001,0-4.007,0-6.009,0C207.647,157.301,202.218,157.301,196.781,157.301z"/>
		<path display="inline" fill="#FFFFFF" d="M111.906,158.424c-2.688-0.719-5.62-1.112-8.804-1.123c-2.812,0-5.632,0-8.454,0
			c-9.775,0-19.558,0-29.116,0c0,3.071,0,6.135,0,9.2c0,3.943,0,7.889,0,11.835c1.083,0.835,2.271,1.537,3.547,2.078
			c1.938,0.82,4.066,1.272,6.301,1.272s4.365-0.453,6.301-1.272c1.643-0.695,3.145-1.655,4.457-2.826
			c0.236-0.208,0.466-0.421,0.688-0.643c0.058-0.058,0.114-0.12,0.171-0.18c1.313-1.167,2.815-2.129,4.458-2.824
			c1.027-0.433,2.108-0.761,3.229-0.976c0.995-0.192,2.021-0.296,3.072-0.296c2.235,0,4.365,0.456,6.3,1.272
			c1.927,0.816,3.664,1.996,5.126,3.449c0.006,0.007,0.014,0.014,0.02,0.021c1.465,1.463,2.651,3.206,3.468,5.14
			c0.819,1.941,1.271,4.071,1.271,6.306c0,2.234-0.452,4.366-1.271,6.303c-0.817,1.935-2.003,3.68-3.468,5.143
			c-0.657,0.655-1.375,1.244-2.136,1.781c-0.937,0.661-1.94,1.235-3.01,1.687c-1.936,0.82-4.065,1.274-6.3,1.274
			c-2.235,0-4.363-0.454-6.301-1.274c-1.698-0.717-3.246-1.719-4.589-2.938c-0.014-0.014-0.026-0.029-0.04-0.041
			c-0.182-0.185-0.368-0.36-0.557-0.531c-1.343-1.225-2.892-2.222-4.588-2.938c-0.717-0.305-1.459-0.556-2.225-0.755
			c-1.302-0.338-2.668-0.517-4.076-0.517c-2.235,0-4.363,0.452-6.301,1.272c-1.273,0.537-2.464,1.235-3.547,2.068
			c0,14.451,0,28.885,0,43.305c1.023,0,2.052,0,3.079,0c6.205,0,12.477,0,18.743,0v-21.833h15.748
			c7.532,0,13.669-2.158,18.422-5.676c11.678-8.636,14.983-25.481,9.915-38.788C128.248,168.022,121.74,161.049,111.906,158.424z"/>
	</g>
	<g>
		<g>
			<path fill="#0071AF" d="M285.502,193.425c2.03,0,3.965-0.413,5.725-1.156c1.367-0.577,2.621-1.365,3.739-2.311
				c-0.485-0.457-0.975-0.908-1.446-1.379c-5.614-5.605-10.165-12.293-13.303-19.717c-1.74-4.123-3.031-8.477-3.852-12.994h-1.185
				v7.358c-14.409,0.485-27.134,4.217-34.485,13.86c2.613,0.667,5.15,1.52,7.593,2.555c4.112,1.739,7.957,3.98,11.469,6.638
				c1.679-0.668,3.502-1.043,5.418-1.043c2.031,0,3.966,0.412,5.724,1.156c1.492,0.632,2.857,1.504,4.05,2.563
				c0.053,0.056,0.104,0.111,0.155,0.167c0.203,0.199,0.411,0.394,0.624,0.584c1.193,1.063,2.558,1.934,4.052,2.564
				C281.536,193.012,283.473,193.425,285.502,193.425z"/>
			<path fill="#0071AF" d="M319.894,204.233c-0.147,0.489-0.319,0.968-0.515,1.434c-0.744,1.759-1.821,3.342-3.15,4.669
				c-1.331,1.332-2.916,2.407-4.676,3.152c-1.758,0.744-3.692,1.154-5.723,1.154s-3.965-0.41-5.726-1.154
				c-1.542-0.653-2.948-1.56-4.169-2.672c-0.013-0.011-0.022-0.024-0.036-0.036c-0.165-0.164-0.334-0.325-0.506-0.48
				c-1.221-1.111-2.626-2.02-4.167-2.671c-1.76-0.745-3.694-1.154-5.725-1.154c-2.029,0-3.966,0.409-5.723,1.154
				c-0.918,0.389-1.779,0.876-2.589,1.432c2.489,6.194,3.873,12.947,3.873,20.023c0,5.227-0.761,10.272-2.155,15.049h17.656v-7.357
				c20.613-0.695,37.898-8.113,40.823-30.021C331.31,206.752,325.443,205.864,319.894,204.233z"/>
		</g>
		<path fill="#C8187C" d="M296.692,163.226v-7.358h-20.327c0.82,4.518,2.111,8.872,3.852,12.994
			c3.138,7.424,7.688,14.111,13.303,19.717c0.472,0.471,0.961,0.923,1.446,1.379c0.104-0.085,0.211-0.165,0.311-0.253
			c0.213-0.19,0.42-0.385,0.623-0.584c0.054-0.056,0.105-0.111,0.155-0.167c1.193-1.058,2.558-1.931,4.05-2.563
			c1.761-0.744,3.695-1.156,5.726-1.156s3.965,0.412,5.723,1.156c1.76,0.741,3.345,1.817,4.676,3.15
			c1.329,1.33,2.406,2.914,3.15,4.673c0.742,1.76,1.154,3.695,1.154,5.725c0,1.495-0.227,2.934-0.64,4.294
			c5.55,1.631,11.416,2.519,17.494,2.521c0.286-2.148,0.441-4.432,0.441-6.868C337.829,172.736,319.325,163.992,296.692,163.226z"/>
		<path fill="#C8187C" d="M277.19,209.061c-0.553,0.38-1.085,0.789-1.58,1.239c-0.173,0.155-0.342,0.316-0.507,0.48
			c-0.012,0.012-0.021,0.025-0.035,0.036c-1.22,1.112-2.628,2.019-4.17,2.672c-1.758,0.744-3.692,1.154-5.724,1.154
			c-2.029,0-3.964-0.41-5.726-1.154c-1.759-0.745-3.343-1.82-4.673-3.152c-1.328-1.327-2.406-2.91-3.152-4.669
			c-0.742-1.765-1.154-3.697-1.154-5.728c0-2.029,0.412-3.964,1.154-5.725c0.746-1.759,1.824-3.343,3.152-4.673
			c1.33-1.333,2.914-2.409,4.673-3.15c0.101-0.044,0.206-0.072,0.308-0.112c-3.512-2.658-7.356-4.898-11.469-6.638
			c-2.442-1.035-4.979-1.888-7.593-2.555c-4.198,5.506-6.652,12.934-6.652,22.8c0,27.264,18.631,36.125,41.267,36.889v7.357h3.599
			c1.395-4.776,2.155-9.822,2.155-15.049C281.063,222.008,279.68,215.255,277.19,209.061z"/>
		<path fill="#5B57A4" d="M212.43,177.56c2.316-0.676,4.697-1.203,7.135-1.559v-19.764c-2.052,0-4.107,0-6.161,0
			c0.334,2.58,0.522,5.206,0.522,7.876C213.926,168.733,213.399,173.229,212.43,177.56z"/>
		<path fill="#0071AF" d="M209.116,187.952c-3.094,7.326-7.583,13.919-13.121,19.451c-0.42,0.422-0.857,0.823-1.291,1.232h1.996
			v35.13c7.624,0,15.251,0,22.864,0v-67.763c-2.438,0.355-4.818,0.883-7.135,1.559C211.623,181.147,210.521,184.625,209.116,187.952
			z"/>
		<path fill="#0071AF" d="M172.575,208.635h5.208c0.062-0.15,0.114-0.299,0.176-0.445c2.71-6.42,6.645-12.202,11.501-17.048
			c1.098-1.099,2.258-2.13,3.445-3.129H169.68v-31.774c-7.637,0-15.381,0-22.888,0v25.18c5.235,2.702,10.003,6.183,14.129,10.31
			C165.768,196.565,169.732,202.295,172.575,208.635z"/>
		<path fill="#0071AF" d="M196.7,185.076c0.923-0.644,1.864-1.264,2.828-1.853c0.719-0.393,1.424-0.799,2.12-1.22
			c1.579-0.866,3.199-1.659,4.867-2.362c1.914-0.811,3.894-1.499,5.914-2.082c0.97-4.332,1.496-8.827,1.496-13.446
			c0-2.671-0.188-5.297-0.522-7.876c-5.566,0-11.132,0-16.703,0V185.076z"/>
		<path fill="#5B57A4" d="M209.116,187.952c1.405-3.326,2.507-6.804,3.313-10.392c-2.021,0.583-4,1.271-5.914,2.082
			c-1.668,0.704-3.288,1.496-4.867,2.362c-0.696,0.421-1.401,0.827-2.12,1.22c-0.964,0.589-1.905,1.208-2.828,1.853v2.936h-3.795
			c-1.188,1-2.348,2.03-3.445,3.129c-4.856,4.846-8.791,10.628-11.501,17.048c-0.062,0.146-0.114,0.295-0.176,0.445h16.921
			c0.434-0.409,0.871-0.811,1.291-1.232C201.533,201.871,206.022,195.278,209.116,187.952z"/>
		<path fill="#C8187C" d="M146.792,225.041v18.724c7.507,0,15.251,0,22.888,0v-20.834c-5.392,1.552-11.081,2.401-16.97,2.401
			C150.711,225.332,148.74,225.229,146.792,225.041z"/>
		<path fill="#5B57A4" d="M172.575,208.635c-2.842-6.34-6.807-12.07-11.654-16.908c-4.125-4.127-8.894-7.608-14.129-10.31v43.624
			c1.948,0.188,3.919,0.291,5.918,0.291c5.889,0,11.578-0.85,16.97-2.401v-14.296H172.575z"/>
		<path fill="#5B57A4" d="M68.521,209.754c2.027-4.803,4.712-9.255,7.922-13.272c-1.335-0.347-2.734-0.53-4.179-0.53
			c-2.291,0-4.473,0.464-6.458,1.302c-1.306,0.554-2.526,1.268-3.636,2.121c0,14.813,0,29.608,0,44.39c1.049,0,2.103,0,3.156,0
			c-0.822-3.846-1.264-7.827-1.264-11.917C64.063,224.015,65.65,216.551,68.521,209.754z"/>
		<path fill="#0071AF" d="M109.702,157.385c-3.26,2.291-6.764,4.262-10.48,5.83c-2.476,1.048-5.046,1.92-7.687,2.614
			c-4.598,1.201-9.422,1.847-14.396,1.847c-5.184,0-10.199-0.709-14.969-2.011c0,4.041,0,8.088,0,12.129
			c1.11,0.856,2.327,1.577,3.636,2.13c1.986,0.839,4.168,1.307,6.458,1.307c2.291,0,4.473-0.468,6.458-1.307
			c1.685-0.712,3.224-1.695,4.569-2.896c0.242-0.213,0.477-0.432,0.706-0.66c0.059-0.058,0.117-0.123,0.176-0.185
			c1.345-1.197,2.884-2.183,4.568-2.892c1.053-0.445,2.16-0.781,3.31-1.004c1.02-0.195,2.071-0.303,3.149-0.303
			c2.292,0,4.473,0.465,6.458,1.307c1.976,0.832,3.756,2.043,5.255,3.535c4.443-1.119,9.095-1.721,13.889-1.721
			c3.036,0,6.015,0.246,8.922,0.704C126.452,167.225,119.781,160.077,109.702,157.385z"/>
		<path fill="#C8187C" d="M84.538,221.387h16.142c7.718,0,14.008-2.213,18.882-5.817c-3.664-2.364-7.068-5.098-10.138-8.167
			c-1.663-1.659-3.217-3.426-4.68-5.268c-0.962,0.678-1.99,1.266-3.086,1.729c-1.985,0.844-4.166,1.307-6.458,1.307
			s-4.473-0.463-6.459-1.307c-1.74-0.733-3.327-1.759-4.705-3.01c-0.013-0.015-0.026-0.03-0.04-0.042
			c-0.187-0.188-0.376-0.367-0.57-0.546c-1.377-1.251-2.965-2.275-4.704-3.011c-0.734-0.31-1.496-0.568-2.279-0.772
			c-3.209,4.017-5.895,8.469-7.922,13.272c-2.871,6.797-4.458,14.261-4.458,22.094c0,4.09,0.442,8.071,1.264,11.917
			c6.36,0,12.788,0,19.211,0V221.387z"/>
		<path fill="#5B57A4" d="M129.724,175.811c-2.907-0.458-5.886-0.704-8.922-0.704c-4.794,0-9.445,0.602-13.889,1.721
			c0.004,0.006,0.013,0.013,0.018,0.017c1.502,1.501,2.717,3.288,3.556,5.274c0.839,1.985,1.302,4.169,1.302,6.46
			c0,2.29-0.463,4.472-1.302,6.46c-0.839,1.985-2.054,3.773-3.556,5.27c-0.671,0.674-1.409,1.278-2.188,1.826
			c1.463,1.842,3.018,3.608,4.68,5.268c3.07,3.069,6.475,5.803,10.138,8.167C131.532,206.715,134.918,189.45,129.724,175.811z"/>
		<path fill="#5B57A4" d="M100.68,156.237c-2.884,0-5.774,0-8.666,0c-10.019,0-20.047,0-29.844,0c0,3.146,0,6.285,0,9.428
			c4.77,1.301,9.785,2.011,14.969,2.011c4.975,0,9.798-0.646,14.396-1.847c2.641-0.694,5.211-1.565,7.687-2.614
			c3.716-1.568,7.22-3.539,10.48-5.83C106.948,156.65,103.941,156.244,100.68,156.237z"/>
	</g>
</g>
</svg>
