<?xml version="1.0" encoding="utf-8"?>
<!-- Generator: Adobe Illustrator 16.0.0, SVG Export Plug-In . SVG Version: 6.00 Build 0)  -->
<!DOCTYPE svg PUBLIC "-//W3C//DTD SVG 1.1//EN" "http://www.w3.org/Graphics/SVG/1.1/DTD/svg11.dtd">
<svg version="1.1" id="Layer_1" xmlns="http://www.w3.org/2000/svg" xmlns:xlink="http://www.w3.org/1999/xlink" x="0px" y="0px"
	 width="150px" height="64px" viewBox="0 0 150 64" enable-background="new 0 0 150 64" xml:space="preserve">
<path fill="#FFFFFF" d="M63.858,4.5v13.908H30v2.042h31.542v1.723H30v0.977v40.295l95.5,0.001V24.203H83.013V4.5h-3.929V0H77v4.5
	H63.858z M79.533,58.309H67.604v-1.274h11.929V58.309z M79.533,51.936H67.604v-1.274h11.929V51.936z M79.533,45.563H67.604v-1.274
	h11.929V45.563z M79.533,39.189H67.604v-1.275h11.929V39.189z M79.533,23.894H67.604v-1.275h11.929V23.894z M79.533,17.521H67.604
	v-1.275h11.929V17.521z M79.408,31H67.479v-1.275h11.929V31z M79.533,11.148H67.604V9.873h11.929V11.148z M62.555,60.896H32.549
	V24.908h30.006V60.896z M94.433,60.896H84.58V26.752h38.37v34.144h-3.356H94.433z"/>
<rect x="51.5" y="30.102" fill="#FFFFFF" width="2.833" height="11.898"/>
<rect x="47.5" y="30.102" fill="#FFFFFF" width="2.833" height="11.898"/>
<rect x="102.667" y="53.218" fill="#FFFFFF" width="2.833" height="5.949"/>
<rect x="98.667" y="53.218" fill="#FFFFFF" width="2.833" height="5.949"/>
<rect x="112.667" y="53.218" fill="#FFFFFF" width="2.833" height="5.949"/>
<rect x="108.667" y="53.218" fill="#FFFFFF" width="2.833" height="5.949"/>
</svg>
