<?xml version="1.0" encoding="utf-8"?>
<!-- Generator: Adobe Illustrator 17.0.0, SVG Export Plug-In . SVG Version: 6.00 Build 0)  -->
<!DOCTYPE svg PUBLIC "-//W3C//DTD SVG 1.1 Basic//EN" "http://www.w3.org/Graphics/SVG/1.1/DTD/svg11-basic.dtd">
<svg version="1.1" baseProfile="basic" id="Layer_1"
	 xmlns="http://www.w3.org/2000/svg" xmlns:xlink="http://www.w3.org/1999/xlink" x="0px" y="0px" width="220px" height="220px"
	 viewBox="0 0 220 220" xml:space="preserve">
<g>
	<circle fill-rule="evenodd" clip-rule="evenodd" fill="#F9F9F9" cx="110" cy="110" r="110"/>
	<rect x="111" y="160" fill="#FFDEB9" width="5" height="5"/>
	<g>
		<path fill-rule="evenodd" clip-rule="evenodd" fill="#1D2938" d="M110,220c20.363,0,39.429-5.54,55.786-15.184
			c-4.272-11.815-8.617-21.387-16.55-26.354c-17.931-11.229-28.723-12.317-39.305-12.461c-10.819-0.148-21.424,0.901-39.227,12.461
			c-7.838,5.089-12.2,14.608-16.492,26.353C70.569,214.46,89.636,220,110,220z"/>
		<path fill="#E8B795" d="M94,140v31.85c-0.001,0.05-0.011,0.099-0.011,0.15c0,6.075,7.163,11,16,11s16-4.925,16-11H126v-32H94z"/>
		<polygon fill="#E2E8E8" points="119,173 110,173 91,173 91,195 110,220 129,195 129,173 		"/>
		<path fill="#E8B795" d="M126,172"/>
		<polygon fill-rule="evenodd" clip-rule="evenodd" fill="#21445C" points="110,173 119,176 110,188 101,176 		"/>
		<path fill="#21445C" d="M113,182c0.05,0-6.05,0-6,0l-3,30l6,8l6-8L113,182z"/>
		<path fill="#283546" d="M126,167c0,0,0.379,14.807-2.655,26.146C120.31,204.484,110,220,110,220s26.5-19.334,27-24.878
			c0-1.758-7-5.408-7-5.408s7-1.217,7-2.163C132.375,173.76,126,167,126,167z"/>
		<path fill="#283546" d="M94,167c0,0-0.379,14.807,2.655,26.146C99.69,204.484,110,220,110,220s-26.5-19.334-27-24.878
			c0-1.758,7-5.408,7-5.408s-7-1.217-7-2.163C87.625,173.76,94,167,94,167z"/>
		<path fill="#FEFEFE" d="M126,167c0,2.761-7.163,5-16,5s-16-2.239-16-5l-3,15l19-9l19,9L126,167z"/>
	</g>
	<g>
		<g>
			<ellipse fill="#F4D1AE" cx="170.109" cy="105.021" rx="10" ry="11"/>
			<ellipse fill="#F4D1AE" cx="50.109" cy="105.021" rx="10" ry="11"/>
		</g>
		<circle fill="#FFDEB9" cx="109.989" cy="105" r="60"/>
		<g>
			<g>
				<circle fill="#515165" cx="88.5" cy="96.5" r="4.5"/>
				<circle fill="#FFFFFF" cx="89.5" cy="95.5" r="1.5"/>
			</g>
		</g>
		<g>
			<circle fill="#515165" cx="131.5" cy="96.5" r="4.5"/>
			<circle fill="#FFFFFF" cx="132.5" cy="95.5" r="1.5"/>
		</g>
		<path fill="#E5916A" d="M110.134,154c7.901,0,14.375-6.367,14.957-13.896c0.046-0.592-0.405-1.104-0.998-1.104H96.174
			c-0.593,0-1.044,0.513-0.998,1.104C95.759,147.633,102.233,154,110.134,154z"/>
		<g>
			<path fill="#F7C8A1" d="M108,129h-6c-0.313,0-0.607-0.146-0.796-0.395c-0.189-0.249-0.251-0.572-0.167-0.873l5-18
				c0.143-0.514,0.662-0.825,1.185-0.708c0.52,0.118,0.856,0.624,0.764,1.149L105.192,126H108c0.552,0,1,0.447,1,1v1
				C109,128.553,108.552,129,108,129z"/>
		</g>
		<path fill="#515165" d="M91,84c41.375-14.375,55-26,55-26c1.625,9.875,14.75,34.125,28.479,38c0.325-2.623,0.51-5.289,0.51-8
			c0-35.898-29.102-65-65-65s-65,29.102-65,65c0,3.296,0.255,6.531,0.731,9.693C54.717,95.562,69.317,91.533,91,84z"/>
	</g>
</g>
</svg>
