<?xml version="1.0" encoding="utf-8"?>
<!-- Generator: Adobe Illustrator 17.0.0, SVG Export Plug-In . SVG Version: 6.00 Build 0)  -->
<!DOCTYPE svg PUBLIC "-//W3C//DTD SVG 1.1 Basic//EN" "http://www.w3.org/Graphics/SVG/1.1/DTD/svg11-basic.dtd">
<svg version="1.1" baseProfile="basic" id="Layer_1"
	 xmlns="http://www.w3.org/2000/svg" xmlns:xlink="http://www.w3.org/1999/xlink" x="0px" y="0px" width="220px" height="220px"
	 viewBox="0 0 220 220" xml:space="preserve">
<g>
	<circle fill-rule="evenodd" clip-rule="evenodd" fill="#F9F9F9" cx="110" cy="110" r="110"/>
	<g>
		<path fill="#D8920C" d="M109.469,23.002C70.873,23.288,40,55.281,40,93.879V176c0,1.105,0.895,2,2,2h136c1.105,0,2-0.895,2-2V93
			C180,54.163,148.373,22.714,109.469,23.002z"/>
		<path fill-rule="evenodd" clip-rule="evenodd" fill="#F4D1AE" d="M110,220c20.363,0,39.429-5.54,55.786-15.184
			c-4.272-11.815-8.617-21.387-16.55-26.354c-17.931-11.229-28.723-11.317-39.305-11.461c-10.819-0.148-21.424-0.099-39.227,11.461
			c-7.838,5.089-12.2,14.608-16.492,26.353C70.569,214.46,89.636,220,110,220z"/>
		<path fill-rule="evenodd" clip-rule="evenodd" fill="#F4D1AE" d="M95,142v30c0,5.523,6.716,10,15,10s15-4.477,15-10v-30H95z"/>
		<g>
			<ellipse fill="#F4D1AE" cx="168" cy="105.021" rx="10" ry="11"/>
			<ellipse fill="#F4D1AE" cx="52" cy="105.021" rx="10" ry="11"/>
		</g>
		<circle fill="#FFDEB9" cx="109.989" cy="105" r="59"/>
		<path fill="#D8920C" d="M43.06,83.452C53.362,88.285,64.856,91,76.989,91c31.68,0,59.054-18.416,72.013-45.125
			C137.854,38.378,124.433,34,109.989,34C78.48,34,51.84,54.82,43.06,83.452z"/>
		<g>
			<g>
				<circle fill="#515165" cx="88.5" cy="96.5" r="4.5"/>
				<circle fill="#FFFFFF" cx="89.5" cy="95.5" r="1.5"/>
			</g>
		</g>
		<g>
			<circle fill="#515165" cx="131.5" cy="96.5" r="4.5"/>
			<circle fill="#FFFFFF" cx="132.5" cy="95.5" r="1.5"/>
		</g>
		<g>
			<path fill="#F7C8A1" d="M108,129h-6c-0.313,0-0.607-0.146-0.796-0.395c-0.189-0.249-0.251-0.572-0.167-0.873l5-18
				c0.143-0.514,0.662-0.825,1.185-0.708c0.52,0.118,0.856,0.624,0.764,1.149L105.192,126H108c0.552,0,1,0.447,1,1v1
				C109,128.553,108.552,129,108,129z"/>
		</g>
		<path fill="#E5916A" d="M96.622,139c-0.679,0-1.161,0.663-0.958,1.312C97.549,146.356,103.253,151,110,151
			s12.451-4.644,14.336-10.688c0.202-0.648-0.279-1.312-0.958-1.312H96.622z"/>
		<g>
			<path fill="#147EB2" d="M57.367,74.639l12.485-11.071c2.719-2.411,7.025-1.118,7.966,2.393l2.865,10.691
				c0.941,3.51-2.142,6.784-5.702,6.055l-16.348-3.345L57.367,74.639z"/>
			<path fill="#147EB2" d="M57.367,74.639L41.02,71.294c-3.561-0.729-6.643,2.544-5.702,6.055l2.865,10.691
				c0.941,3.51,5.247,4.804,7.966,2.393l12.485-11.071L57.367,74.639z"/>
			<circle fill="#16AFD3" cx="58" cy="77" r="7.333"/>
		</g>
		<path fill-rule="evenodd" clip-rule="evenodd" fill="#E85F3A" d="M149.236,178.461c-3.69-2.311-7.073-4.143-10.219-5.608
			C135.639,182.72,123.93,190,110,190c-14.022,0-25.794-7.376-29.083-17.342c-3.14,1.508-6.52,3.405-10.214,5.803
			c-7.838,5.089-12.2,14.608-16.492,26.353C70.569,214.46,89.636,220,110,220c20.363,0,39.429-5.54,55.786-15.184
			C161.514,193.001,157.169,183.429,149.236,178.461z"/>
	</g>
</g>
</svg>
