<?xml version="1.0" encoding="utf-8"?>
<!-- Generator: Adobe Illustrator 17.0.0, SVG Export Plug-In . SVG Version: 6.00 Build 0)  -->
<!DOCTYPE svg PUBLIC "-//W3C//DTD SVG 1.1 Basic//EN" "http://www.w3.org/Graphics/SVG/1.1/DTD/svg11-basic.dtd">
<svg version="1.1" baseProfile="basic" id="Layer_1"
	 xmlns="http://www.w3.org/2000/svg" xmlns:xlink="http://www.w3.org/1999/xlink" x="0px" y="0px" width="220px" height="220px"
	 viewBox="0 0 220 220" xml:space="preserve">
<circle fill-rule="evenodd" clip-rule="evenodd" fill="#F9F9F9" cx="110" cy="110" r="110"/>
<path fill="#E8B795" d="M126,172"/>
<g>
	<path fill-rule="evenodd" clip-rule="evenodd" fill="#00A99D" d="M110,220c20.363,0,39.429-5.54,55.786-15.184
		c-4.272-11.815-8.617-21.387-16.55-26.354c-17.931-11.229-28.723-12.317-39.305-12.461c-10.819-0.148-21.424,0.901-39.227,12.461
		c-7.838,5.089-12.2,14.608-16.492,26.353C70.569,214.46,89.636,220,110,220z"/>
	<path fill="#E8B795" d="M94,140v31.85c-0.001,0.05-0.011,0.099-0.011,0.15c0,6.075,7.163,11,16,11s16-4.925,16-11H126v-32H94z"/>
	<rect x="93.167" y="172" fill="#00A99D" width="34.25" height="15.167"/>
	<g>
		<path fill="#017C7F" d="M126,167c0,2.761-7.163,5-16,5s-16-2.239-16-5l-3,15l19-9l19,9L126,167z"/>
		<path fill="#017C7F" d="M115,172h-10v47.874c1.659,0.074,3.323,0.126,5,0.126s3.341-0.051,5-0.126V172z"/>
		<circle fill="#FFFFFF" cx="110" cy="176" r="1"/>
		<circle fill="#FFFFFF" cx="110" cy="195" r="1"/>
		<circle fill="#FFFFFF" cx="110" cy="214" r="1"/>
	</g>
	<path fill="#017C7F" d="M125,192v9c0,3.866,3.582,7,8,7s8-3.134,8-7v-9H125z"/>
</g>
<g>
	<circle fill="#FFDEB9" cx="109.989" cy="105" r="60"/>
	<ellipse fill="#F4D1AE" cx="170.109" cy="105.021" rx="10" ry="11"/>
	<ellipse fill="#F4D1AE" cx="50.109" cy="105.021" rx="10" ry="11"/>
	<g>
		<g>
			<circle fill="#515165" cx="88.5" cy="96.5" r="4.5"/>
			<circle fill="#FFFFFF" cx="89.5" cy="95.5" r="1.5"/>
		</g>
	</g>
	<g>
		<circle fill="#515165" cx="131.5" cy="96.5" r="4.5"/>
		<circle fill="#FFFFFF" cx="132.5" cy="95.5" r="1.5"/>
	</g>
	<path fill="#E5916A" d="M110.134,154c7.901,0,14.375-6.367,14.957-13.896c0.046-0.592-0.405-1.104-0.998-1.104H96.174
		c-0.593,0-1.044,0.513-0.998,1.104C95.759,147.633,102.233,154,110.134,154z"/>
	<g>
		<path fill="#F7C8A1" d="M108,129h-6c-0.313,0-0.607-0.146-0.796-0.395c-0.189-0.249-0.251-0.572-0.167-0.873l5-18
			c0.143-0.514,0.662-0.825,1.185-0.708c0.52,0.118,0.856,0.624,0.764,1.149L105.192,126H108c0.552,0,1,0.447,1,1v1
			C109,128.553,108.552,129,108,129z"/>
	</g>
	<g>
		<path opacity="0.15" fill-rule="evenodd" clip-rule="evenodd" fill="#FFFFFF" d="M92.414,115.231
			c-2.082,0.986-4.875,1.473-7.822,1.463c-6.202-0.018-13.094-2.239-15.558-6.671c-3.501-6.304-4.37-19.034,0.122-21.685
			c1.956-1.155,8.581-1.938,15.436-1.62c7.127,0.329,14.505,1.849,17.149,5.376C106.102,97.91,99.076,112.081,92.414,115.231z"/>
		<path fill-rule="evenodd" clip-rule="evenodd" fill="#2E5966" d="M159.967,89.339c-0.116-1.994-0.193-2.208-2.816-3.05
			c-2.053-0.659-13.306-1.626-21.764-1.172c-0.586,0.031-1.156,0.069-1.711,0.116c-7.659,0.629-16.881,3.72-23.781,3.874
			c-2.934,0.063-15.033-3.172-23.593-3.874c-0.555-0.047-1.127-0.085-1.711-0.116c-8.457-0.452-19.713,0.513-21.764,1.172
			c-2.625,0.842-2.7,1.056-2.818,3.05c-0.116,1.998,0.21,3.709,1.76,4.228c2.114,0.704,2.134,3.373,3.522,11.032
			c1.266,6.979,4.348,12.496,17.607,13.499c0.58,0.043,1.144,0.069,1.693,0.077c11.7,0.169,15.741-7.592,17.086-10.172
			c2.511-4.812,1.74-11.448,8.312-11.448c6.572,0,5.917,6.519,8.428,11.33c1.345,2.58,5.28,10.447,16.97,10.288
			c0.546-0.006,1.111-0.031,1.693-0.075c13.259-1.003,16.341-6.521,17.605-13.499c1.39-7.659,1.41-10.327,3.522-11.032
			C159.757,93.047,160.085,91.337,159.967,89.339z M92.17,114.81c-2.018,0.956-4.723,1.427-7.578,1.418
			c-6.009-0.018-12.687-2.169-15.074-6.464c-3.392-6.108-4.234-18.443,0.118-21.011c1.896-1.119,8.314-1.878,14.956-1.569
			c6.906,0.319,14.054,1.792,16.616,5.209C105.434,98.026,98.626,111.758,92.17,114.81z M150.46,109.764
			c-2.385,4.294-9.065,6.446-15.072,6.464c-2.857,0.01-5.561-0.462-7.581-1.418c-6.456-3.052-13.263-16.783-9.038-22.417
			c2.562-3.417,9.712-4.89,16.618-5.209c6.642-0.309,13.059,0.45,14.956,1.569C154.695,91.321,153.852,103.656,150.46,109.764z"/>
		<path opacity="0.15" fill-rule="evenodd" clip-rule="evenodd" fill="#FFFFFF" d="M150.943,110.023
			c-2.462,4.432-9.355,6.652-15.555,6.671c-2.949,0.01-5.739-0.477-7.823-1.463c-6.662-3.15-13.688-17.321-9.327-23.135
			c2.644-3.527,10.023-5.047,17.151-5.376c6.855-0.319,13.477,0.465,15.435,1.619C155.314,90.989,154.444,103.72,150.943,110.023z"
			/>
	</g>
	<path fill="#603813" d="M109.989,160C70.833,160,54.763,133.375,50,105c0,4.083,0,3.591,0,7c0,33.137,20.145,63,59.989,63
		S170,145.137,170,112c0-3.409,0-3.833,0-7C165.237,133.375,149.145,160,109.989,160z"/>
	<path fill="#603813" d="M136.88,136.087c-0.005-0.412-0.249-0.794-0.63-0.979c-0.375-0.18-0.827-0.144-1.166,0.106
		c-3.134,2.292-6.486,1.419-8.195-0.519c-1.991-2.25-4.565-7.021-10.685-6.677c-3.643,0.211-5.353,1.8-6.216,3.685
		c-0.863-1.885-2.568-3.479-6.211-3.685c-6.126-0.344-8.699,4.427-10.69,6.677c-1.711,1.938-5.061,2.811-8.196,0.519
		c-0.339-0.244-0.789-0.286-1.164-0.102c-0.375,0.186-0.619,0.562-0.63,0.975c-0.042,2.192,0.567,5.496,4.103,7.693
		c5.693,3.527,14.37,4.394,19.972-0.545c0,0,1.709-1.8,2.817-4.019c1.111,2.219,2.822,4.019,2.822,4.019
		c5.602,4.939,14.279,4.072,19.965,0.545C136.319,141.583,136.928,138.278,136.88,136.087L136.88,136.087z M136.88,136.087"/>
	<path fill="#603813" d="M110,156c-3.5,0-7.75,4-11,4h11h11C117.75,160,113.5,156,110,156z"/>
	<path fill-rule="evenodd" clip-rule="evenodd" fill="#603813" d="M109.989,23C70.625,23,61.167,38.833,61,51
		c-5.75,1.375-16,4.25-16,37c0,2.472,0.151,4.907,0.419,7.307c1.399-0.819,2.994-1.287,4.689-1.287c0.301,0,0.598,0.021,0.892,0.049
		c2.207-11.986,7.981-22.718,16.17-31.072C84.732,77.81,102.995,79.348,114,80c-3.167-3.75-4-9-4-9s5.078,5.5,27.411,11.75
		S170,99,170,99s-0.136-1.858-0.52-4.938c0.209-0.016,0.416-0.041,0.629-0.041c1.615,0,3.135,0.431,4.485,1.179
		C174.855,92.834,175,90.435,175,88C175,52.102,145.888,23,109.989,23z"/>
</g>
</svg>
