<?xml version="1.0" encoding="utf-8"?>
<!-- Generator: Adobe Illustrator 17.0.0, SVG Export Plug-In . SVG Version: 6.00 Build 0)  -->
<!DOCTYPE svg PUBLIC "-//W3C//DTD SVG 1.1 Basic//EN" "http://www.w3.org/Graphics/SVG/1.1/DTD/svg11-basic.dtd">
<svg version="1.1" baseProfile="basic" id="Layer_1"
	 xmlns="http://www.w3.org/2000/svg" xmlns:xlink="http://www.w3.org/1999/xlink" x="0px" y="0px" width="220px" height="220px"
	 viewBox="0 0 220 220" xml:space="preserve">
<g>
	<circle fill-rule="evenodd" clip-rule="evenodd" fill="#F9F9F9" cx="110" cy="110" r="110"/>
	<g>
		<ellipse fill="#F4D1AE" cx="168" cy="105.021" rx="10" ry="11"/>
		<ellipse fill="#F4D1AE" cx="52" cy="105.021" rx="10" ry="11"/>
		<g>
			<path fill="none" d="M110,0C49.249,0,0,49.249,0,110c0,34.159,15.57,64.68,40,84.856V93.879
				c0-38.598,30.873-70.591,69.469-70.877C148.373,22.714,180,54.163,180,93v101.856c24.43-20.176,40-50.698,40-84.856
				C220,49.249,170.751,0,110,0z"/>
			<path fill="#222226" d="M109.469,23.002C70.873,23.288,40,55.281,40,93.879v100.977C59.019,210.563,83.407,220,110,220
				s50.981-9.437,70-25.144V93C180,54.163,148.373,22.714,109.469,23.002z"/>
		</g>
		<g>
			<path fill-rule="evenodd" clip-rule="evenodd" fill="#F4D1AE" d="M110,220c20.363,0,39.429-5.54,55.786-15.184
				c-4.272-11.815-8.617-21.387-16.55-26.354c-17.931-11.229-28.723-11.317-39.305-11.461c-10.819-0.148-21.424-0.099-39.227,11.461
				c-7.838,5.089-12.2,14.608-16.492,26.353C70.569,214.46,89.636,220,110,220z"/>
			<path fill-rule="evenodd" clip-rule="evenodd" fill="#F4D1AE" d="M110,220c20.363,0,39.429-5.54,55.786-15.184
				c-4.272-11.815-8.617-21.387-16.55-26.354c-17.931-11.229-28.723-11.317-39.305-11.461c-10.819-0.148-21.424-0.099-39.227,11.461
				c-7.838,5.089-12.2,14.608-16.492,26.353C70.569,214.46,89.636,220,110,220z"/>
			<path fill-rule="evenodd" clip-rule="evenodd" fill="#D4145A" d="M132.119,169.775c-8.662-3.207-15.469-3.683-22.188-3.775
				h-3.155c-5.775,0.092-11.695,0.782-18.875,3.47c-1.195,22.892-14.03,32.692-19.476,42.379C81.253,217.094,95.285,220,110,220
				c14.74,0,28.795-2.916,41.64-8.177C146.257,202.053,133.418,192.516,132.119,169.775z"/>
			<path fill-rule="evenodd" clip-rule="evenodd" fill="#F4D1AE" d="M95,142v30c0,5.523,6.716,10,15,10s15-4.477,15-10v-30H95z"/>
		</g>
		<circle fill="#FFDEB9" cx="109.989" cy="105" r="59"/>
		<path fill="#222226" d="M144.792,33.909c-2.445,6.226-3.803,12.998-3.803,20.091c0,21.375,10.201,35.897,28.011,45V84
			C169,63.247,160.626,44.927,144.792,33.909z"/>
		<g>
			<g>
				<circle fill="#515165" cx="88.5" cy="96.5" r="4.5"/>
				<circle fill="#FFFFFF" cx="89.5" cy="95.5" r="1.5"/>
			</g>
		</g>
		<g>
			<circle fill="#515165" cx="131.5" cy="96.5" r="4.5"/>
			<circle fill="#FFFFFF" cx="132.5" cy="95.5" r="1.5"/>
		</g>
		<g>
			<path fill="#F7C8A1" d="M108,129h-6c-0.313,0-0.607-0.146-0.796-0.395c-0.189-0.249-0.251-0.572-0.167-0.873l5-18
				c0.143-0.514,0.662-0.825,1.185-0.708c0.52,0.118,0.856,0.624,0.764,1.149L105.192,126H108c0.552,0,1,0.447,1,1v1
				C109,128.553,108.552,129,108,129z"/>
		</g>
		<path fill="#CE3D1B" d="M121.682,142.699c-2.302-0.977-5.306-3.34-7.325-3.508c-3.493-0.291-4.368,2.301-4.368,2.301
			s-0.875-2.592-4.368-2.301c-2.019,0.168-5.023,2.531-7.325,3.508c-1.678,0.713-3.307,0.558-3.307,0.558s5.686,7.941,15,7.941
			s15-7.941,15-7.941S123.359,143.413,121.682,142.699z"/>
		<path fill="#222226" d="M157.419,43.61C144.22,32.033,128.936,23,110,23c-41.421,0-75,33.579-75,75
			c0,1.432,0.049,2.852,0.128,4.264c4.555,0.483,9.178,0.736,13.861,0.736C95.599,103,134.473,80.464,157.419,43.61z"/>
	</g>
</g>
</svg>
