<?xml version="1.0" encoding="utf-8"?>
<!-- Generator: Adobe Illustrator 17.0.0, SVG Export Plug-In . SVG Version: 6.00 Build 0)  -->
<!DOCTYPE svg PUBLIC "-//W3C//DTD SVG 1.1 Basic//EN" "http://www.w3.org/Graphics/SVG/1.1/DTD/svg11-basic.dtd">
<svg version="1.1" baseProfile="basic" id="Layer_1"
	 xmlns="http://www.w3.org/2000/svg" xmlns:xlink="http://www.w3.org/1999/xlink" x="0px" y="0px" width="220px" height="220px"
	 viewBox="0 0 220 220" xml:space="preserve">
<g>
	<circle fill-rule="evenodd" clip-rule="evenodd" fill="#F9F9F9" cx="110" cy="110" r="110"/>
	<g>
		<path fill-rule="evenodd" clip-rule="evenodd" fill="#916263" d="M110,220c20.363,0,39.429-5.54,55.786-15.184
			c-4.272-11.815-8.617-21.387-16.55-26.354c-17.931-11.229-28.723-12.317-39.305-12.461c-10.819-0.148-21.424,0.901-39.227,12.461
			c-7.838,5.089-12.2,14.608-16.492,26.353C70.569,214.46,89.636,220,110,220z"/>
		<path fill="#E8B795" d="M94,140v31.85c-0.001,0.05-0.011,0.099-0.011,0.15c0,6.075,7.163,11,16,11s16-4.925,16-11H126v-32H94z"/>
		<path fill="#E8B795" d="M126,172"/>
		<rect x="92.874" y="172" fill="#916263" width="34.25" height="15.167"/>
		<path fill="#7C4D50" d="M125.999,167c0,2.761-7.163,5-16,5s-16-2.239-16-5l-3,15l19-9l19,9L125.999,167z"/>
		<g>
			<polygon fill-rule="evenodd" clip-rule="evenodd" fill="#203451" points="109.999,173 118.999,176 109.999,188 100.999,176 			
				"/>
			<path fill="#203451" d="M112.999,182c0.05,0-6.05,0-6,0l-3.975,37.774c2.307,0.145,4.632,0.226,6.976,0.226
				s4.669-0.082,6.976-0.227L112.999,182z"/>
		</g>
	</g>
	<g>
		<ellipse fill="#F4D1AE" cx="170.109" cy="105.021" rx="10" ry="11"/>
		<ellipse fill="#F4D1AE" cx="50.109" cy="105.021" rx="10" ry="11"/>
		<circle fill="#FFDEB9" cx="109.989" cy="105" r="60"/>
		<g>
			<g>
				<circle fill="#515165" cx="88.5" cy="96.5" r="4.5"/>
				<circle fill="#FFFFFF" cx="89.5" cy="95.5" r="1.5"/>
			</g>
		</g>
		<g>
			<circle fill="#515165" cx="131.5" cy="96.5" r="4.5"/>
			<circle fill="#FFFFFF" cx="132.5" cy="95.5" r="1.5"/>
		</g>
		<path fill="#E5916A" d="M110.134,154c7.901,0,14.375-6.367,14.957-13.896c0.046-0.592-0.405-1.104-0.998-1.104H96.174
			c-0.593,0-1.044,0.513-0.998,1.104C95.759,147.633,102.233,154,110.134,154z"/>
		<g>
			<path fill="#F7C8A1" d="M108,129h-6c-0.313,0-0.607-0.146-0.796-0.395c-0.189-0.249-0.251-0.572-0.167-0.873l5-18
				c0.143-0.514,0.662-0.825,1.185-0.708c0.52,0.118,0.856,0.624,0.764,1.149L105.192,126H108c0.552,0,1,0.447,1,1v1
				C109,128.553,108.552,129,108,129z"/>
		</g>
		<path fill="#F16522" d="M52,113h-2c0,0-0.313-10.5-4-17.5c-3.688-7-1.813-17.688,1-24.25c2.812-6.563,4.5-5.375,8-16.125
			s2-17.063,21-23.063s17-9.031,28-10.031s14-1.516,29,4.984s18.5,9.992,26,11.992s11,9.246,11,14.996s-3.25,12.998,0,17.998
			s5.375,15.124,4,22.499S169.982,113,169.982,113H168c0,0,1-9-1-16.75s-2.75-11.125-3-16.25s-5-11-16-10s-9.125,0.375-19-6
			s-24.5-1.625-30,2s-18.125,0.375-25-1s-15.75,8.875-17,16s-2.25,8.127-4,12.252S52,113,52,113z"/>
		<g>
			<circle fill="#E8B795" cx="124.5" cy="118.5" r="1.5"/>
			<circle fill="#E8B795" cx="133.5" cy="125.5" r="1.5"/>
			<circle fill="#E8B795" cx="143.5" cy="117.5" r="1.5"/>
		</g>
		<g>
			<circle fill="#E8B795" cx="95.5" cy="118.5" r="1.5"/>
			<circle fill="#E8B795" cx="86.5" cy="125.5" r="1.5"/>
			<circle fill="#E8B795" cx="76.5" cy="117.5" r="1.5"/>
		</g>
	</g>
</g>
</svg>
