<?xml version="1.0" encoding="utf-8"?>
<!-- Generator: Adobe Illustrator 17.0.0, SVG Export Plug-In . SVG Version: 6.00 Build 0)  -->
<!DOCTYPE svg PUBLIC "-//W3C//DTD SVG 1.1 Basic//EN" "http://www.w3.org/Graphics/SVG/1.1/DTD/svg11-basic.dtd">
<svg version="1.1" baseProfile="basic" id="Layer_1"
	 xmlns="http://www.w3.org/2000/svg" xmlns:xlink="http://www.w3.org/1999/xlink" x="0px" y="0px" width="220px" height="220px"
	 viewBox="0 0 220 220" xml:space="preserve">
<g>
	<circle fill-rule="evenodd" clip-rule="evenodd" fill="#F9F9F9" cx="110" cy="110" r="110"/>
	<path fill-rule="evenodd" clip-rule="evenodd" fill="#1F4DAA" d="M110,220c20.363,0,39.429-5.54,55.786-15.184
		c-4.272-11.815-8.617-21.387-16.55-26.354c-17.931-11.229-28.723-12.317-39.305-12.461c-10.819-0.148-21.424,0.901-39.227,12.461
		c-7.838,5.089-12.2,14.608-16.492,26.353C70.569,214.46,89.636,220,110,220z"/>
	<path fill="#E8B795" d="M94,140v31.85c-0.001,0.05-0.011,0.099-0.011,0.15c0,6.075,7.163,11,16,11s16-4.925,16-11H126v-32H94z"/>
	<g>
		<g>
			<ellipse fill="#F4D1AE" cx="170.109" cy="105.021" rx="10" ry="11"/>
			<ellipse fill="#F4D1AE" cx="50.109" cy="105.021" rx="10" ry="11"/>
		</g>
		<circle fill="#FFDEB9" cx="109.989" cy="105" r="60"/>
		<circle fill="#FFDEB9" cx="109.989" cy="95" r="60"/>
		<path fill="#D8920C" d="M187.752,37.123c0,0-3.641,4.417-17.087,4.417c-12.71,0-24.504-16.496-55.163-18.304
			c-1.818-0.153-3.656-0.235-5.513-0.235c-35.796,0-64.814,28.83-64.814,64.626c0,8.694,1.716,17.374,4.821,24.374h2.463
			c0-28,5.501-54.678,39.233-51.317s36.297,3.804,66.331,1.534C168.265,88.325,167.619,112,167.619,112h2.363
			c3.105-7,4.821-15.647,4.821-24.341c0-9.447-2.023-18.371-5.656-26.458c0.197-0.073,0.396-0.122,0.588-0.204
			C187.296,53.531,187.752,37.123,187.752,37.123z"/>
		<g>
			<g>
				<circle fill="#515165" cx="88.5" cy="96.5" r="4.5"/>
				<circle fill="#FFFFFF" cx="89.5" cy="95.5" r="1.5"/>
			</g>
		</g>
		<g>
			<circle fill="#515165" cx="131.5" cy="96.5" r="4.5"/>
			<circle fill="#FFFFFF" cx="132.5" cy="95.5" r="1.5"/>
		</g>
		<path fill="#E5916A" d="M108.945,153.927c7.824,1.1,15.121-4.304,16.746-11.679c0.128-0.579-0.247-1.15-0.835-1.233l-27.647-3.886
			c-0.588-0.083-1.105,0.363-1.142,0.955C95.597,145.622,101.121,152.827,108.945,153.927z"/>
		<g>
			<path fill="#F7C8A1" d="M108,129h-6c-0.313,0-0.607-0.146-0.796-0.395c-0.189-0.249-0.251-0.572-0.167-0.873l5-18
				c0.143-0.514,0.662-0.825,1.185-0.708c0.52,0.118,0.856,0.624,0.764,1.149L105.192,126H108c0.552,0,1,0.447,1,1v1
				C109,128.553,108.552,129,108,129z"/>
		</g>
	</g>
</g>
</svg>
