<?xml version="1.0" encoding="utf-8"?>
<!-- Generator: Adobe Illustrator 17.0.0, SVG Export Plug-In . SVG Version: 6.00 Build 0)  -->
<!DOCTYPE svg PUBLIC "-//W3C//DTD SVG 1.1 Basic//EN" "http://www.w3.org/Graphics/SVG/1.1/DTD/svg11-basic.dtd">
<svg version="1.1" baseProfile="basic" id="Layer_1"
	 xmlns="http://www.w3.org/2000/svg" xmlns:xlink="http://www.w3.org/1999/xlink" x="0px" y="0px" width="220px" height="220px"
	 viewBox="0 0 220 220" xml:space="preserve">
<g>
	<circle fill-rule="evenodd" clip-rule="evenodd" fill="#F9F9F9" cx="110" cy="110" r="110"/>
	<g>
		<path fill-rule="evenodd" clip-rule="evenodd" fill="#FFFFFF" d="M110,220c20.363,0,39.429-5.54,55.786-15.184
			c-4.272-11.815-8.617-21.387-16.55-26.354c-17.931-11.229-28.723-11.317-39.305-11.461c-10.819-0.148-21.424-0.099-39.227,11.461
			c-7.838,5.089-12.2,14.608-16.492,26.353C70.569,214.46,89.636,220,110,220z"/>
		<path fill-rule="evenodd" clip-rule="evenodd" fill="#F4D1AE" d="M95,142v30c0,5.523,6.716,10,15,10s15-4.477,15-10v-30H95z"/>
		<g>
			<path fill-rule="evenodd" clip-rule="evenodd" fill="#0070C2" d="M129.312,218.299c13.105-2.324,25.411-6.96,36.474-13.484
				c-4.272-11.815-8.617-21.387-16.55-26.354c-4.191-2.624-7.987-4.634-11.486-6.184L129.312,218.299z"/>
			<path fill-rule="evenodd" clip-rule="evenodd" fill="#0070C2" d="M82.023,172.138c-3.449,1.584-7.188,3.64-11.319,6.323
				c-7.838,5.089-12.2,14.608-16.492,26.353c10.781,6.357,22.743,10.916,35.474,13.296L82.023,172.138z"/>
		</g>
	</g>
	<g>
		<g>
			<ellipse fill="#F4D1AE" cx="168" cy="105.021" rx="10" ry="11"/>
			<ellipse fill="#F4D1AE" cx="52" cy="105.021" rx="10" ry="11"/>
		</g>
		<path fill="#F5CD7D" d="M109.469,23.002C70.873,23.288,40,54.402,40,93c0,33.972,31.627,62.251,70.531,61.998
			C149.127,154.748,180,126.763,180,93C180,54.163,148.373,22.714,109.469,23.002z"/>
		<g>
			<path fill="#F5CD7D" d="M173.955,110c0,0,22.5,1.278,22.5,26.591s-22.5,29.403-22.5,42.955S180.091,200,180.091,200
				s-24.545-6.903-24.545-30.682s22.5-30.938,22.5-40.909S173.955,110,173.955,110z"/>
			<path fill="#006837" d="M183.311,111.638l-7.778,7.778c-0.778,0.778-2.051,0.778-2.828,0l-2.121-2.121
				c-0.778-0.778-0.778-2.051,0-2.828l7.778-7.778c0.778-0.778,2.051-0.778,2.828,0l2.121,2.121
				C184.089,109.588,184.089,110.861,183.311,111.638z"/>
		</g>
		<g>
			<path fill="#F5CD7D" d="M46.045,110c0,0-22.5,1.278-22.5,26.591s22.5,29.403,22.5,42.955S39.909,200,39.909,200
				s24.545-6.903,24.545-30.682s-22.5-30.938-22.5-40.909S46.045,110,46.045,110z"/>
			<path fill="#006837" d="M36.689,111.638l7.778,7.778c0.778,0.778,2.051,0.778,2.828,0l2.121-2.121
				c0.778-0.778,0.778-2.051,0-2.828l-7.778-7.778c-0.778-0.778-2.051-0.778-2.828,0l-2.121,2.121
				C35.911,109.588,35.911,110.861,36.689,111.638z"/>
		</g>
		<circle fill="#FFDEB9" cx="109.989" cy="105" r="59"/>
		<path fill="#F5CD7D" d="M143.8,31.704c-10.167-5.618-21.871-8.794-34.33-8.702C70.873,23.288,40,54.402,40,93
			c0,2.358,0.167,4.685,0.464,6.981c0.508,0.007,1.015,0.019,1.525,0.019C87.978,100,127.368,71.774,143.8,31.704z"/>
		<path fill="#F5CD7D" d="M112.34,23.054c-9.239,0.26-18.09,1.985-26.329,4.969c16.401,36.093,52.113,61.548,93.943,63.174
			C179.014,54.152,149.315,24.27,112.34,23.054z"/>
		<g>
			<g>
				<circle fill="#515165" cx="88.5" cy="96.5" r="4.5"/>
				<circle fill="#FFFFFF" cx="89.5" cy="95.5" r="1.5"/>
			</g>
		</g>
		<g>
			<circle fill="#515165" cx="131.5" cy="96.5" r="4.5"/>
			<circle fill="#FFFFFF" cx="132.5" cy="95.5" r="1.5"/>
		</g>
		<g>
			<path fill="#F7C8A1" d="M108,129h-6c-0.313,0-0.607-0.146-0.796-0.395c-0.189-0.249-0.251-0.572-0.167-0.873l5-18
				c0.143-0.514,0.662-0.825,1.185-0.708c0.52,0.118,0.856,0.624,0.764,1.149L105.192,126H108c0.552,0,1,0.447,1,1v1
				C109,128.553,108.552,129,108,129z"/>
		</g>
		<path fill="#E5916A" d="M100.89,142.667c-0.656,0.176-0.949,0.941-0.586,1.515c3.386,5.351,10.097,8.36,16.614,6.614
			c6.517-1.746,10.825-7.708,11.081-14.035c0.028-0.679-0.609-1.195-1.265-1.019L100.89,142.667z"/>
	</g>
</g>
</svg>
