<?xml version="1.0" encoding="utf-8"?>
<!-- Generator: Adobe Illustrator 17.0.0, SVG Export Plug-In . SVG Version: 6.00 Build 0)  -->
<!DOCTYPE svg PUBLIC "-//W3C//DTD SVG 1.1 Basic//EN" "http://www.w3.org/Graphics/SVG/1.1/DTD/svg11-basic.dtd">
<svg version="1.1" baseProfile="basic" id="Layer_1"
	 xmlns="http://www.w3.org/2000/svg" xmlns:xlink="http://www.w3.org/1999/xlink" x="0px" y="0px" width="220px" height="220px"
	 viewBox="0 0 220 220" xml:space="preserve">
<circle fill-rule="evenodd" clip-rule="evenodd" fill="#F9F9F9" cx="110" cy="110" r="110"/>
<g>
	<g>
		<path fill="#CE391B" d="M149.523,23.051c-6.248,6.248-15.91,6.718-15.91,6.718s0.469-9.662,6.718-15.91s15.91-6.718,15.91-6.718
			S155.771,16.803,149.523,23.051z"/>
		<path fill="#CE391B" d="M149.169,36.269c-8.837,0-16-6.5-16-6.5s7.163-6.5,16-6.5c8.837,0,16,6.5,16,6.5
			S158.006,36.269,149.169,36.269z"/>
	</g>
	<path fill-rule="evenodd" clip-rule="evenodd" fill="#F4D1AE" d="M110,220c20.363,0,39.429-5.54,55.786-15.184
		c-4.272-11.815-8.617-21.387-16.55-26.354c-17.931-11.229-28.723-11.317-39.305-11.461c-10.819-0.148-21.424-0.099-39.227,11.461
		c-7.838,5.089-12.2,14.608-16.492,26.353C70.569,214.46,89.636,220,110,220z"/>
	<path fill-rule="evenodd" clip-rule="evenodd" fill="#F4D1AE" d="M95,142v30c0,5.523,6.716,10,15,10s15-4.477,15-10v-30H95z"/>
	<path fill="#481E00" d="M109.469,23.002C70.873,23.288,40,54.402,40,93c0,33.972,31.627,62.251,70.531,61.998
		C149.127,154.748,180,126.763,180,93C180,54.163,148.373,22.714,109.469,23.002z"/>
	<g>
		<ellipse fill="#F4D1AE" cx="168" cy="105.021" rx="10" ry="11"/>
		<ellipse fill="#F4D1AE" cx="52" cy="105.021" rx="10" ry="11"/>
	</g>
	<circle fill="#FFDEB9" cx="109.989" cy="105" r="59"/>
	<g>
		<g>
			<circle fill="#515165" cx="88.5" cy="96.5" r="4.5"/>
			<circle fill="#FFFFFF" cx="89.5" cy="95.5" r="1.5"/>
		</g>
	</g>
	<g>
		<circle fill="#515165" cx="131.5" cy="96.5" r="4.5"/>
		<circle fill="#FFFFFF" cx="132.5" cy="95.5" r="1.5"/>
	</g>
	<g>
		<path fill="#F7C8A1" d="M108,129h-6c-0.313,0-0.607-0.146-0.796-0.395c-0.189-0.249-0.251-0.572-0.167-0.873l5-18
			c0.143-0.514,0.662-0.825,1.185-0.708c0.52,0.118,0.856,0.624,0.764,1.149L105.192,126H108c0.552,0,1,0.447,1,1v1
			C109,128.553,108.552,129,108,129z"/>
	</g>
	<path fill="#E5916A" d="M96.622,139c-0.679,0-1.161,0.663-0.958,1.312C97.549,146.356,103.253,151,110,151
		s12.451-4.644,14.336-10.688c0.202-0.648-0.279-1.312-0.958-1.312H96.622z"/>
	<path opacity="0.15" fill-rule="evenodd" clip-rule="evenodd" fill="#FFFFFF" d="M93.218,114.918
		c-2.026,0.96-4.743,1.433-7.61,1.424c-6.034-0.018-12.74-2.178-15.137-6.491c-3.406-6.133-4.251-18.52,0.118-21.099
		c1.904-1.123,8.349-1.886,15.019-1.576c6.935,0.32,14.112,1.799,16.685,5.231C106.537,98.065,99.701,111.853,93.218,114.918z"/>
	<path opacity="0.15" fill-rule="evenodd" clip-rule="evenodd" fill="#FFFFFF" d="M149.506,109.851
		c-2.395,4.312-9.103,6.473-15.135,6.49c-2.869,0.01-5.584-0.464-7.612-1.424c-6.482-3.065-13.318-16.853-9.075-22.51
		c2.573-3.432,9.752-4.911,16.687-5.231c6.67-0.31,13.113,0.452,15.018,1.576C153.76,91.332,152.913,103.718,149.506,109.851z"/>
	<path fill-rule="evenodd" clip-rule="evenodd" fill="#351E0C" d="M157.968,89.886c-0.111-1.914-0.185-2.12-2.703-2.928
		c-1.971-0.633-12.774-1.561-20.893-1.125c-0.563,0.03-1.11,0.066-1.642,0.111c-7.353,0.604-16.206,3.571-22.83,3.719
		c-2.816,0.06-14.432-3.045-22.649-3.719c-0.532-0.045-1.082-0.081-1.642-0.111c-8.119-0.434-18.924,0.493-20.893,1.125
		c-2.52,0.808-2.592,1.014-2.705,2.928c-0.111,1.918,0.202,3.56,1.689,4.059c2.029,0.676,2.048,3.238,3.381,10.59
		c1.216,6.7,4.174,11.996,16.903,12.959c0.557,0.042,1.099,0.066,1.625,0.074c11.232,0.162,15.111-7.289,16.402-9.765
		c2.411-4.619,1.671-10.99,7.98-10.99s5.68,6.258,8.091,10.877c1.291,2.477,5.069,10.029,16.291,9.877
		c0.525-0.006,1.066-0.03,1.625-0.072c12.729-0.963,15.687-6.26,16.901-12.959c1.335-7.353,1.354-9.914,3.381-10.59
		C157.766,93.446,158.081,91.804,157.968,89.886z M92.883,114.338c-1.937,0.917-4.534,1.37-7.275,1.361
		c-5.769-0.017-12.18-2.082-14.471-6.205c-3.256-5.863-4.064-17.705,0.113-20.17c1.82-1.074,7.981-1.803,14.358-1.506
		c6.63,0.306,13.492,1.72,15.951,5.001C105.616,98.226,99.08,111.408,92.883,114.338z M148.841,109.494
		c-2.29,4.123-8.702,6.188-14.469,6.205c-2.743,0.009-5.339-0.444-7.277-1.361c-6.197-2.93-12.733-16.112-8.676-21.52
		c2.46-3.281,9.324-4.695,15.953-5.001c6.377-0.296,12.536,0.432,14.358,1.506C152.907,91.789,152.097,103.63,148.841,109.494z"/>
	<circle fill="#642C06" cx="110" cy="30" r="30"/>
	<path fill="#FD3707" d="M140,30c0-2.226-0.25-4.392-0.71-6.48c-9.058-4.182-19.156-6.52-29.807-6.52c-0.008,0-0.017,0-0.025,0
		c-10.268,0-19.983,2.308-28.721,6.401C80.26,25.525,80,27.732,80,30c0,16.569,13.431,30,30,30S140,46.569,140,30z"/>
	<path fill="#481E00" d="M110,83c26.725,0,50.696-3.973,67.01-10.259C168.273,43.805,141.323,23,109.483,23
		c-0.008,0-0.017,0-0.025,0c-31.275,0-57.471,21.295-66.282,49.811C59.486,79.057,83.375,83,110,83z"/>
	<path fill-rule="evenodd" clip-rule="evenodd" fill="#4E4D4B" d="M155.214,210.286l2.805-22.45
		c-2.302-3.648-4.974-6.742-8.271-8.934c-7.528,11.413-22.469,23.144-39.749,23.144c-17.281,0-32.231-11.821-39.76-23.235
		c-3.324,2.274-6.017,5.35-8.345,9.082c-0.152,0.308-0.303,0.592-0.451,0.84l3.29,21.531C78.542,216.509,93.86,220,110,220
		C126.12,220,141.421,216.517,155.214,210.286z"/>
	<path fill="#3F3E3D" d="M147,178c0,0-3.054,6.085-16,14c-12.446,7.61-21,8-21,8s-8.554-0.39-21-8c-12.946-7.915-16-14-16-14
		s-5,3.036-5,8c0,4.964,8.998,25,27,25c8.489,0,14.422-5.362,15-6c0.578,0.638,6.511,6,15,6c18.002,0,27-20.036,27-25
		C152,181.036,147,178,147,178z"/>
	<path fill="#FFFFFF" d="M147,176c0,0-3.054,6.085-16,14c-12.446,7.61-21,8-21,8s-8.554-0.39-21-8c-12.946-7.915-16-14-16-14
		s-5,3.036-5,8c0,4.964,8.998,25,27,25c8.489,0,14.422-5.362,15-6c0.578,0.638,6.511,6,15,6c18.002,0,27-20.036,27-25
		C152,179.036,147,176,147,176z"/>
	<polyline fill-rule="evenodd" clip-rule="evenodd" fill="none" stroke="#808080" stroke-miterlimit="10" points="95,168 109,185 
		125,168 	"/>
	<ellipse fill-rule="evenodd" clip-rule="evenodd" fill="#DB7005" cx="109" cy="189" rx="3" ry="4"/>
</g>
</svg>
