<?xml version="1.0" encoding="utf-8"?>
<!-- Generator: Adobe Illustrator 19.0.0, SVG Export Plug-In . SVG Version: 6.00 Build 0)  -->
<svg version="1.1" id="Layer_1" xmlns="http://www.w3.org/2000/svg" xmlns:xlink="http://www.w3.org/1999/xlink" x="0px" y="0px"
	 viewBox="-145 139 320 515" style="enable-background:new -145 139 320 515;" xml:space="preserve">
<style type="text/css">
	.st0{fill:none;stroke:#000000;stroke-linecap:round;stroke-linejoin:round;stroke-miterlimit:10;}
</style>
<g id="XMLID_60_">
	<path id="XMLID_84_" d="M-77.6,321.1c0.6,3.4,0.4,6.8,0.6,10.3c0.2,7-0.6,14.1-1.6,20.9c-0.2,0.6-0.6,1.6,0.4,1.8
		c1,0.4,1-0.8,1.4-1.4c0.2-0.4,0.2-0.6,0.6-1.6c1,4.4,0.2,7.8-1.2,11.3c-0.4,0.8-0.8,2.2-0.2,2.4c1,0.6,1.2-1,1.6-1.6
		c2.4-5.6,3.8-11.7,4-17.9c0-0.6,0.4-1.6-0.6-1.8c-2.4-0.2-1.6-1.8-1.4-3c0.4-1.6,0.2-3.2,0.2-4.6c-0.2-5.4-0.8-10.9-1.2-16.3
		c-0.2-1.2-0.6-2.6,1-3.4c5.2-2.4,9.5-6.6,14.7-9.5c3.4-1.8,6-4.4,8.1-7.6c0.4-0.8,1.6-1.6,0.4-2.4c-1.4-1-1.4,0.8-1.8,1.2
		c-1.8,1.6-2.4,4-4.8,5c-2.4,0.8-4.4,2.2-6.2,3.8c-2.2,1.8-4.4,3.8-6.8,4.8c-3.2,1.4-6,3-9.1,4.6c-5.2,3-10.7,5-16.3,7.2
		c-7,2.8-15.5,0.8-19.9-5c-1-1.4-1-2.2,0.4-3.2c3.2-2.6,6-5.2,9.1-8.1c0.6-0.4,1-1,0.8-1.8c-0.4-0.8-1.4-0.4-2-0.2
		c-0.4,0.2-1,0.6-1.4,1c-1.8,1.6-3.8,3.2-5.4,4.8c-0.4,0.4-1,1.2-1.8,0.8c-0.8-0.4-0.6-1.4-0.4-2c0.4-2.4,1-5.2,2.4-7.2
		c7.2-9.7,15.5-18.7,26.2-25c1.4-0.8,2.2-1.2,2.4,1c1,5.4,3.8,9.5,9.9,10.3c2.6,0.4,5.2-0.2,7.8-0.8c6.6-1.8,10.5-8.1,9.5-14.9
		c-0.4-3.6-3.6-6-3.6-9.7c0-0.2-0.4-0.4-0.4-0.6c-5-5.6-8.3-12.3-10.9-19.3c-0.8-2.2-1.2-4.4-1-6.6c0.2-2.2,1.2-2.6,3.2-1.6
		c1.8,1,3.2,2.6,4.2,4.4c1.8,2.6,3.2,5.4,5.2,8.1c8.5,10.3,13.1,22.5,18.1,34.6c2.6,6,4,12.7,6.4,18.9c2.4,6.8,4.2,13.9,5.2,21.1
		c1.4,11.5,4,22.5,10.3,32.2c4.8,7.4,12.3,11.5,21.3,5.8c3.8-2.4,7-5.2,10.3-8.3c8.1-7.4,17.9-8.7,28.2-8.1c5.2,0.2,10.3,0.8,15.5,1
		c2.8,0.2,3.8-1,3.8-3.8c0.2-3,0.4-5.8,1.4-8.7c2.4-7.2,11.9-11.3,18.5-7.2c5,2.8,6.8,7.6,7.2,13.1c0.4,5.2-2.2,10.1-3.6,14.9
		c-1,4-0.4,4.8,2.2,6.4c4.4,2.8,7.2,7.2,9.5,11.9c3,6.8,5.2,14.1,9.5,20.5c3.8,5.8,8.9,8.7,15.9,8.3c-0.4-1.2-1-1.6-2-1.8
		c-3.8-1.2-6.8-3.6-9.3-7c-4-5.8-7-12.1-9.7-18.7c-2.4-6.2-6.2-11.5-11.9-14.9c-1.6-1-1.6-1.8-1-3.2c2-4.2,3.2-8.5,4-13.1
		c1.8-12.3-7.2-21.9-19.7-20.5c-3.8,0.4-7.2,2.2-9.3,5.4c-2,3.2-3.8,6.6-4.2,10.7c-0.4,4.8-0.6,4.6-5.4,4.2
		c-9.5-0.8-18.9-1.6-28.4,1c-6.8,1.8-11.9,6-16.5,10.9c-3,3-6.2,5.4-10.3,6c-5.6,1-9.7-1.8-12.9-6.2c-5.2-7.2-7.6-15.9-9.3-24.8
		c-1.6-8.7-2.4-17.1-5.2-25.4c-2.4-7.4-5-14.9-7.8-22.1c-2.4-6.6-5.2-12.9-8.3-19.1c-3.2-6.6-7.6-12.1-11.7-18.1
		c-2.6-3.8-5-7.6-8.7-10.7c-1.2-1-2.6-2-4.4-0.8c-2,1.6-3.2,3.4-3.6,6c-0.4,4.8,1.8,9.3,3.8,13.3c1.8,3.6,3.2,7.2,5.8,10.9
		c-4.2,0-7.6-0.2-10.1-3.2c-2.4-3.2-5.8-5.6-9.3-8.1c-3.4-2.4-7.4-3.8-11.9-3.6c-2,0-3.6,1.8-2.6,3.2c4.6,6,9.5,12.3,17.1,14.9
		c1.2,0.4,2.4,1,1.8,2.4c-0.6,1.4-1.8,1-3,0.4c-2.2-1-4.2-2.2-6.6-2.4c-6-1-9.5,1.6-13.1,7.4c-3.2,5.2-2.8,7.6,1.4,12.1
		c0.8,1,0.8,1.4-0.2,2.2c-3.6,3.6-6.8,7.4-10.1,11.5c-1.4,1.8-4,3.4-4.2,5.8c-0.4,4.2-1.8,8.1-1,12.7c0.6,3,1.8,4.6,3.8,6.2
		c0.4,0.2,0.6,0.4,1,0.4c4.6,4.2,10.3,5,16.1,3.6c6.4-1.6,12.3-4.4,18.3-7.2C-78.6,318.7-78,319.3-77.6,321.1z M-72.2,265.2
		c5.8,0.4,10.3,5,10.1,10.7c0.2,7-5.4,9.3-11.9,9.3c-5.4,0-8.7-4.4-8.7-10.1C-82.7,268.6-77.2,264.7-72.2,265.2z M-96.7,252.1
		c-0.4-0.4-0.8-0.6-0.6-1.2c0.2-0.6,0.8-0.4,1.4-0.4c1.8,0.2,3.4,1,5,2c4.4,2.4,8.1,5.8,11.1,9.5c0.4,0.4,1,1,0.4,1.8
		c-0.4,0.6-1,0.4-1.8,0.2C-87.1,260.7-93.3,257.9-96.7,252.1z M-103.8,277c0.4-6.8,6.6-10.7,12.9-8.1c1.6,0.6,4,0.8,4.4,2.6
		c0.2,1.6-2.2,2.4-3.4,3.2c-3.2,2.6-7.2,4.4-10.1,7.6c-1.6,1.8-2.4,1.4-3-1C-103.4,280.2-103.8,278.4-103.8,277z"/>
	<path id="XMLID_83_" d="M18,563c-1.8-11.1-3.2-22.3-3.4-33.6c-0.2-8.5,0-16.9-1-25.4c-0.2-1,0.2-1.8-1-2.4
		C4.9,496.4-0.3,489-4,480.5c-0.6-1.6-0.6-3.6-0.8-5.2c0-0.6-0.4-1-1-1.2c-1-0.2-0.8,0.6-0.8,1c-0.4,1.8-0.4,3.2,0,5.2
		c1,4.8,3.2,9.3,6.2,12.9c2,2.4,3.2,5,3.2,8.1c0.2,1-0.2,2.4-1,3c-0.6,0.6-1.4-0.4-2-1c-9.1-7.2-15.5-16.1-17.9-27.6
		c-0.4-2-0.8-4-1-6c-0.2-0.6,0-1.6-1-1.8c-0.8,5.4,0.4,10.7,2,15.7c0.4,1.8,0.4,3.2-0.2,5.2c-2.4-2.2-3.2-5-4-7.4
		c-1.8-5.4-3.6-11.1-3.2-17.1c0-0.8-0.4-1.2-1-1.4c-0.8,0-0.4,0.6-0.6,1c-1.2,5-0.2,10.1,1.2,14.7c0.8,2.6,1,5.8,2.8,8.1
		c2,2.4,2.4,5.2,2.6,8.1c0.4,4.8,1,9.9,1.6,14.7c1,7.6,2.4,15.1,2.4,22.9c0,2.8,0.2,5.6,0.6,8.3c0.6,3,0.8,6.2,1,9.3
		c0.2,3.2-0.6,6.2-0.8,9.5c-0.2,1.8-0.6,3.8-1.8,5.2c-2,3.2-4,6.4-6,9.7c-0.4,1-1.8,2-0.6,3.2c1,1,2.2,0,3.2-0.6c1.4-1,2.8-2,4.2-3
		c0.6-0.4,1.2-1.6,2-0.8c0.6,0.6,0.4,1.6,0,2.4c-1,2.2-1.4,4.4-1.8,6.8c-0.2,0.8,0.2,1.4,0.8,1.8c1,0.8,1.2-0.2,1.8-0.6
		c0.4-0.4,0.6-0.4,1-0.8c3.2-3.8,5.2-8.7,8.7-12.7c0.4-0.4,0.6-1.4,0.6-2c-0.2-3.8,0.2-8.1-0.6-11.7c-1-4.4-1.8-9.3-2.4-13.7
		c-1.2-9.9-1.8-19.7-2.2-29.6c-0.2-4.4-0.8-8.7-0.4-13.3c0.8,0.6,1.4,1,2,1.6c2.4,2.4,5,4.4,8.3,5.4c1.4,0.4,1.6,1,1.8,2.2
		c1,9.5,2.2,19.1,3.4,28.6c1.4,10.7,2.4,21.1,2.6,32c0,2.4-0.2,4.8,0.4,7.2c1,5.4-0.2,10.3-3.4,14.9c-1.4,1.8-3.2,3.8-3.6,6.4
		c-0.4,1.6,0.2,1.8,1.6,1.8c2.2-0.2,3.4-1.8,5.2-2.8c0.6-0.4,1.2-1.8,2.2-1c1,0.6,0.6,1.8,0.4,2.4c-0.4,3,0.2,5.8,0.4,8.7
		c0.2,1,0.6,1.6,1.4,1.8c1,0.4,1.2-0.6,1.6-1.2c1.2-2.4,2.4-4.6,3.6-7c1.4-2.8,2.8-5.4,2.4-8.9C20.4,582,19.4,572.5,18,563z"/>
	<path id="XMLID_82_" d="M99.9,579.3c-0.2-5.2-0.4-10.7-0.6-15.9c-0.4-6.2-1-12.5-1.4-18.7c-0.6-13.7-2.4-27.4-3.2-41.1
		c-0.2-3.8-0.2-7.4-1.2-11.1c-0.2-0.8-0.4-1.6-1-1.8c-1.2-0.2-1.8-1-1.6-2c0-0.6-0.4-1-0.8-1c-0.4,0-0.6,0.4-0.8,0.6
		c-1,1.6-1.8,3.2-1.6,4.8c-2.4-0.4-3.4-4.2-6.2-1.8c0.4,1.4-0.8,2.4-0.6,3.8c1,8.5,2,16.7,3.2,25.2c1,5.8,1.6,11.7,1.8,17.7
		c0.4,9.5,1,18.9,1.2,28.2c0.2,4,0.4,8.1,0.8,12.1c0.4,2.6,0.8,5.4,1,8.3c0.4,2.6-0.2,4.8-2.2,6.6c-1.2,1.2-2.4,2.6-3.2,4.4
		c-0.6,1.6-1.8,3.8-0.6,4.8c1.4,1.2,3-1,4.4-1.8c0.8-0.4,1-2.2,2.2-1.4c0.8,0.6,0.2,1.8,0,2.8c0,0.4-0.2,0.6-0.4,1
		c-0.4,1,0.4,1.6,0.8,2.2c0.6,0.6,1.4,0.2,2-0.2c4.8-2.4,6.6-7.2,9.1-11.5c0.2-0.4,0.2-1,0-1.4C100.7,588,100.1,583.8,99.9,579.3z"
		/>
	<path id="XMLID_81_" d="M70.9,532.7c-0.8-9.5-0.8-20.7-2.6-31.6c-0.4-2.2-0.2-4.6-1-6.6c-0.2-0.4-0.4-1-1-1
		c-0.6-0.2-0.6,0.4-0.6,0.8c-0.4,1.8-1,1-1.8,0.4c-2.2-1.8-4-4-5.8-6.4c-0.4-0.6-1-1.4-2-1c-1,0.4-1,1.8-0.4,2.2
		c2.4,2.8,0.6,5.8,1,8.7c0.2,1-0.6,2.2-0.4,3.2c0.8,3.8,1,7.4,1.2,11.5c0.4,5.6,1,11.5,2,17.1c0.8,4,1.4,8.3,1.4,12.5
		c-0.2,5.6,0.8,11.3,0.8,16.9c0,3,0.4,6-0.8,8.7c-1.4,2.8-3.2,5.4-4.4,8.5c-0.4,0.6-0.6,1-0.2,1.8c0.4,0.6,1,0.8,1.8,0.6
		c1.4-0.4,2.4-1.2,3.6-1.8c0.4-0.4,1-0.8,1.6-0.4c0.8,0.4,0.4,1,0.4,1.8c-0.2,1.8-0.8,3.2-1.6,4.8c-1,1.8-0.4,2.4,1.2,3.2
		c0.6,0.4,1.2,0.4,1.8,0c3.8-2.4,7.2-5.8,7.6-10.1c0.6-4.6,0.4-9.7,0.2-14.5C72.7,552,70.9,543.1,70.9,532.7z"/>
	<path id="XMLID_80_" d="M16.2,476.5c-0.4-0.4-1-0.6-1.6-0.2c-0.6,0.4-0.6,1.4-0.4,2c0.4,0.6,1,1.2,1.8,1.8c4,3.2,8.7,6.2,12.9,9.5
		c8.1,6.2,13.3,14.7,16.7,24.6c0.2-0.6,0.4-0.8,0.4-1c0-0.4,0-0.6,0-1c-0.4-5.8-2.6-11.1-6-15.7C33.7,487.6,23.8,483.3,16.2,476.5z"
		/>
	<path id="XMLID_79_" d="M-35.6,466.6c-0.4-4.4-2-8.5-3.8-12.3c-3.2-6.6-8.7-11.9-11.1-18.7c-0.2-0.6-0.6-1-1.2-1
		c-0.8,0.2-0.8,0.8-0.8,1.4c-0.2,1.4,0.4,2.6,1,3.8c1.8,4.2,4.8,7.2,7,11.3c2.4,4.6,4.8,9.5,5.6,14.7c0.6,5,3.4,9.5,2.6,14.9
		c1-0.4,1-0.6,1-1C-34.3,475.1-35.4,470.9-35.6,466.6z"/>
	<path id="XMLID_78_" d="M100.7,445.9c-0.6-0.4-1.4-0.8-2,0c-0.4,0.8,0.2,1.2,0.8,1.8c2.2,1.8,4.6,3.4,7.2,5.2
		c4.4,3,7.8,6.8,10.1,11.7c2.4,5,3.2,10.1,3.2,15.7c0.4-0.4,0.6-0.8,0.8-1.2c1.8-7.6,0.4-14.9-4-21.1
		C112.6,452.3,106.3,449.3,100.7,445.9z"/>
	<path id="XMLID_77_" d="M113.4,408.3c-3.2-5.2-9.1-6.6-13.7-10.1c-0.6-0.4-1.2-0.2-1.8,0.4c-0.6,0.6,0,1,0.4,1.4c1.6,1.4,3.2,3,5,4
		c6.6,3.8,10.1,9.9,12.5,16.7c0.8,2.2,1.8,3.8,4,5.2c-1-3.2-1.8-6.6-2.8-9.9C116,413.7,115,411.1,113.4,408.3z"/>
	<path id="XMLID_76_" d="M-69.6,417.3c-0.6-4.4-1-8.9-0.4-13.5c0-0.8,0-1.4-0.8-1.6c-1-0.2-0.8,0.6-1,1c-0.6,1.4-0.8,2.8-1,4.4
		c-1,6.4,0,12.9,1.8,18.9c1,4,2.8,7.8,6.8,9.9c0.4-0.6,0-1-0.2-1.6C-67,429.2-69,423.4-69.6,417.3z"/>
	<path id="XMLID_75_" d="M124.5,439.7c-2.8,0-4.8-1.2-6.6-3.2c-3.8-4.4-6.6-9.7-9.5-14.5c-1-1.4-1.6-3-2.4-4.4c-0.4-0.4-0.6-1-1-0.6
		c-0.4,0.2-0.4,0.6-0.4,1c0.4,1.6,0.8,3.2,1.4,4.6c1.2,2.6,2.8,5.2,4.4,8.1c2,3.4,3.8,7,6.8,9.7c1.4,1.2,2.8,2.4,5,2.4
		c0.8,0.2,1.6,0,2.4-0.4c1-0.4,2.2-0.4,2-1.8C126.7,439.3,125.5,439.7,124.5,439.7z"/>
	<path id="XMLID_74_" d="M36.7,478.9c-0.4-0.4-0.6-0.6-1-0.4c-0.4,0.4-0.4,0.6-0.4,1c0,1.6,1,2.4,1.8,3.6c2.2,2.4,4.4,4.6,6.6,7.2
		c2.6,3.4,5,7,7.2,10.7c0.8,1.4,2.8,1.8,2.6,4c0.6-1.8,0.4-3.4-0.2-5.2C50,491.4,43.1,485.4,36.7,478.9z"/>
	<path id="XMLID_73_" d="M-73.2,383.7c0.2-0.8,0.4-1.4-0.6-1.8c-1-0.4-1,0.6-1.2,1c-2.4,4.4-2.4,9.7-3.4,14.5
		c-1.2,6.2,0.4,12.3,4.2,17.7c0.8-1.2-0.2-2.2-0.4-3.2c-1-4.4-1.6-9.1-1-13.5C-75,393.6-74.4,388.5-73.2,383.7z"/>
	<path id="XMLID_72_" d="M-62.9,420.3c-0.2-0.4-0.4-0.8-0.8-0.8c-0.6,0-0.6,0.4-0.8,1c-0.8,1.4-0.4,2.8-0.2,4.4
		c1,5.4,3.6,10.1,6.6,14.5c1.6,2.4,3,5.2,6.6,5.8c-0.4-0.8-0.4-1-0.6-1.6C-56.5,436.4-60.9,429-62.9,420.3z"/>
	<path id="XMLID_71_" d="M106.8,494.2c-1-1-2.2-1.6-3.2-2.2c-6.6-3.4-11.9-8.5-15.3-14.9c-0.4-1-0.4-2.4-2.4-3
		c1.2,4.8,2.4,9.3,6,12.9c1,1,2.4,1.8,3.2,3.2c2.6,3.6,6.6,4.8,10.7,6c0.6,0.2,1.2,0.2,1.4-0.4C107.6,495,107.2,494.6,106.8,494.2z"
		/>
	<path id="XMLID_70_" d="M8.5,481.7c-0.4-0.4-0.8-0.8-1.2-0.4c-0.6,0.4-0.4,0.8-0.4,1.2c-0.4,1.8,1,3,1.8,4c4,4.4,8.7,8.7,13.5,12.3
		c1.2,1,2.6,2.4,4.6,1.8c-0.4-1-1-1.8-1.6-2.4C19.8,492.6,13.8,487.6,8.5,481.7z"/>
	<path id="XMLID_69_" d="M-32.1,456c-1,0.2-1,1.2-0.8,2.2c0.6,3,1.2,5.8,1.8,8.9c1.6,8.1-0.8,15.1-3.8,22.1c1,0.4,1.2-0.4,1.8-0.8
		c1.6-2.2,2.6-4.6,3.2-7.2c2.4-7.8,1.8-15.7-0.8-23.3C-30.9,456.8-30.9,455.6-32.1,456z"/>
	<path id="XMLID_68_" d="M120,451.5c-3.6-3.8-7.8-7-10.9-11.5c-0.2-0.4-0.6-0.4-0.8-0.8c-1,0.2-1.2,0.8-1,1.4c0.2,1,0.4,2,1,2.6
		c3.8,4.6,8.7,8.7,13.5,12.5c0.4,0.4,0.6,0.4,1,0.2c0.4-0.4,0.4-0.8,0.2-1C122,453.8,120.8,452.7,120,451.5z"/>
	<path id="XMLID_67_" d="M105.3,466.4c-0.4-0.6-1-1.6-2-1c-1,0.6-0.6,1.6,0,2.4c1.2,1.6,2.6,3.2,3.8,4.8c2.6,3.6,5.2,7.2,5.6,11.7
		c0,0.6-0.4,1.8,0.6,1.8s0.8-1,1-1.8c0.2-0.4,0.2-0.6,0.2-1s-0.2-0.8-0.2-1C113.8,475.7,109.4,471.3,105.3,466.4z"/>
	<path id="XMLID_66_" d="M-73.8,362.4c-2,6-4,12.3-4.6,18.7c-0.2,0.6-0.2,1.4,0.6,1.6c0.6,0.2,1-0.4,1-1c1.8-6.2,4.4-12.1,5.2-18.7
		c0.2-0.8,0.4-1.6-0.4-1.8C-73.2,360.6-73.6,361.6-73.8,362.4z"/>
	<path id="XMLID_65_" d="M65.5,480.5c-0.8,5.4,7,13.9,13.1,14.3C73.5,490.4,68.5,486.4,65.5,480.5z"/>
	<path id="XMLID_64_" d="M106.8,487.6c0.6-0.2,0.4-0.6,0.4-1.2c-0.2-0.6-0.4-1.6-0.8-2.4c-1.4-3.8-3.4-7.2-5.6-10.7
		c-0.4-0.6-0.8-1.8-1.8-1.2s-0.2,1.6,0.2,2.2c2.2,4.2,4.4,8.5,6.6,12.7C106.1,487.2,106.1,487.6,106.8,487.6z"/>
	<path id="XMLID_63_" d="M75.8,481.9c-0.6,0.4-0.4,0.8-0.4,1.2c0.6,3.2,2.6,5.6,4.4,8.1c0.4,0.4,0.8,0.4,1.2,0.4
		c0.4-4-3-6.2-4.4-9.5C76.8,481.9,76.2,481.5,75.8,481.9z"/>
	<path id="XMLID_62_" d="M81.2,491.8L81.2,491.8L81.2,491.8L81.2,491.8L81.2,491.8L81.2,491.8z"/>
	<path id="XMLID_61_" d="M-72.4,278.4c1.8,0,2.8-1,3-3c0-1.8-1-2.8-3-2.8c-1.8-0.4-2.4,0.8-2.4,2.4
		C-74.8,276.8-74.4,278.4-72.4,278.4z"/>
</g>
<g id="XMLID_89_">
	<path id="XMLID_109_" d="M-450.4,762.2c-0.9-1.2-2-2.2-2.7-3.5c-1.2-2.2-2.4-4.5-3.6-6.6c-2-3.5-4-7.1-6.2-10.6
		c-1.8-2.8-3.6-5.5-5.2-8.4c-1.5-2.7-3.2-5.2-4.9-7.8c-0.9-1.5-1-1.4-0.2-2.8c1.2-1.9,0.8-2.6-1.4-2.9c-0.3,0-0.6-0.1-0.9,0
		c-0.7,0.2-1.1-0.1-1.3-0.8c-0.8-1.9-2-3.4-4.2-3.7c-0.6-0.1-1.2-0.5-1.8-0.3c-3.2,0.8-6.5,1.5-9.2,3.7c-0.3,0.3-0.8,0.4-1.2,0
		c-1.2-1.1-2.5-1.5-3.9-0.8c-1.3,0.6-2.2,1.8-2.5,3.2c-0.2,1.2-0.5,2.2-1.5,3c-2.2,1.7-3.5,4.2-5.5,6.1c-1.2,1.1-2,2.3-2.8,3.6
		c-0.6,1-1.2,2-0.2,3.2c0.5,0.5,0.7,1.3,1,1.9c0.2,0.3,0.2,0.5,0.2,0.9c-0.2,2.3,0.2,2.8,2.5,3.2c0.5,0.1,0.9,0.3,1.2,0.8
		c1.2,1.9,2.7,3.6,4.1,5.4c1.5,1.8,3,3.5,4.2,5.5c0.9,1.5,1.9,2.9,2.9,4.4c1.9,2.9,3.6,5.9,5.9,8.6c1,1.2,2,2.4,2.8,3.7
		c0.8,1.2,1.4,2.4,2.2,3.5c1.7,2.3,3.4,4.7,5.2,6.9c1,1.2,2.2,1.8,3.8,1.9c1.8-0.2,3.7-0.5,5.5-1.2c2.8-1,5.5-2.5,7.9-4.3
		c2.5-1.8,5.4-3.5,7.5-5.9c1.5-1.7,2.8-3.4,3.3-5.6C-449.2,765-449.2,763.5-450.4,762.2z M-497.2,718.9c1.5-0.9,3.3,0.2,3.4,1.9
		c0.2,2.2-1.8,3.8-3.6,2.9c-0.2-0.1-0.4-0.2-0.4-0.2c-0.2-0.8-0.7-1.6-0.7-2.4C-498.5,720.2-498,719.4-497.2,718.9z M-508.9,735.9
		c-0.2-0.3-0.4-0.6-0.2-0.9c0.2-0.4,0.5,0,0.8,0.1c0.4,0.1,0.7,0,0.7-0.5c0-0.3,0-0.5,0-0.9c-0.2-1.2,0.7-2.1,1.4-2.9
		c1.8-2,3.7-3.9,5.5-5.9c1-1.1,1.2-1.1,2.2,0c0.5,0.6,1.8,0.8,2.5,0.5c1-0.5,1.8-1.1,2.5-1.8c0.6-0.6,0.7-1.4,0.6-2.2
		c-0.1-1.2,0.7-1.7,1.5-2.2c2.2-1.3,4.5-2.2,6.9-2.8c0.4-0.1,0.8-0.2,1.2-0.2c1.1-0.1,1.5,0.5,1.5,1.5c0,0.2-0.3,0.5,0,0.5
		c0.3,0.2,0.5-0.1,0.7-0.3c1-1,1.3-1,2,0.3s1.4,2.7,2.1,4.1c0.1,0.2,0,0.3-0.1,0.5c-0.7,1.2-1.5,2.2-2.5,3.2c-2.1,2-4.3,3.8-6.6,5.5
		c-1.2,0.9-2.7,1.5-4,2.3c-4.7,3-9.9,4.7-15.2,6.2c-0.7,0.2-1,0.1-1.5-0.6C-507.4,738-508.4,737.1-508.9,735.9z M-505.1,741.6
		c-0.8,0-1.4-0.2-2-0.3c-0.2-0.1-0.3-0.2-0.3-0.4s0.2-0.2,0.4-0.2c2,0.5,3.8-0.6,5.6-1.2c3-0.8,5.8-2.1,8.5-3.5
		c4.2-2.2,8.2-4.6,11.8-7.7c2.2-1.9,4.2-4.2,5.9-6.6c0.2-0.4,0.2-1.1,0.9-1c0.5,0.1,0.7,0.1,0.5,0.6c-0.3,0.8-1,1.5-1.6,2.1
		c-1.2,1.3-2.5,2.7-3.7,3.9c-0.7,0.7-1.5,1.2-2.2,1.8c-3.1,2.7-6.4,5.1-9.9,7c-2.7,1.5-5.6,2.5-8.5,3.5c-1.5,0.5-2.8,1.2-4.3,1.5
		C-504.5,741.5-504.9,741.6-505.1,741.6z M-451.4,768.1c-1.2,1.9-2.4,3.8-4.2,5.2c-0.9,0.8-2.1,1.2-2.9,2c-0.7,0.6-1.5,1.2-2.2,1.7
		c-1.9,1.4-3.9,2.6-6.2,3.5c-2.1,0.8-4.3,1.3-6.5,1.5c-1.3-0.1-2.5-0.2-3.1-1.2c-1.9-2.8-4.4-5.4-6.2-8.4c-1.6-2.7-3.6-5.2-5.5-7.7
		c-1.3-1.8-2.5-3.5-3.6-5.4c-1.2-2-2.6-3.9-3.9-5.8c-2-3.1-4.5-5.8-6.6-8.8c-0.2-0.3-0.4-0.6-0.5-0.9c-0.9-1.2-0.8-1.2,0.5-1.8
		c2.9-1.2,5.9-2.2,8.9-3.5c3.9-1.8,7.2-4.2,10.6-6.7c2.6-2,5.2-4,7.4-6.5c0.5-0.5,0.8-0.4,1.2,0.2c0.8,1.2,1.6,2.4,2.4,3.6
		c1.5,2.3,2.8,4.7,4.2,7c2.3,3.7,4.6,7.3,6.9,11.1c1.5,2.4,2.9,4.8,4.2,7.3c0.8,1.6,1.8,3.2,2.5,4.8c0.5,1.1,1.5,1.9,2.1,2.8
		c0.2,0.3,0.4,0.6,0.6,0.9C-450.3,764.7-450.4,766.4-451.4,768.1z"/>
	<path id="XMLID_108_" d="M-485.4,741.7c0.8,0.6,1.5,1.3,1.8,2.2c1.1,2,2.5,3.8,3.7,5.8c0.4,0.6,0.7,1.4,1.3,1.8
		c0.2,0.2,0.5,0.6,0.8,0.3c0.3-0.2,0.2-0.6,0.1-0.9c-0.4-1.2-1.2-2.1-1.8-3.1c-0.8-1-1.5-2-2.1-3.2c1.9,1.5,3.8,2.9,5.3,4.8
		c0.3,0.3,0.6,0.9,1.1,0.6c0.5-0.3,0.6-1,0.6-1.6c0-0.2-0.2-0.5-0.2-0.7c-0.5-0.9-1.1-1.8-1.6-2.7c-1.6-2.4-3.2-4.9-4.9-7.2
		c-0.2-0.2-0.2-0.5-0.6-0.5s-0.4,0.5-0.4,0.8c0,0.2,0.2,0.5,0.2,0.7c0.5,0.8,1.2,1.6,1.6,2.4c0.9,1.4,1.8,2.8,2.2,4.4
		c-0.9-0.6-1.8-1.2-2.5-2c-1.2-1.1-2.4-2.2-3.5-3.2c-0.6-0.5-1.2-0.2-1.5,0.2C-486,740.8-486,741.3-485.4,741.7z"/>
	<path id="XMLID_105_" d="M-464.3,767.2c-1.2-1.9-2.5-3.9-3.7-5.9c-0.6-1-1.2-2.1-1.8-3.2c-0.5-1.1-1.2-2.1-1.9-3
		c-0.6-0.8-1.5-1-2.5-0.6c-0.8,0.3-0.8,1.1-0.9,1.5c0,0.8,0.2,1.5,0.6,2c0.3,0.5,0.6,0.8,0.8,1.3c2,3.3,4,6.5,5.9,9.9
		c0.3,0.5,0.6,1.4,1.4,0.8c0.7-0.5,0.2-1.2-0.2-1.7c-0.6-1-1.2-2-1.9-2.9c-0.2-0.2-0.5-0.5-0.2-0.9c0.5-0.7,0.9-0.7,1.3,0.2
		c0.5,1.2,1.1,2.3,1.8,3.4c0.2,0.4,0.6,0.8,1.2,0.5C-463.9,768.3-463.9,767.8-464.3,767.2C-464.3,767.3-464.3,767.3-464.3,767.2z
		 M-468.6,763.4c-0.5,0.3-1,0.3-1.5-0.4c-1.1-1.8-2.2-3.5-3.4-5.2c-0.3-0.5-0.4-1-0.5-1.6c0-0.2,0-0.5,0.2-0.5c0.4,0,0.8,0,1.2,0.4
		c0.5,0.8,1.2,1.5,1.6,2.3c0.6,1.3,1.3,2.6,2.2,3.9C-468.5,762.4-468,763-468.6,763.4z"/>
	<path id="XMLID_102_" d="M-459.5,764.4c-0.5-0.8-0.8-1.5-1.3-2.3s-0.8-1.6-1.9-1.5c-0.2,0-0.2-0.2-0.3-0.3
		c-0.3-0.5-0.6-1.1-0.9-1.6c-1.3-2.2-2.5-4.4-4-6.5c-0.2-0.2-0.3-0.5-0.7-0.5c-0.1,0-0.2,0.1-0.2,0.1c-0.5,0.7-1.3,1.1-1.8,1.7
		c-0.7,0.8,0.7,1.3,0.8,2.1c0,0.2,0.2,0.2,0.2,0.4c1.5,2.2,2.9,4.3,4.3,6.5c0.9,1.5,1.5,3.2,2.5,4.5c0.2,0.3,0.4,0.8,0.8,0.5
		c0.5-0.2,0.4-0.7,0.2-1.1c-0.5-1.1-1-2.1-1.6-3.1c-0.2-0.4-0.5-0.7,0.2-1c0.5-0.2,0.8-0.5,1.2,0.1c0.2,0.3,0.4,0.5,0.5,0.8
		c0.3,0.8,0.8,1.7,1.4,2.3c0.2,0.2,0.5,0.5,0.8,0.4c0.5-0.2,0.2-0.6,0.1-1C-459.2,764.8-459.4,764.7-459.5,764.4z M-464.4,761.4
		c-0.9-0.8-1.3-1.8-1.8-2.7c-0.9-1.3-1.8-2.6-2.8-3.9c-0.3-0.4-0.5-0.8,0-1.2s0.7,0.2,0.9,0.4c1.2,1.7,2,3.5,3,5.3
		C-464.8,759.9-464.2,760.4-464.4,761.4z"/>
	<path id="XMLID_101_" d="M-476.9,738.6c1.8,3,3.5,5.9,5.3,8.9c0.2,0.4,0.5,0.9,1.1,0.6c0.6-0.3,0.4-0.8,0.2-1.3
		c-0.4-0.8-0.9-1.5-1.4-2.2c-0.5-0.8-1.2-1.5-0.8-2.7c0.1-0.2-0.1-0.6,0.2-0.7c0.3-0.1,0.5,0.2,0.7,0.5c0.9,1.1,1.6,2.4,2.4,3.6
		c0.4,0.5,0.6,1.2,1.2,1.6c0.2,0.1,0.2,0.4,0.5,0.2c0.2-0.1,0.3-0.3,0.2-0.5c-0.1-0.7-0.3-1.3-0.6-1.9c-0.6-1.3-1.5-2.4-2.3-3.5
		c-0.5-0.8-1-1.8-2.2-2c-0.2,0-0.2-0.3-0.2-0.5c0-0.3,0-0.6-0.1-0.9c-0.1-1.5-1.3-2.5-2.1-3.8c-0.2-0.3-0.4-0.8-0.9-0.5
		c-0.4,0.3-0.2,0.8,0.1,1.2c0.6,0.8,1.1,1.7,1.5,2.6c0.5,1.1,0.5,2.2,0.2,3.2c-0.2,0.1-0.3-0.1-0.4-0.2c-0.9-1.4-1.9-2.8-2.8-4.2
		c-0.2-0.2-0.2-0.5-0.5-0.4s-0.2,0.3-0.4,0.5c-0.2,0.3-0.1,0.5,0.2,0.8C-477.6,737.6-477.2,738-476.9,738.6z"/>
	<path id="XMLID_98_" d="M-489.1,755.5c-0.9-1.1-1.5-2.2-0.5-3.5c0.5-0.6,0.3-1.2-0.2-1.8c-0.6-0.8-1.2-1.8-1.7-2.6
		c-0.9-1.4-1.9-2.5-3.5-3.1c-0.3-0.1-0.6-0.3-0.8-0.1c-0.6,0.6-1,1.5-1.3,2c-0.1,0.5,0.1,0.8,0.3,1c0.6,0.6,1.4,1.2,1.8,2
		c1.8,2.9,4.1,5.5,5.9,8.4c0.2,0.3,0.5,0.6,1,0.4c0.4-0.2,0.3-0.6,0.2-1C-488.2,756.6-488.6,756-489.1,755.5z M-490.6,751.5
		c-0.1,0.5-0.1,0.8-0.4,0.9c-0.3,0.2-0.5-0.3-0.6-0.5c-1.2-1.3-2-2.8-3.4-4c-0.3-0.2-0.5-0.7-0.8-1c-0.2-0.3-0.2-0.6,0.1-0.8
		c0.2-0.2,0.5-0.2,0.8-0.2c0.7,0.2,1.1,0.5,1.5,1c0.9,1.1,1.6,2.4,2.3,3.6C-491,750.9-490.5,751.1-490.6,751.5z"/>
	<path id="XMLID_97_" d="M-477,767.8c-0.5-0.7-1.3-1-2.2-0.8c-0.5,0.1-0.8,0-1.2-0.3c-1.2-1.3-2.4-2.8-3.3-4.3
		c-0.2-0.4-0.4-0.8,0-1.2c0.3-0.3,0.2-0.6-0.2-0.8c-0.6-0.3-1.5,0.3-1.5,0.9c0,0.5,0.1,1,0.4,1.4c1.5,1.8,2.5,4,4.4,5.5
		c0.4,0.3,0.6,0.5,1.1,0.4c0.8-0.3,1.4,0,1.8,0.5c1.2,1.6,2.2,3.3,3.2,5.2c0.4,0.7,0.2,1.1-0.5,1.4c-0.2,0.1-0.2,0.2-0.4,0.2
		c-0.2,0.1-0.3,0.2-0.3,0.4s0.2,0.2,0.4,0.3c1,0.5,1.5-0.3,2.2-0.8c0.6-0.5,0.4-1.1,0.1-1.7C-474,771.7-475.6,769.8-477,767.8z"/>
	<path id="XMLID_96_" d="M-457.4,759.8c-0.8-1.6-1.8-3.2-3.9-3.2c-0.2,0-0.5-0.2-0.5-0.4c-0.8-1.3-1.8-2.6-2.6-4
		c-0.4-0.6-0.1-1.2,0.6-1.3c0.2,0,0.4,0.1,0.6,0.2c0.2,0.1,0.6,0.2,0.6-0.2c0-0.5-0.2-1-0.5-1.3s-0.5,0.2-0.8,0.2
		c-0.5,0.2-0.8,0.5-1.2,0.7c-1.2,0.7-1.2,1.2-0.5,2.3c1,1.5,2,3,3,4.5c0.4,0.6,0.7,1.2,1.5,0.7c0.7-0.1,1.8,0.8,2.2,1.8
		c0.5,1,0.9,2,1.5,3c0.4,0.7,0.4,1.2-0.2,1.8c-0.3,0.2-0.6,0.5-0.4,0.9c0.2,0.3,0.5-0.2,0.8-0.2c0.2,0,0.4-0.2,0.6-0.2
		c1-0.4,1.4-1.4,0.8-2.3C-456.4,761.8-456.9,760.8-457.4,759.8z"/>
	<path id="XMLID_95_" d="M-476.9,760.4c-0.5-0.8-1.3-1.5-0.1-2.4c0.1-0.1,0.2-0.2,0.2-0.2c0.1-0.2,0.2-0.5,0-0.7s-0.5-0.1-0.7,0
		s-0.5,0.2-0.6,0.4c-0.6,0.7-1.5,1.2-2.3,1.7c-0.5,0.2-0.8,0.6-0.5,1.1c0.3,0.6,0.8,0.2,1.2-0.1c0.5-0.5,1-0.4,1.5,0.2
		c1.9,2.9,3.9,5.8,5.8,8.7c0.7,1.1,1.3,2.2,2.1,3.2c0.2,0.2,0.5,0.5,0.8,0.3c0.2-0.1,0.3-0.4,0.3-0.6c0-0.5-0.2-0.9-0.5-1.3
		C-472.1,767.1-474.5,763.7-476.9,760.4z"/>
	<path id="XMLID_94_" d="M-490.8,744.6c0.6-0.8,0.9-0.2,1.3,0.2c1.7,2.4,3.4,4.8,5.1,7.2c0.5,0.8,1.3,1.5,0.5,2.5
		c-0.1,0.2,0,0.4,0.2,0.5s0.4,0.1,0.5-0.1c0.6-0.4,1.2-0.8,1.8-1.2c0.2-0.2,0.4-0.5,0.5-0.8c0-0.4-0.3-0.4-0.5-0.4
		c-0.8,0.2-1.1-0.3-1.5-0.8c-1.8-2.5-3.4-5.2-5.5-7.5c-0.4-0.4-0.8-1-0.2-1.6c0.3-0.2,0.5-0.5,0.2-0.8s-0.7-0.2-0.9-0.1
		c-0.8,0.6-1.5,1.3-2.2,2.1c-0.2,0.2-0.2,0.5,0.1,0.6C-491.2,744.6-491,744.7-490.8,744.6z"/>
	<path id="XMLID_93_" d="M-496.4,731.1c1.1-0.6,2.2-1.2,3.2-1.9c1-0.6,1.8-1.3,2.4-2.5c-0.6,0-0.8,0.6-1.2,0.8
		c-1.7,0.9-3.4,1.8-5,2.8c-0.4,0.2-1.2,0.4-0.9,0.8C-497.6,731.7-496.8,731.4-496.4,731.1z"/>
	<path id="XMLID_92_" d="M-487.3,724.5c1-0.6,1.9-1.2,2.2-2.5c-0.8,0.6-1.8,1.2-2.6,1.8c-0.2,0.2-0.4,0.3-0.2,0.6
		C-487.8,724.6-487.5,724.6-487.3,724.5z"/>
	<path id="XMLID_91_" d="M-503.4,734.3c0.8,0,1.2-0.4,1.6-0.8c0.1-0.1,0.2-0.2,0-0.3c-0.5-0.2-0.8,0.2-1.3,0.2
		c-0.2,0-0.3,0.1-0.4,0.2c-0.2,0.2-0.4,0.3-0.2,0.5C-503.6,734.3-503.4,734.3-503.4,734.3z"/>
	<path id="XMLID_90_" d="M-483.6,720.7c0.2,0.2,0.4-0.1,0.5-0.2c0.2-0.4,0.4-0.8,0.4-1.3c-0.5,0.2-0.7,0.5-1,0.9
		C-483.9,720.3-483.8,720.5-483.6,720.7z"/>
</g>
<path class="st0" d="M-441.5,556.8"/>
<path class="st0" d="M-448,539"/>
<path class="st0" d="M-445.6,539"/>
<path class="st0" d="M-432.6,525.4"/>
<path class="st0" d="M-460.4,526.3"/>
<path d="M-450.5,560.1c-0.7,0-1.1-0.4-1.1-1.1v-6.7c0-0.7,0.4-1.1,1.1-1.1s1.1,0.4,1.1,1.1v6.7
	C-449.4,559.7-449.8,560.1-450.5,560.1z"/>
<path d="M-441.5,560.1c-0.7,0-1.1-0.4-1.1-1.1v-6.7c0-0.7,0.4-1.1,1.1-1.1s1.1,0.4,1.1,1.1v6.7
	C-440.4,559.7-440.9,560.1-441.5,560.1z"/>
<path d="M-446.2,540.6c-1.8,0-2.7-1.3-2.9-2.2c-0.2-0.7,0.2-1.1,0.7-1.3c0.7-0.2,1.1,0.2,1.3,0.7c0,0.2,0.2,0.7,0.9,0.7
	c0.7,0,0.7-0.2,0.9-0.4c0.2-0.7,0.7-0.9,1.3-0.9c0.7,0,0.9,0.7,0.9,1.3C-443.5,539.3-444.2,540.6-446.2,540.6z"/>
<path d="M-446,548c-2,0-4.3-0.7-5.6-2c-0.4-0.4-0.4-1.1,0-1.6c0.4-0.4,1.1-0.4,1.6,0c2,1.8,6.3,1.8,8.3,0c0.4-0.4,1.1-0.4,1.6,0.2
	c0.4,0.4,0.4,1.1-0.2,1.6C-442,547.3-444,548-446,548z"/>
<path d="M-423.4,579.4c0-1.3-0.4-7.4-2.5-10.5c0.2,0,0.2,0,0.2,0c0.4-0.2,0.7-0.7,0.7-1.1c0-1.3,0.4-35.2,0-40.1
	c-0.4-9-6.5-18.4-21.3-18.4c-15.7,0-20.6,11.9-21.1,18.2c-0.4,4.9,0,38.5,0,40.1c0,0.4,0.2,0.7,0.4,0.9c0,0,0.2,0.2,0.4,0.2
	c-1.3,2.7-1.6,9.4-1.6,10.3c0,6.3,0,9.4,0.4,17.7v1.3c0,0.4,0.4,0.9,0.9,1.1c-0.9,1.3-1.3,2.9-1.3,4.5c0,3.1,2.5,5.8,5.2,5.8
	c0.4,0,0.7,0,0.9-0.2c-0.9,5.8-3.4,15.2-4,17.5c-0.2,0.2-0.2,0.4-0.2,0.7c0,0.7,0.4,1.1,1.1,1.1l0,0l0,0l0,0h9.4l2.2,24.7
	c-2.2,4.5-1.8,5.6-1.6,5.8c0.4,1.1,1.8,2,3.4,2.2c0.7,0.2,1.3,0.2,2,0.2c1.6,0,2.9-0.4,4.3-1.3c0.2-0.2,0.4-0.4,0.7-0.7
	c0.2,0.2,0.4,0.2,0.7,0.2h10.5c0.4,0,0.9-0.4,1.1-0.9c0.2-0.9,0.2-2.9-1.6-4.3c-1.3-1.1-3.4-1.3-5.4-1.3l2.9-24.7h9.4
	c0.2,0,0.2,0,0.4,0c0,0,0,0,0.2,0h0.2l0,0l0,0l0,0c0,0,0-0.2,0.2-0.2c0,0,0,0,0-0.2v-0.2c0,0,0,0,0-0.2s-2.9-10.5-3.6-17.7
	c0.2,0,0.2,0,0.4,0c2.7,0,5.2-2.7,5.2-5.8c0-1.6-0.4-3.1-1.3-4.3h0.4c0.7,0,1.1-0.4,1.1-1.1l0.2-4.7
	C-423.4,587.9-423.2,585-423.4,579.4z M-465.1,527.6c0.4-6.1,4.9-16.1,18.8-16.1c17,0,19,13.2,19.3,15.9c0.2,4.5,0,34.1,0,39.2
	c-1.1,0.4-3.6,1.3-5.4,1.3s-5.8-1.1-8.1-1.8v-13.4c6.3-2.2,9-8.3,9-11.9v-13.4c0-0.4-0.2-0.9-0.9-1.1l-3.1-0.9l-1.8-3.6
	c-0.2-0.4-0.7-0.7-0.9-0.7c-0.4,0-0.9,0.2-1.1,0.7l-1.8,3.6h-19.3c-0.2,0-0.7,0-0.9,0.2s-0.2,0.4-0.2,0.7V540l0,0l0,0
	c0,3.1,2.9,10.1,9.6,12.5v13.7c-2,0.9-6.3,2.2-8.3,2.2s-4.3-1.1-5.4-1.8C-465.1,562.1-465.3,532.1-465.1,527.6z M-447.4,564.6
	c0,0.2,0,0.2,0,0.4c0,0.7,0.7,1.3,1.3,1.3s1.3-0.7,1.3-1.3c0-0.2,0-0.2,0-0.4c0.9-0.2,1.6-0.4,2-0.9v3.6c0,0.4,0.2,0.9,0.9,1.1
	c0,0,0.2,0,0.4,0.2l-4.5,6.1l-4.5-6.1c0.2,0,0.4-0.2,0.4-0.2c0.4-0.2,0.7-0.7,0.7-1.1v-3.6C-448.9,563.9-448.2,564.4-447.4,564.6z
	 M-449.4,559v-5.4c1.1,0.2,2.2,0.4,3.4,0.4s2.2-0.2,3.4-0.2v5.2c0,0.4,0,3.4-3.4,3.4C-449.1,562.4-449.4,559.4-449.4,559z
	 M-446,551.6c-9.2,0-13.2-8.3-13.2-11.4l0,0l0,0v-12.5h18.8c0.4,0,0.7-0.2,0.9-0.7l1.1-2.2l1.1,2c0.2,0.2,0.4,0.4,0.7,0.7l2.9,0.9
	v12.8C-433.7,544-436.6,551.6-446,551.6z M-462.8,607.2L-462.8,607.2c-1.3,0-2.9-1.3-2.9-3.4c0-2.2,1.3-4.3,2.5-4.3
	c0.9,0,0.4,2.7,0.4,4.3v0.4C-462.8,605.4-462.6,606.7-462.8,607.2z M-463.5,626.2c1.1-4,4-15,4-19.7c0-4.9,1.1-9,2.7-9.6
	c0.4-0.2,0.7-0.7,0.7-0.9v-3.4h1.3l-5.8,33.6H-463.5z M-460.8,599.1l0.2-0.2c0,0.2-0.2,0.4-0.2,0.4S-460.8,599.3-460.8,599.1z
	 M-460.4,598c0-1.3,0.7-7.8,1.3-14.3c0.2,2.7,0.7,5.8,0.7,7.8v3.6C-459.2,595.7-459.9,596.9-460.4,598z M-445.1,628.5l0.2,23.5
	c0,0,0,0,0,0.2c0,0.4-0.4,1.8-0.7,3.1c-0.7-1.1-1.3-2-1.8-2.5l0.2-24.4l0,0L-445.1,628.5L-445.1,628.5z M-449.6,653.8
	c0.2,0.2,0.4,0.4,0.7,0.9l-0.9,0.7l-1.6-1.1c0-0.2,0.2-0.4,0.2-0.7c0-0.2,0.2-0.4,0.2-0.7l-2.2-24.7h3.8l-0.4,24.7
	C-449.8,653.3-449.6,653.6-449.6,653.8z M-450.9,659.2c-1.1-0.2-1.8-0.9-2-0.9c0-0.2,0.2-0.9,0.4-1.8l1.1,0.9
	c0.4,0.2,0.9,0.4,1.3,0.4s0.9-0.2,1.3-0.4l0.9-0.7c0.4,0.9,0.9,1.6,0.9,1.8C-448.2,659.6-450.3,659.2-450.9,659.2z M-434.6,657.6h-9
	c0-0.2-0.2-0.4-0.2-0.7s0.2-1.1,0.4-2c0.7,0.4,1.8,0.7,2.7,0.7c0.9,0,4,0,5.4,1.1C-434.8,656.9-434.6,657.4-434.6,657.6z
	 M-441.3,653.1c-0.9,0-1.3-0.4-1.3-0.7v-0.2l-0.2-23.8h4.3L-441.3,653.1z M-444,626.2L-444,626.2h-9.4V626l3.6-21.5l20.2,21.7
	C-429.6,626.2-444,626.2-444,626.2z M-429.2,623.3l-20.6-22c-0.2-0.2-0.7-0.4-1.1-0.2c-0.4,0-0.7,0.4-0.7,0.9l-4,23.8
	c0,0.2,0,0.4,0,0.7h-2.7l5.4-31.6l22.4,23.8C-429.9,620.2-429.6,622-429.2,623.3z M-435.5,595.7c0,0,3.6,2.7,3.6,10.5
	c0,2.2,0.4,4.9,0.9,8.1l-20.6-21.7h15.7v2.2C-435.9,595.3-435.7,595.5-435.5,595.7z M-433.7,594.4v-2.9c0-2.5,0.4-6.3,1.1-9.6
	c0.9,7.8,1.6,16.1,1.6,16.4s0,0.2,0,0.4C-431.9,596.4-433,595.1-433.7,594.4z M-431,598.7C-431,598.7-431,598.9-431,598.7
	C-431,598.9-431,598.9-431,598.7C-431,598.9-431,598.7-431,598.7z M-429,607.2h-0.2c-0.2-0.2,0-1.8,0-2.9v-0.4
	c0-1.6-0.2-4.3,0.7-4.3c1.1,0,2.7,2,2.7,4.3C-426.1,605.6-427.6,607.2-429,607.2z M-425.8,593.5v3.6h-3.1
	c-0.2-3.6-0.2-14.8-2.5-22.2l0,0c0-0.2,0-0.2-0.2-0.4l0,0c-0.2-0.2-0.4-0.4-0.7-0.4c0,0,0,0-0.2,0h-0.2l0,0c0,0-0.2,0-0.2,0.2
	l-0.2,0.2l0,0c0,0.2-0.2,0.2-0.2,0.4l0,0c0,0.4-2,9.9-2.2,15.5h-20.2c-0.2-5.6-1.8-15-1.8-15.5l0,0v-0.2v-0.2c0,0,0,0-0.2-0.2
	c0,0,0,0-0.2-0.2c0,0,0,0-0.2,0h-0.2l0,0h-0.2h-0.2l0,0h-0.2c0,0,0,0-0.2,0l-0.2,0.2c0,0,0,0,0,0.2v0.2v0.2l0,0
	c-1.1,7.2-2,18.6-2.5,22.2h-2.7v-0.4c-0.2-8.1-0.4-11.2-0.4-17.5c0-2.9,0.7-8.1,1.3-9.4c1.3,0.7,2.9,1.1,4.5,1.1
	c1.8,0,4.9-0.9,7.2-1.8l5.8,7.6c0.2,0.2,0.4,0.4,0.9,0.4c0.2,0,0.7-0.2,0.9-0.4l5.8-7.8c2.2,0.7,4.9,1.3,6.7,1.3
	c1.3,0,3.1-0.4,4.5-0.9l0,0c1.3,1.8,2.2,6.3,2.2,9.9C-425.4,585-425.6,587.7-425.8,593.5z"/>
<path d="M-450.5,532.5c0,0.9-0.7,1.6-1.6,1.6s-1.6-0.7-1.6-1.6s0.7-1.6,1.6-1.6S-450.5,531.9-450.5,532.5L-450.5,532.5z"/>
<path d="M-439.3,532.5c0,0.9-0.7,1.6-1.6,1.6s-1.6-0.7-1.6-1.6s0.7-1.6,1.6-1.6C-440,531-439.3,531.9-439.3,532.5L-439.3,532.5z"/>
<g>
	<g>
		<path d="M-356,536.8c-0.7-0.4-1.6-0.7-2-0.4V531c0-1.1,0.2-6.3-0.9-8.3c-0.7-1.1-1.6-1.6-2-1.8c-0.2,0-0.2-0.2-0.4-0.2
			c-0.2-0.2-0.4-0.7-0.7-2.2c0-1.3-1.6-2-2.7-1.3s-4,2.2-10.3,1.8c-10.8-0.4-12.6,8.5-12.6,8.7s0,4.3,0,8.5c-0.4,0-1.1,0-1.8,0.4
			c-0.9,0.7-1.3,1.6-1.6,2.9c-0.2,3.4,2.7,5.4,3.4,5.8c0.7,4,4.9,13.7,14.6,13.7c10.3,0,14.8-8.7,14.8-13.2v-0.2c0.2,0,0.2,0,0.4,0
			c0.2,0,3.6-2,3.4-5.8C-354.4,538.3-355.1,537.4-356,536.8z M-375,521.1c5.8,0.2,9.2-0.7,11-1.8c0.2,1.3,0.7,2.2,1.3,2.9
			c0.2,0.2,0.7,0.4,0.9,0.4c0.4,0.2,0.7,0.2,1.1,0.9c0.7,0.9,0.7,4.7,0.7,7.2v2c-3.1-1.6-3.8-4.5-3.8-6.1c0-0.7-0.2-1.6-1.1-1.8
			c-0.4,0-1.1,0.2-1.3,0.7c-1.6,2.5-3.1,3.8-6.1,4c-2.2,0.2-3.4-0.7-4.9-1.8c-0.4-0.4-1.1-0.9-1.8-1.1c-0.2-0.2-0.7-0.2-0.9-0.2
			c-0.2,0-0.4,0.2-0.7,0.7c-1.1,2.2-3.1,3.6-4.5,4.3c0-2,0-3.6,0-3.6C-385.1,527.6-383.8,520.6-375,521.1z M-388,538.6
			c0.2,0,0.4-0.2,0.4,0c0,1.6,0,2.9,0,4c-0.7-0.7-1.1-1.6-1.1-2.7C-388.5,539.2-388.2,538.8-388,538.6z M-372.8,556.9
			c-9.4,0-12.3-10.3-12.6-12.1c0-1.3,0-6.5,0-10.8c1.3-0.4,4-1.8,5.8-4.7c0.2,0.2,0.4,0.2,0.7,0.4c1.6,1.1,3.1,2.2,6.3,2
			c3.1-0.2,4.9-1.6,6.5-3.1c0.4,2,1.8,5.2,5.8,6.5V546C-360.2,548.4-363.1,556.9-372.8,556.9z M-358,543v-4.7l0,0c0,0,0.4,0,0.7,0.2
			c0.3,0.2,0.4,0.7,0.4,1.3C-356.4,541.5-357.3,542.6-358,543z"/>
		<path d="M-372.6,546c-1.8,0-2.7-1.6-2.9-2.5c-0.2-0.7,0.2-1.1,0.9-1.3s1.1,0.2,1.3,0.9c0,0,0.2,0.7,0.7,0.7s0.7-0.7,0.7-0.7
			c0-0.7,0.7-0.9,1.3-0.9s1.1,0.7,0.9,1.3C-369.6,544.4-370.5,546-372.6,546z"/>
		<path d="M-372.1,552.5c-2.5,0-4.3-1.1-4.5-1.1c-0.4-0.2-0.7-1.1-0.4-1.6c0.2-0.4,1.1-0.7,1.6-0.4c0.2,0,3.1,1.8,6.3,0
			c0.4-0.2,1.1,0,1.6,0.4c0.2,0.4,0,1.1-0.4,1.6C-369.4,552.2-371,552.5-372.1,552.5z"/>
		<circle cx="-377.9" cy="537.4" r="1.3"/>
		<circle cx="-367.6" cy="537.4" r="1.3"/>
		<path d="M-359.6,605.1h-25.8c-0.7,0-1.1-0.4-1.1-1.1v-4c0-0.7,0.4-1.1,1.1-1.1h26c0.7,0,1.1,0.4,1.1,1.1v4
			C-358.4,604.5-358.9,605.1-359.6,605.1z M-384.2,602.9h23.8v-1.8h-23.8V602.9z"/>
		<path d="M-384.9,612.3c-0.4,0-0.9-0.2-1.1-0.7c-0.2-0.7,0-1.1,0.7-1.3c0.9-0.2,2.5-3.8,3.1-6.5c0.2-0.7,0.9-0.9,1.3-0.7
			c0.7,0.2,0.9,0.7,0.7,1.3c-0.4,1.6-2.2,7.2-4.5,8.1C-384.4,612.3-384.7,612.3-384.9,612.3z"/>
		<path d="M-359.8,611.9h-0.2c-2.9-0.7-4.7-6.5-5.2-7.6c-0.2-0.7,0.2-1.1,0.7-1.3c0.7-0.2,1.1,0.2,1.3,0.7c0.9,2.7,2.5,5.8,3.6,6.1
			c0.7,0.2,0.9,0.7,0.9,1.3C-358.9,611.4-359.3,611.9-359.8,611.9z"/>
		<path d="M-377,607.8c-0.7,0-1.1-0.4-1.1-1.1V600c0-0.7,0.4-1.1,1.1-1.1s1.1,0.4,1.1,1.1v6.7C-375.9,607.4-376.4,607.8-377,607.8z"
			/>
		<path d="M-368.1,607.8c-0.7,0-1.1-0.4-1.1-1.1V600c0-0.7,0.4-1.1,1.1-1.1c0.7,0,1.1,0.4,1.1,1.1v6.7
			C-366.9,607.4-367.4,607.8-368.1,607.8z"/>
		<path d="M-385.3,601.1c-0.7,0-1.1-0.4-1.1-1.1c0-5.2-3.6-24.7-3.6-24.9c0-0.7,0.2-1.1,0.9-1.3c0.7,0,1.1,0.2,1.3,0.9
			c0.2,0.9,3.6,19.9,3.6,25.3C-384.2,600.4-384.9,601.1-385.3,601.1z"/>
		<path d="M-359.6,601.8c-0.7,0-1.1-0.4-1.1-1.1c0-5.4,3.1-24.7,3.4-25.6c0-0.7,0.7-1.1,1.3-0.9c0.7,0,1.1,0.7,0.9,1.3
			c0,0.2-3.4,19.9-3.4,25.1C-358.4,601.1-358.9,601.8-359.6,601.8z"/>
		<path d="M-376.8,559.9c-6.9-0.9-12.3,0.4-15.9,4c-5.4,5.4-4.5,13.4-4.5,13.7c0,0.7-1.1,14.8,1.8,24c0,0.2,0.2,0.2,0.2,0.2
			c-0.9,0.9-1.6,2.5-1.6,4c0,2.7,0.7,4.5,4.5,4.5c3.8,0,4.5-1.6,4.5-4.5c0-1.6-0.4-2.9-1.3-3.8c0.2-0.2,0.4-0.4,0.4-0.7
			c0-0.4,2-13.7,1.8-21.1c0-0.7-0.7-1.1-1.1-1.1c-0.7,0-1.1,0.4-1.1,1.1c0.2,6.1-1.1,16.6-1.6,19.7h-3.1c-2.2-8.7-1.3-22.2-1.3-22.4
			c0,0-0.7-7.4,3.8-11.9c3.1-2.9,7.8-4,14.1-3.4c0.7,0,1.1-0.4,1.3-0.9C-375.9,560.5-376.4,560.1-376.8,559.9z M-392.5,608
			c-2.2,0-2.2-0.4-2.2-2.2s1.1-3.1,2.2-3.1s2.2,1.6,2.2,3.1C-390,607.6-390,608-392.5,608z"/>
		<path d="M-349,601.3c2.7-9,1.8-23.3,1.8-23.8c0-0.4,0.7-9.4-5.4-14.6c-3.6-3.1-8.7-4.3-15.2-3.1c-0.7,0-1.1,0.7-0.9,1.3
			c0,0.7,0.7,0.9,1.3,0.9c5.8-1.1,10.3-0.2,13.4,2.7c4.9,4.5,4.5,12.8,4.5,13c0,0.2,0.9,13.7-1.3,22.4h-2.9
			c-0.4-3.4-2-14.8-1.8-21.1c0-0.7-0.4-1.1-1.1-1.1s-1.1,0.4-1.1,1.1c-0.2,7.4,1.8,21.7,2,22.4c0,0.4,0.2,0.7,0.7,0.9
			c-0.7,1.1-1.1,2.5-1.1,3.8c0,2.9,0.7,4.3,4.5,4.3c3.6,0,4.7-1.1,4.7-4.3c0-1.8-0.7-3.4-1.8-4.3C-349.2,601.5-349,601.5-349,601.3z
			 M-352.2,608c-2.2,0-2.2-0.2-2.2-2s1.1-3.4,2.2-3.4c1.3,0,2.5,1.6,2.5,3.4S-349.7,608-352.2,608z"/>
	</g>
	<path d="M-354.2,658.5l-5.2-4.5l0.9-50c0-0.7-0.4,0-1.1,0s-1.1,0.4-1.1,1.1l-0.9,48.6h-4.9c-2.2-27.6-3.8-35-4.9-37V600
		c0-0.7-0.4-1.1-1.1-1.1s-1.1,0.4-1.1,1.1v16.8c-0.9,2.2-2,9.9-3.4,37h-4.7l0,0l-2.5-49.3c0-0.7-0.4-1.1-1.1-1.1s-1.1,0.4-1.1,1.1
		l2.5,50l-4.9,4.3c-0.4,0.2-0.4,0.9-0.2,1.3c0.2,0.4,0.7,0.7,1.1,0.7h12.6c0.2,0,0.7-0.2,0.9-0.4s0.2-0.7,0.2-0.9l-0.7-3.8
		c0-0.2,0.2-0.2,0.2-0.4c0.7-13.4,1.6-28,2.5-34.3c1.1,6.3,2.7,20.8,3.8,34.3c0,0.2,0.2,0.4,0.2,0.7l-0.2,3.6c0,0.2,0,0.7,0.2,0.9
		c0.2,0.2,0.4,0.4,0.9,0.4h12.6c0.4,0,0.9-0.2,1.1-0.7C-353.5,659.6-353.7,658.9-354.2,658.5z M-385.1,658.3l1.6-1.3
		c0.2,0.4,0.7,0.7,1.1,0.7c0.9,0,1.3-0.7,1.3-1.3V656h3.8l0.4,2.2C-376.8,658.3-385.1,658.3-385.1,658.3z M-366.3,658.3l0.2-2.2h4.7
		v0.2c0,0.9,0.7,1.3,1.3,1.3c0.4,0,0.7-0.2,0.9-0.4l1.1,1.1L-366.3,658.3L-366.3,658.3z"/>
	<path d="M-363.8,563.4l-3.1-3.1v-3.6c0-0.7-0.7-0.7-1.1-0.7c0,0-0.9,0.4-1.1,0.7v4l-1.6,3.4h-3.8l-1.3-3.4v-3.4
		c0-0.7-0.4-1.1-1.1-1.1s-1.1,0.4-1.1,1.1v3.6l-2.5,2.7c-0.2,0.2-0.4,0.7-0.2,1.1l2.7,8.3c0.2,0.4,0.7,0.9,1.3,0.7l2.9-0.4l-2.7,8.7
		c0,0.2,0,0.4,0,0.7l3.4,13.2c0.2,0.4,0.7,0.9,1.1,0.9c0.4,0,0.9-0.4,1.1-0.9l3.4-13.2c0-0.2,0-0.4,0-0.7l-2.9-8.7l2.7,0.4h0.2
		c0.4,0,0.9-0.2,1.1-0.7l2.9-8.5C-363.6,564.3-363.6,563.9-363.8,563.4z M-371.7,566.4l-0.9,2.5l-0.9-2.5H-371.7z M-378.6,564.8
		l1.3-1.3l1.1,2.5l0,0l2.2,5.4l-2.5,0.4L-378.6,564.8z M-372.3,591.2l-2.2-8.7l2.2-6.7l2.2,6.7L-372.3,591.2z M-368.5,571.5
		l-2.2-0.4l1.6-4.9l1.6-3.1l1.6,1.8L-368.5,571.5z"/>
</g>
<g>
	<path d="M-198.9,701.6c-0.4-0.8-5.8-0.5-6.6-0.5c-2.8-0.2-5.7-0.4-8.5-0.6c-0.2,0-0.6,0-0.7,0.2c-0.2,0.4-0.4,0.8-0.6,1.2
		c-1.5,0.1-3,0.2-4.5,0.3h-0.1c0-0.1,0-0.1,0-0.3c-0.3-0.7-0.5-1.4-0.8-2.1c-1.2-3.2-2.3-6.5-3.5-9.7c4.5-1.6,8.9-3.2,13.4-4.8
		c0.1,0,0.5-0.2,0.5-0.4c-2.7-6.5-5.4-12.9-8.1-19.4c-0.3-0.8-2.8-5.8-2.5-6.2c2.2-2.6,4.5-5.2,6.7-7.8c0.1-0.1,0-0.2-0.1-0.2
		c-3.1-0.5-6.1-1-9.2-1.5l-3.2-17.4c5.4-3.6,10.8-7.3,16.3-10.9c-4.7,0.8-9.4,1.7-14.1,2.5c-0.1,0-0.9,0-0.7-0.2
		c2.8-4.2,5.5-8.4,8.3-12.5c-3.3,1.8-6.6,3.7-9.9,5.5c-0.1,0.1-1.1,0.2-1-0.2c1.5-3.5,3-7.1,4.5-10.6c-1,0.9-1.9,1.7-2.9,2.6
		c-12.8,11.3-25.5,22.5-38.3,33.8c-1.6,1.4-3.1,2.7-4.7,4.1c-0.4,0.4-0.3,0.1,0.1,0.5c0.9,0.9,1.9,1.9,2.8,2.8
		c4.8,4.7,9.5,9.4,14.3,14.2c0,0.4,0,0.7,0.1,1.1c0.1,1.1,0.5,2.1,1,2.8c0.4,0.7,1,1.3,1.7,1.7c0.8,0.4,2.1,0.6,3.7-0.6l15.1,34.7
		l-2.9,2.1c-0.2-0.1-0.5-0.3-0.7-0.4c-0.3-0.1-0.8-0.1-1,0.1c-2,1.7-3.9,3.5-5.9,5.2c-0.6,0.5-5.3,3.8-5.1,4.6
		c0.8,4.3,1.6,8.6,2.4,12.9c2.1,11.7,4.3,23.3,6.4,35c0.1,0.3,1.2,0.2,1.2-0.1c-2.6-14.2-5.2-28.4-7.8-42.7c-0.3-1.8-0.6-3.5-1-5.3
		c0-0.1,2.2-1.8,2.5-2.2c1.8-1.6,3.6-3.2,5.4-4.8c0.8-0.7,1.7-1.5,2.5-2.2c0.1,0,0.1,0.1,0.2,0.1c0.8,0.4,1.7,0.9,2.5,1.3
		c3.6,1.9,7.1,3.8,10.7,5.7c0.1,0.1,0.2,0.1,0.4,0.2c0.2,0.1,0.9,0.1,1.1-0.2c1.5-3.1,2.9-6.2,4.4-9.3c0.4-0.8,0.7-1.6,1.1-2.3
		c0.2-0.4,0.3-0.6,0.4-0.7c1.3,0.1,2.6,0.2,3.9,0.3c2.2,0.2,4.5,0.3,6.7,0.5c0.8,0.1,1.7,0.1,2.5,0.2c0.2,0,0.4,0,0.6,0
		c0.9,1.5,1.7,3.1,2.6,4.6c6.9,12.4,13.9,24.7,20.8,37.1c0.2,0.3,1.3,0.1,1.1-0.2c-5.8-10.4-11.7-20.8-17.5-31.1
		C-194.9,708.7-196.9,705.2-198.9,701.6z M-220.4,712.7c-3.9-2.1-7.8-4.2-11.7-6.2l3.2-2.3l-15.7-36.3l-0.3-0.8l-0.6,0.6
		c-1.1,1.1-2.1,1.4-3,1c-0.3-0.1-0.5-0.3-0.7-0.6c-0.6-0.7-1.1-1.9-1.3-2.9c0-0.3-0.1-0.5-0.1-0.8c1.1-0.7,2.3-1.5,3.3-2.3
		c2.2,0,4.2,0.4,4.2,0.4l0.1-0.4c0.4-0.1,0.8-0.4,0.5-0.5c-0.1,0-0.2,0-0.4-0.1v-0.2c-0.1,0-1.6-0.3-3.4-0.4
		c0.1-0.1,0.2-0.3,0.3-0.4c0.1-0.2,0.3-0.4,0.4-0.6l-2.3,1c0,0,0,0-0.1,0l0.4-0.2l-6.1-10l26.3-16.5l2.8,15.5
		c-1.4-0.2-2.8-0.4-4.1-0.7c-0.3,0-1.3,0.5-0.9,0.6c4.5,0.7,9.1,1.4,13.6,2.2c0.8,0.1,0.9-0.1,0.7,0.2c-0.7,0.9-1.5,1.7-2.2,2.6
		c-1.5,1.7-2.9,3.3-4.4,5v0.1c3.3,7.8,6.5,15.6,9.8,23.4c0.2,0.6,0.5,1.1,0.7,1.7c0.1,0.1,0.1,0.2,0.1,0.3c-1.5,0.5-3,1.1-4.6,1.6
		c-2.9,1.1-5.9,2.1-8.8,3.2c-0.2,0-0.4,0.1-0.5,0.2c-0.9,0.3-1.8,0.7-2.7,1c-0.6,0.2-0.5,0.7,0.2,0.4c0.9-0.3,1.8-0.6,2.7-1
		c1.4,4,2.9,8,4.3,12c0.1,0.2,0.4,0.2,0.6,0.2c1.6-0.1,3.2-0.2,4.8-0.4C-217.1,705.8-218.8,709.3-220.4,712.7z M-199.8,701.9
		C-199.6,702-199.7,702-199.8,701.9L-199.8,701.9z"/>
	<path d="M-229.6,645.6L-229.6,645.6c0.1,0.1,0.2,0.3,0.3,0.5c0.2,0.2,1,0,1.1-0.3c0.2-0.7,0.1-1.2-0.5-1.2c-0.2-0.1-0.7,0-0.9,0.2
		l0,0c0,0,0,0,0,0.1v0.1c-0.1,0.1-0.2,0.2-0.2,0.3s0,0.1,0,0.2C-229.9,645.6-229.8,645.6-229.6,645.6z"/>
	<path d="M-234.3,649.6c0.2,0,0.9-0.1,0.8-0.4c0,0,0,0,0-0.1c0.3-0.1,0.4-0.2,0.3-0.3c-0.1-0.1-0.3-0.3-0.4-0.3c0-0.3,0-0.5-0.1-0.8
		c0-0.2-0.6-0.1-0.8-0.1c-0.2,0.1-0.5,0.2-0.7,0.2c-0.1,0-0.5,0.2-0.3,0.4c0.1,0.1,0.2,0.2,0.4,0.3l-0.1,0.1
		c-0.2,0.1-0.4,0.2-0.4,0.3s0,0.1,0,0.2l0.1,0.1C-235,649.6-234.9,649.6-234.3,649.6z"/>
	<path d="M-226.7,683.7c2.2,0.3,3-1.3,3.2-3.1c1.2,0.2,2.4,0.2,3.7-0.1c0.8-0.1,0.2-0.5-0.3-0.4c-1.1,0.2-2.2,0.2-3.3,0
		c0-0.1,0-0.2,0-0.3c0-0.3-1.1-0.3-1.2,0l0,0c-1.8-0.4-3.6-1.2-5.4-1.8c-0.1,0-1.1-0.1-1,0.2C-230.4,680.3-229.1,683.4-226.7,683.7z
		 M-229.6,678.9c1.6,0.6,3.3,1.2,5,1.5c-0.2,1.8-1.1,3.8-3.2,1.8C-228.7,681.3-229.2,680.1-229.6,678.9z"/>
	<path d="M-226.4,660.6c0.2-0.5,0.2-0.4,0.1-1c-0.1-0.3-1.1,0.2-1,0.5c0,0.2-0.1,0.4-0.1,0.7C-227.6,661.3-226.5,660.9-226.4,660.6z
		"/>
	<path d="M-222.5,723.2c-0.1-0.3-0.9-0.2-1.1-0.1c-3.6,2-7.3,4-10.9,6c0,0,0,0-0.1,0l0,0c-0.1,0-0.1,0.1-0.1,0.1s0,0,0,0.1
		c1.9,5.4,3.9,10.9,5.8,16.3c0,0.1,0.2,0.1,0.3,0.1c2.7,0.5,5.4,0.9,8.1,1.4c0.2,0,0.8,0.1,0.9-0.1c0.9-2.2,1.9-4.4,2.8-6.6
		c0.6-1.5,1.6-2.5,0.9-3.9C-218.1,732.1-220.3,727.7-222.5,723.2z"/>
</g>
<path id="XMLID_163_" d="M-430.5,428.3c-0.5-1.5-1.7-2.3-2.9-2.2c-1.4,0.1-2.4,0.9-3.3,1.9c-0.6,0.7-0.6,0.7-1.2,0
	c-1.7-2.2-3.7-3.5-6.6-2.8c-0.3,0.1-0.6,0-1-0.2c-2.7-1.5-5.4-3-8.1-4.5c-0.8-0.4-1.5-0.9-2.4-1.3c-0.6-0.3-1.2-0.2-1.7,0.4
	c-0.4,0.6-0.4,1.3-0.1,1.8c0.1,0.2,0.3,0.4,0.6,0.3c0.3-0.1,0.2-0.3,0.2-0.5c0.1-1,0.4-1.2,1.3-0.7c0.8,0.5,1.7,1,2.5,1.4
	c2.2,1.2,4.4,2.4,6.5,3.7c0.4,0.3,0.6,0.4,0.1,0.9c-0.6,0.6-1.1,1.3-1.1,2.2c-0.1,2.5,0.4,4.9,1.2,7.2c0.3,1,0.3,1-0.8,1
	c-2-0.1-4-0.3-6-0.2c-0.5,0-0.7-0.1-0.6-0.7c0.2-1.8,0.3-3.6,0.1-5.4c-0.2-2-0.5-4-1.9-5.6c-0.9-1-1.9-1.9-3.1-2.4
	c-2.1-0.7-5,0.3-6,2.8c-0.3,0.8-0.6,1.5-1.3,2.2c-0.2-0.4-0.3-0.7-0.6-1c-1.5-2-3.1-4.1-5.9-4.4c-3.3-0.4-5.1,0.5-5.7,3.7
	c-0.6,3-0.1,6.1,0.7,9.1c0.1,0.3,0.3,0.6,0.2,1.1c-1.2-0.8-2.2-1.6-3.3-2.4c-2-1.6-4.3-2.8-6.3-4.4c-2.8-2-6-3.4-9.3-4.4
	c-0.8-0.3-1.6-0.2-2.4,0.1c-0.7,0.3-0.7,0.8-1,1.3c-0.8,1.4-0.4,2.6,0.2,3.9c0.7,1.4,1.8,2.6,2.7,3.9c0.3,0.5,0.9,0.6,1.4,0.4
	c0.6-0.3,0.8-0.8,0.6-1.3c-0.2-1-0.6-1.9-1.3-2.7c-0.6-0.6-1.1-1.4-1.3-2.3c-0.1-0.4-0.1-0.7,0.5-0.8c0.8-0.1,1.6,0.2,2.2,0.5
	c3.4,1.7,6.5,4,9.8,6c3.9,2.5,7.4,5.7,11.1,8.5c0.1,0.1,0.2,0.3,0.3,0.4c1.8,2.3,3.5,4.7,5.8,6.6c1.4,1.2,2.7,2.4,4.6,2.6
	c0.9,0.1,1.5-0.1,2-0.8c2.5-3.1,4.1-6.7,5.7-10.4c0.4-1.1,0.5-1.1,1.7-1.2c2.1-0.1,4.2,0.3,6.3,0.1c1.8-0.1,2.8,0.4,3.7,2
	c1.5,2.6,3.6,4.8,5.6,7c0.9,1,1.5,0.9,2.5,0c1.2-1.1,1.9-2.4,2.6-3.8c1.5-3.3,2.5-6.9,2.9-10.5
	C-429.6,432.4-429.8,430.3-430.5,428.3z M-457,437c-0.2,1.3-0.6,2.5-1,3.8c-0.5,2.1-1.7,3.9-2.7,5.8c-0.1,0.2-0.3,0.3-0.4,0.5
	c-1.1,1.6-3.2,1.2-4.1-0.1c-1.9-2.4-3.8-4.7-5.5-7.2c-1.3-1.9-2.1-3.8-2.8-6c-0.3-1-0.6-1.9-0.7-2.9c-0.1-1.3,0.1-2.5,0.8-3.6
	c0.6-0.9,1.1-1,2-0.4c1.2,0.8,2,1.9,2.8,3.1c0.4,0.5,0.8,1,1.3,1.5c0.6,0.6,1,1.3,1.4,2.1c0.5,0.8,0.9,0.8,1.3-0.1
	c0.5-1,0.6-2.1,0.9-3.1c0.4-1.3,0.8-2.6,1.8-3.7c0.9-1.1,2-1.1,3-0.1c0.9,0.9,1.4,2,1.9,3.2c0.2,0.5,0.1,1,0.1,1.4
	C-456.6,433.1-456.7,435.1-457,437z M-433.4,440.7c-0.6,1.8-1.2,3.5-2.3,5.1c-0.4,0.6-0.7,1-1.5,0.3c-1-0.8-1.7-1.9-2.4-2.9
	c-1.2-1.9-2.4-3.9-3.3-6c-0.8-2.1-1.7-4.2-1.7-6.5c0-0.3,0.1-0.6,0.1-0.8c0.1-1.3,0.5-1.8,1.5-2c1.2-0.3,2.1,0.1,2.8,1.1
	c0.9,1.2,1.7,2.4,2.4,3.8c0.2,0.3,0.5,0.4,0.8,0.1c0.2-0.3,0.3-0.5,0.4-0.8c0.1-0.5,0.3-1,0.5-1.3c0.6-1.2,2.2-1.5,3.3-0.8
	c0.3,0.2,0.3,0.4,0.3,0.8C-432.1,433.8-432.3,437.3-433.4,440.7z"/>
<g id="XMLID_115_">
	<path id="XMLID_145_" d="M-563.6,741c-0.1-2,0-4-0.7-5.8c-1.6-3.6-4.1-6.8-6.6-9.8c-2.6-3.2-5.7-5.9-8.7-8.9
		c-4.8-4.9-10.3-9.1-16.6-12.1c-2.6-1.2-5.3-2.5-8.4-2.2c-4.7,0.4-8.5,2.6-12.4,4.9c-1,0.6-1.7,1.1-2.3-0.4
		c-1.2-2.6-3.3-4.5-5.6-6.2c-4-3-8.3-4.7-13.2-5.1c-4.7-0.4-8.9,1.1-12.7,3.7c-2.8,2-5.9,4.1-5.9,8.3c0,0.9,0.2,1.7,0.1,2.6
		c-0.7,4.5,0.9,8.5,2.2,12.5c1.2,3.5,3.3,6.7,6.6,8.9c0.9,0.6,1.6,1.4,0.4,2.6c-0.5,0.6-1.2,1-1.7,1.7c-1.9,3.2-3.2,6.4-2.5,9.8
		c0.1,4.9,1.2,9.1,2.6,13.4c1.6,5.2,4.7,9.5,7.7,14c2.2,3.5,5.4,5.9,8.4,8.7c3.2,3,7,5.2,11,6.9c4.7,2.1,9.5,3.2,14.7,2.3
		c6.6-1.1,11.7-4.9,16.3-9.5c3.3-3.5,6.1-7.3,8.9-11.2c4-5.6,8.8-10.5,12.7-16.1C-566.6,750.2-563.2,746.4-563.6,741z M-565.8,742.4
		c-0.4,4.9-3.5,8.3-6.2,11.9c-3.8,4.9-8.2,9.6-11.7,14.8c-4.3,6.2-8.9,12.2-15.5,16.3c-4.5,2.8-9.3,4.5-14.7,3.5
		c-8-1.5-14.5-5.6-20.3-11.1c-5.3-4.9-9.1-10.9-12-17.4c-2.3-5.2-2.8-10.8-3.6-16.2c0.5-3.2,1.2-6.3,4-8.5c0.9-0.7,1.4-2,2-3
		c0.2-0.5,0.2-0.9-0.4-1.2c-2.5-1.2-4.5-3.1-5.9-5.3c-3.2-5.1-4.6-10.6-4.7-16.7c0-4.2,2.6-6.7,5.7-8.8c6.4-4.3,13-4.1,19.8-0.6
		c3.3,1.7,6.1,4.1,8.2,7.2c0.4,0.5,0.5,1,0.7,1.6c0.5,1.6,1.6,2,3,1c2.2-1.6,4.6-3,7-4.2c4-2,7.9-2.5,12.1-0.6
		c6.3,2.7,11.7,6.7,16.4,11.5c2.8,3,6.1,5.8,8.7,9c2.1,2.6,4.3,5.1,5.9,8C-565.9,736.4-565.7,739.3-565.8,742.4z"/>
	<path id="XMLID_141_" d="M-574.1,731.2c-0.1-0.1-0.4-0.2-0.6,0c5.4,6.8,4.2,8.5,3,10.3c-4.2-6.2-8.9-12-14.6-16.8
		c-5.6-4.8-9.6-11.4-16.6-14.7c2-0.6,3.6-0.1,5.1,1c0.5,0.4,0.9,1,1.4,0.4s-0.1-1.2-0.6-1.5c-1.1-0.6-2.2-1.4-3.5-1.7
		c-1.9-0.5-4-0.7-5.3,0.9c-1.1,1.2-0.9,3.1-0.1,4.6c1.1,2.3,2.5,4.5,4.1,6.6c2.8,3.7,6.2,6.8,9.1,10.3c3.1,3.6,6.2,7,10,9.9
		c2.6,2,5.3,3.8,8.7,4.5c2.8,0.5,4.5-0.7,4.7-3.7C-568.9,736.6-571.3,733.8-574.1,731.2z M-604.3,712.5c2.5,0.2,3.6,1.9,5.1,3.2
		C-600.7,714.5-603.2,714.9-604.3,712.5z M-596.2,718.1c3.2,3,7,5.3,8.5,9.9C-590.5,724.6-593.3,721.3-596.2,718.1z"/>
	<path id="XMLID_138_" d="M-624.5,711c-0.4-0.6-0.7-1.2-1.2-1.9c-3-3.7-6.6-6.2-11.1-6.6c-2.6,0.1-4.9,0.7-6.8,2.1
		c-3.6,2.7-5.8,5.9-4.7,11.1c0.9,4,2.8,7,5.3,10c1.6,1.9,3.6,2,5.6,0.7c1-0.6,2-1.5,2.8-2.2c3-2.8,5.9-5.8,9.1-8.4
		C-623.7,714.4-623.3,713.1-624.5,711z M-626.9,714.5c-2.8,2.2-5.6,4.6-8.2,7c-1.1,1.1-2.1,2.3-3.3,3.2c-1.2,0.9-2.6,1-3.6-0.2
		c-1.5-2-3.2-3.8-4-6.3c-0.5-1.6-0.7-3.3-1-4.5c0-3.5,2.7-7,5.7-8.4c4.3-2,7.7-0.4,11,2.2c1.7,1.4,2.8,3,3.8,4.8
		C-625.9,713.3-626,713.9-626.9,714.5z"/>
	<path id="XMLID_135_" d="M-619.8,755.8c-1.9-2-2.1-3.2-0.9-4.7c0.7-0.9,1.6-1.7,2.5-2.5c1.1-1,1.6-0.9,2.3,0.4
		c0.2,0.4,0.6,0.9,1.2,0.6c0.6-0.3,0.5-0.7,0.4-1.2c-0.4-2.1-2.3-3-4.1-2c-0.4,0.2-0.9,0.5-1.1,0.9c-0.5,0.6-1.1,0.7-2,1.2
		c0.2-0.7,0.4-1.2,0.6-1.6c0.9-1.2,0.5-2.6,0-3.8c-0.7-2-4-2.7-5.2-1.1c-0.9,1.1-2.1,2.1-2.7,3.5c-0.7,1.6-0.2,3.1,0.6,4.5
		c0.7,1.2,1.9,1.2,3,1.2c0.7,0,1.2-0.4,2.1-0.7c-0.1,0.7-0.1,1.4-0.2,1.9c-0.2,2.2,0.6,3.7,2.6,4.6c0.5,0.2,1.1,0.7,1.6,0.1
		C-618.6,756.4-619.5,756.2-619.8,755.8z M-621.9,745.5c-0.1,1.4-0.5,2.8-2,3.7c-0.7,0.4-1.4,1.1-2.2,0.4c-0.9-0.7-1.4-1.9-1-2.7
		c0.4-1.5,1.2-2.7,2.5-3.7c0.2-0.2,0.5-0.2,0.9-0.1C-622.8,743.1-621.7,744.2-621.9,745.5z"/>
	<path id="XMLID_132_" d="M-617.6,732.8c-0.1,0.4-0.6,0.7-0.9,1.2s-0.4,1,0.1,1.4s1,0.1,1.5-0.2c0.5-0.5,1-1,1.4-1.5
		c0.9-0.9,1.5,0,2,0.4c0.6,0.5-0.1,0.9-0.5,1.1c-0.6,0.6-1,1.4-1.7,1.9c-0.5,0.4-0.7,1-0.2,1.5s0.9,0.2,1.4-0.1c1.1-0.9,2-1.9,3-2.8
		c1.7-1.6,2.8-3.6,3-5.3c0.1-2.1-0.9-2.7-2.1-2.2c-1.1,0.5-2.2,1.5-3.3,1.9C-615.6,730.4-617,731.1-617.6,732.8z M-612.9,731.2
		c0.7-0.6,1.6-1,2.6-1.5c0.6,1.6-0.6,2.3-1.2,3.1c-0.4,0.5-1.2,0.1-1.6-0.5C-613.7,731.8-613.4,731.6-612.9,731.2z"/>
	<path id="XMLID_129_" d="M-603.9,758.9c0-1.9-1.7-3-3.7-2.5c-2.2,0.5-5.4,3.7-5.8,6.1c-0.1,0.6-0.2,1.2,0.5,1.5
		c0.7,0.2,1-0.4,1.4-0.7c0.9-1.1,1.6-1.1,2.8-0.2c1,0.7-0.2,1.1-0.4,1.6c0,0.1-0.1,0.2-0.2,0.4c-0.2,0.6-0.5,1.1,0.4,1.5
		c0.6,0.4,1.1,0.1,1.5-0.5c0.5-0.7,1.1-1.4,1.5-2.1C-605.3,762.2-603.6,760.9-603.9,758.9z M-607.7,762.5c-0.7,0-1.9-1.5-1.9-2.3
		c0-0.7,1.2-1.9,2.1-1.7c0.7,0.2,1.7,0.2,1.7,1.2C-605.9,760.6-607.1,762.5-607.7,762.5z"/>
	<path id="XMLID_126_" d="M-620.1,730c1-1.4,2.1-1.6,3.7-1.2c2.1,0.5,4.1-1.1,4.1-3.3c0.1-0.9-1.1-1.5-1-2.3c0-0.6,0.1-1.1-0.7-1.4
		c-0.9-0.2-1.4,0.1-1.7,0.7c-0.2,0.5-0.5,1-0.9,1.4c-1.5,1.7-3.5,3-4.9,4.8c-0.6,0.7-1.7,1.6-0.9,2.6
		C-621.4,731.9-620.7,730.7-620.1,730z M-614.8,724.5c0.6,0,0.6,0.5,0.6,1c-0.1,1-0.7,1.5-1.6,1.5c-0.4-0.1-1,0.1-1.1-0.5
		C-616.9,726.2-615.1,724.5-614.8,724.5z"/>
	<path id="XMLID_125_" d="M-599.7,762.1c-0.4,0-0.4,0.4-0.4,0.6c-0.2,1.4-0.5,2.7-0.7,4.1c-0.1,0.5-0.2,1.1-0.9,1s-0.4-0.7-0.5-1.2
		c-0.2-1.6,0.6-3.2,0.6-4.8c0-0.7-0.2-1.1-0.9-1.4c-0.7-0.2-1.1,0.2-1.2,0.9c-0.2,1.4-1.2,2.3-1.9,3.5c-0.4,0.6-1,1.2-1.4,1.9
		c-0.2,0.5,0,1,0.4,1.2c0.5,0.4,0.9,0.2,1.2-0.2c0.2-0.5,0.6-0.9,1-1.5c0.5,1,0.5,1.9,0.5,2.7c0,1,0.6,1.5,1.6,1.1
		c2.2-0.9,4.1-5.1,3.3-7.3C-599.2,762.3-599.4,762.1-599.7,762.1z"/>
	<path id="XMLID_124_" d="M-605.4,745.4c-0.7,0.6-1.4,1.2-2.3,0.5c-0.4-0.2-0.7-0.4-1.1,0s-0.4,0.9-0.1,1.2c0.7,1,1.5,2,2.8,2.2
		c0.6,0.1,1.5,0.4,0.9-0.9c-0.4-0.6,0.2-1,0.6-1.2c1.7-1.6,3.3-3.2,4.7-5.1c0.5-0.5,0.9-0.9,1.6-0.2c0.6,0.5,1,0,1.2-0.5
		c-0.5-1.6-1.5-2.6-2.5-3.6c-0.2-0.2-0.6-0.6-1-0.2c-0.4,0.4-0.5,0.7-0.1,1.1c0.4,0.5,0.5,1.1,0,1.6
		C-602.3,742.1-603.6,743.9-605.4,745.4z"/>
	<path id="XMLID_123_" d="M-612.5,757.3c0.2-0.4-0.1-0.7-0.4-1c-0.3-0.3-0.5-0.5-0.6-0.9c-0.5-0.7-0.2-1.5,0.4-2.1
		c0.7-0.6,1.1-0.2,1.5,0.4c0.2,0.2,0.6,0.4,1,0.2c0.2-0.1,0.4-0.4,0.4-0.6c-0.1-0.9-0.4-1.9-1.2-2.2c-0.6-0.2-1.6-0.6-2.3,0.4
		c-0.6,0.9-1.5,1.4-2.1,2.2c-1,1.4-2.5,2.6-2.6,4.6c0,1.2,1.5,3.3,2.6,3.7c0.4,0.1,0.9,0.1,1.1-0.1c0.4-0.4,0-0.6-0.2-0.9
		c-0.4-0.5-0.7-1.1-1.1-1.6c-0.9-1.1-0.1-2,0.5-2.8c0.6-1,1,0.4,1.5,0.5c0.1,0,0.2,0.1,0.4,0.2
		C-613.3,757.3-612.9,757.8-612.5,757.3z"/>
	<path id="XMLID_122_" d="M-605.5,733.5c-1.5-0.1-2.5,0.4-3.3,1.1c-1.2,1.2-2.2,2.6-2.8,4.2c-0.7,2.2-0.6,3,1.4,4.2
		c0.4,0.2,1,0.9,1.5,0.4s0.1-1.1-0.1-1.6c-1-1.7-0.9-2.6,0.4-4.1c0.4-0.4,0.6-0.7,1-1.1c1.5-1.9,3.1-1.7,4.2,0.2
		c0.1,0.4,0.4,0.6,0.7,0.6c0.4-0.1,0.6-0.4,0.7-0.9c0-0.5,0-1-0.4-1.5C-603.3,733.8-604.6,733.8-605.5,733.5z"/>
	<path id="XMLID_121_" d="M-585.8,750.7c-1.1-1.4-2.3-1.6-3.6-0.2c-1,1-2,2-2.7,3.1c-0.9,1.4-2,2.5-2.3,4.2c-0.1,1.1,2.7,3,3.8,2.5
		c0.1-0.1,0.4-0.2,0.4-0.4s-0.2-0.4-0.5-0.5c-1.7-1.2-1.9-1.6-0.9-3.3c0.5-0.9,1.1-1.7,1.6-2.6c1.6-2.5,2-2.5,3.8-0.4
		c0.2,0.4,0.6,0.7,1.1,0.2c0.4-0.4,0.5-0.7,0.1-1.1C-585.2,751.7-585.5,751.2-585.8,750.7z"/>
	<path id="XMLID_120_" d="M-597.1,745.7c0.4-0.5,0.9-1.1,1.5-1.1c0.7,0.1,1,0.9,1.1,1.9c0.4-0.4,0.6-0.6,0.7-1
		c0.5-1.1-0.2-1.7-1-2.2c-0.6-0.4-1.2-1.5-2.1-0.4c-1.9,2.5-4.6,4.3-6.2,7c-0.5,0.7-1.1,1.6-0.2,2.2c1,0.7,1.4-0.4,1.9-1
		s1-1.5,2-1.1c1.1,0.4,1.1-0.2,0.6-0.9c-0.5-0.9-0.2-1.4,0.4-2C-597.8,746.8-597.5,746.1-597.1,745.7z"/>
	<path id="XMLID_119_" d="M-590,749.1c0.6,0.1,0.9-0.5,0.5-1c-0.6-0.6-1.5-1.2-2.2-1.7c-0.2-0.2-0.6-0.2-1,0s-0.2,0.6-0.1,1
		c0.2,0.5,0.4,1-0.1,1.5c-1.4,1.5-2.7,3-4.2,4.3c-0.6,0.6-1.2,1.4-2.2,0.5c-0.2-0.2-0.5-0.2-0.7,0s-0.4,0.6-0.1,1
		c0.7,0.9,1.6,1.6,2.6,1.7c0.5,0,0.9,0.1,1-0.4c1-2.2,3-3.7,4.5-5.7C-591.7,749.6-591.2,748.9-590,749.1z"/>
	<path id="XMLID_118_" d="M-590,715.7c0.4,0.2,0.9,0.2,1-0.2c0-0.7-3.2-2.8-3.7-2.6s-0.4,0.6-0.1,0.9
		C-592,714.4-591,715.1-590,715.7z"/>
	<path id="XMLID_117_" d="M-581.9,722.2c0.5-0.4,0.1-0.7-0.1-1c-0.6-0.9-1.6-1.4-2.7-1.7c0.6,0.9,1.4,1.6,2,2.5
		C-582.5,722.2-582.1,722.5-581.9,722.2z"/>
	<path id="XMLID_116_" d="M-578.1,727.4c0.1,0.2,0.4,0.1,0.6,0s0.4-0.4,0.2-0.6c-0.6-0.9-1.5-1.5-2.2-2c-0.1,0-0.2,0.1-0.4,0.1
		c-0.1,0.1-0.1,0.4,0,0.5C-579.2,725.9-578.4,726.5-578.1,727.4z"/>
</g>
<g>
	<path d="M-310.4,396.7l-0.7,7.4l-7,4.5l9.1,5.4l4.3,33.4l19.8-4.9l0.5,12.4l-4.2,3.6c0-0.2-0.1-0.4-0.1-0.6l-0.1-1.5l-12.6,14.4
		v0.2l-1.5,27.7l1.2,0.1l0,0l52.8,0.9l0.1,0.2l1.1-0.4l-14-35.3l-8.8-8.3v1.3c0,0.6,0,1,0,1.6l-5.2-4.2l1.3-38.9
		c0.3,0,0.6-0.1,0.9-0.2c0.3-0.1,0.6-0.1,0.9-0.2s0.6-0.2,0.9-0.3c0.2-0.1,0.5-0.2,0.7-0.3c0.3-0.1,0.5-0.2,0.7-0.4
		c0.2-0.1,0.4-0.2,0.6-0.3c0.2-0.1,0.4-0.3,0.6-0.4c0.1-0.1,0.3-0.2,0.5-0.3c0.2-0.1,0.3-0.3,0.4-0.4c0.1-0.1,0.2-0.2,0.3-0.3
		c0.1-0.1,0.2-0.3,0.3-0.4c0.1-0.1,0.2-0.2,0.2-0.3c0.1-0.1,0.1-0.3,0.2-0.4c0-0.1,0.1-0.2,0.1-0.3c0.1-0.2,0.2-0.4,0.2-0.6
		c0.6-2-0.1-4-1.8-5.4c-1.5-1.2-3.5-1.5-5.7-1.1l0.1-1.3c3.6-1.1,6.9-2.8,9.6-5.1c2.3-2.6,3.9-6.3,3.9-9.8c0-3.4-1.3-6.2-3.5-8.3
		c3.6-2.4,3.1-7.4,0.3-11.4c-3.2-4.5-8-9.3-13.1-11.6c-1.9-0.9-4.7-1.7-6.7-0.5c-5.1,3.3-1.2,11.9,1.6,15.9c-4-0.7-7.7-1.1-10.5-1.4
		c-7.1-0.7-14.7-1.4-21.7-0.7c-3.3,0.3-7.9,1.3-9.1,5c-1.2,3.7,0.6,7.7,2.6,10.7C-318.2,390-314.5,393.7-310.4,396.7z M-315.8,408.6
		l6.1-3.9l-0.8-0.2l0.6,0.1l1.2-11.9c4.9,8,13.3,12.3,22.8,12.1c3.4-0.1,7.1-0.6,10.6-1.6l-0.1,1.1c-1,0.3-2.1,0.7-3.1,1.3l0.6,1
		c3.4-1.9,6.7-2.1,8.8-0.5c1.3,1,1.8,2.6,1.4,4.1c-0.7,2.3-3.3,4-7.2,4.4l-0.5,0.1l-1.4,40.5l6.4,5.1c-0.6,18.8-3.4,21.9-5.1,21.9
		l0,0c-4.4,0.1-10.9-16.3-12.5-22.4l5.1-4.4l-0.5-13.2l1-0.2l-0.3-1.1l-20.7,5.1l-4.2-32.7L-315.8,408.6z"/>
	<path d="M-307.5,402.7c-0.1,0-0.5,0-0.5,0.2c0,0.1,0,0.3,0,0.4c0,0.2,0.3,0.2,0.4,0.3h0.1l0,0c0.2,0.1,0.7,0.2,0.9,0.1
		c0.3,0,0.5-0.1,0.6-0.2s0-0.2-0.1-0.2C-306.5,402.8-306.8,402.7-307.5,402.7z"/>
	<path d="M-300.7,405v0.1c0,0.1,0.1,0.2,0.2,0.2l0.1,0.1c0,0.2,0,0.4,0.2,0.6c0.2,0.3,0.8,0.3,1.1,0.1c0.1,0,0.1-0.1,0.2-0.1
		l0.1-0.1v-0.1c0.1,0,0.2,0,0.2-0.1c0-0.2,0-0.5,0-0.7c0,0,0,0-0.1,0l0,0c-0.1-0.2-0.5-0.2-0.6-0.2s-0.1,0-0.2,0l0,0l0,0
		c-0.2,0-0.3,0-0.5,0.1c-0.1,0-0.2,0-0.4,0C-300.5,404.9-300.6,404.9-300.7,405z"/>
	<path d="M-298.8,433.5c-0.8,0.1,0.2,0.5,0.5,0.5c0.8-0.1,1.4-0.3,2.1-0.4c0,0-0.1,0,0,0.1c2.2,3.2,4.5,2.2,3.6-1.7
		c-0.1-0.3-0.9-0.3-1.1-0.2C-295.3,432.8-296.9,433.3-298.8,433.5z M-295.6,433.5c0.7-0.2,1.4-0.6,2-0.9c0.2,1.5,0.3,3.6-1.5,1.1
		C-295.2,433.5-295.4,433.5-295.6,433.5z"/>
</g>
<g>
	<path d="M615.4,496.9c-0.2-0.2-0.5-0.4-0.8-0.6c-5-3.4-10.1-6.8-15-10.2c-5.3-3.7-10.4-7.6-15.7-11.3c-4.3-3-8.3-6.2-12.6-9.1
		c-6.5-4.6-12.9-9.4-19.3-14.2c-6.8-5.1-13.9-9.9-21.2-14.4c-3.8-2.3-7.7-4.5-11.5-6.9c-4.1-2.6-8-5.5-12.4-7.6
		c-2.1-1-4-2.2-5.9-3.5c-2.2-1.5-2.4-4.2-0.5-6.1c4.5-4.7,9.7-8.7,14.9-12.8c5.2-4,10.6-7.7,15.7-11.8c7.8-6.1,15.7-12.1,23.5-18.2
		c1.1-0.8,2.2-1.6,3-2.7c0.9-1.3,0.9-1.5-0.1-2.6c-0.5-0.5-1-0.7-1.6-1c-3.2-1.6-6.7-1.9-10.2-2.4c-4.9-0.6-9.9-0.9-14.8-0.3
		c-2.4,0.3-4.7,0.7-7.1,1c-5.7,0.6-11.3,2-16.9,3.2c-3.3,0.7-6.6,1.7-9.9,2.6c-8.2,2.2-16.1,5.1-23.4,9.5
		c-5.5,3.3-11.4,6.1-16.8,9.6c-1.7,1.1-2.5,2.8-1.6,4.7c0.8,1.7,1.6,3.5,3,4.9c2.5,2.5,4.9,5.2,7.8,7.3c3.7,2.6,6.9,5.9,10.7,8.4
		c4.9,3.2,10.1,5.4,15.8,6.6c1.6,0.3,3.2,0.7,4.8,0.3c1.8-0.5,2.9,0.2,4.1,1.2c1.5,1.2,2.9,2.5,4.6,3.4c8.9,4.6,17,10.4,25.7,15.4
		c6.3,3.5,12.2,7.7,17.9,11.9c5.2,3.8,10,7.9,15.3,11.6c8.3,5.7,16.3,11.8,24.5,17.6c6.6,4.6,13.1,9.4,19.9,13.8
		c1.9,1.3,3.8,2.6,5.6,4c0.3,0.3,0.7,0.4,1.1,0.1C616.1,497.6,615.7,497.2,615.4,496.9z M495.8,417.4c-0.6,0-1.3-0.1-1.9-0.2
		c-6.6-1-12.6-3.3-18.1-7.1c-5.6-3.9-10.8-8.2-15.8-12.8c-1.8-1.7-3.6-3.4-4.3-5.9c-0.5-1.8-0.1-2.6,1.8-2.9
		c2.1-0.4,4.3-0.6,6.2-0.2c2.8,0.1,5.1,1.2,7.4,2.4c4.3,2.3,8.6,4.7,12.5,7.5c4.7,3.4,9.2,6.9,11.8,12.3c0.2,0.5,0.6,0.9,1,1.4
		c0.7,1.1,1.2,2.3,1.2,3.6C497.6,417,497.3,417.4,495.8,417.4z M500,404.4c-0.2-2.3-1-4.4-1.1-6.7c-0.1-2.2-2.1-3.9-2-6.3
		c1.1-0.7,1.8,0.9,3,0.5c-1.3-2.3-4.7-1.8-5.6-4.6c0.2,2.4,1.3,4.4,2,6.6c0.6,1.9,1.6,3.7,2,5.7c0.6,3.4,0.9,6.8,0.7,10.2
		c0,0.7-0.3,1.2-0.9,1.8c-0.9-0.6-1.5-1.5-1.9-2.4c-1.9-3.6-4.8-6.4-7.8-9c-6.2-5.1-13-9.2-20.4-12.4c-1.8-0.8-3.8-1.1-6.2-1.5
		c2.6-2.7,5.6-2.7,8.5-2.9c5.5-0.3,10.8,0.9,16,2.6c0.7,0.3,1.4,0.7,2.3,0.6c-1-1.3-2-1.8-5.5-3.1c-2.1-0.8-4.2-0.9-6.3-1.3
		c-2.2-0.4-4.4-0.6-6.7-0.9c1.5-1.7,3.5-2.5,5.3-3.6c2.4-1.4,5-2.4,7.6-3.5c2.6-1.1,5.3-1.1,8-0.7c4.6,0.6,9,2.3,13.3,3.9
		c0.6,0.2,1.2,0.5,1.8,0.6c0.2,0.1,0.4,0,0.9-0.1c-5.3-3.5-11-5.3-17.3-5.9c0.7-1,1.6-1,2.2-1.3c3.9-1.4,8-2.1,12-3.2
		c1.3-0.4,2.7-0.8,3.5,1.3c0.2-2.1,0.2-2.2,1.7-2.2c3.1,0,6,1,8.8,2.1c2.9,1.1,5.9,2.1,8.7,3.8c-3.4-3.9-8.4-4.9-13.4-6.8
		c3-1.1,5.6-1.6,8.3-1.8c0.8-0.1,0.9,0.5,1.1,1.1c0.4,1.3,0.8,2.6,1.3,4.3c0.5-2.2-0.8-3.7-0.6-5.5c4.6-1.1,9-0.2,13.1,1.9
		c2.5,1.3,5,2.3,7.5,3.6c-2.7-3.5-7.1-4.4-10.6-6.6c0.5-0.7,1.1-0.5,1.6-0.5c3.6,0.1,7.1,0.3,10.7,0.7c2.6,0.3,5.2,0.6,7.7,1.3
		c1.1,0.3,2.5,0.5,2.8,1.6c0.3,1.2-1.2,1.7-2,2.4c-1,0.9-2.2,1.6-3.2,2.4c-2.2,1.8-2.4,1.8-4.1-0.6c-0.5,0.7-0.3,1.4-0.1,2
		c0.4,1.5-0.2,2.4-1.3,3.2c-2.3,1.6-4.4,3.3-7,5.2c-0.2-3.9,0.4-7.5-0.8-10.9c0.1,1.6,0.1,3.2,0.2,4.8c0.1,1.3,0.1,2.7,0.1,4
		c0,2.1-0.7,3.7-2.4,4.9c-2.6,1.8-5,4-7.8,5.5c-1,0.5-1.6,0.4-2.1-0.6c-0.3-0.7-0.4-1.5-0.3-2.3c0.6-3.8,0.6-7.6-0.5-11.4
		c0,2.8,0.1,5.6,0.1,8.4c0,1.5,0.3,3.1-0.9,4.3c-0.4,0.4,0,0.9,0,1.3c0.1,1.6-0.2,3.1-1.5,4.3c-2.9,2.5-6,4.6-9.1,6.6
		c-0.3,0.2-0.6,0.3-1,0.2c-0.8-2.5,0.7-5,0.3-7.5c-0.4-2.4-0.3-4.9-1.3-7.8c-0.1,4.6,0.9,8.7-0.3,13c-1.8-0.8-3.1-2.2-5.1-2.3
		c0.1,1,0.9,1.2,1.5,1.5c0.9,0.5,1.8,1.1,2.5,1.8c1.4,1.3,1.4,2.7,0,4.1c-0.8,0.8-1.6,1.6-2.5,2.2c-2.1,1.5-3.9,3.3-5.5,5.2
		c-0.4,0.5-0.9,0.9-1.7,1C499,408.8,500.2,406.6,500,404.4z"/>
	<path d="M531.1,375.3c1.4,1.5,3.2,2,4.8,2.7C534.3,375.9,532.7,375.1,531.1,375.3z"/>
	<path d="M513.7,381.6c1.2,2,3.4,1.9,4.8,3.1C517.4,382.9,515.9,381.9,513.7,381.6z"/>
	<path d="M510.7,378.5c-0.5-1.4-0.8-2.4-1.2-3.3c-0.1-0.1-0.3-0.2-0.5-0.3C509.5,375.9,509.4,377.2,510.7,378.5z"/>
	<path d="M509,374.8C509.1,374.8,509.1,374.8,509,374.8C509.1,374.8,509.1,374.8,509,374.8C509.1,374.7,509.1,374.7,509,374.8
		C509.1,374.7,509.1,374.8,509,374.8L509,374.8z"/>
	<path d="M508.6,372.6c0.2,0.9,0.4,1.5,0.5,2.1C509.4,374,509.2,373.4,508.6,372.6z"/>
	<path d="M488.6,377.7c-0.3,0-0.4,0.1-0.2,0.3c0.1,0.2,0.2,0.4,0.4,0.5c0.1,0.1,0.3,0,0.3-0.1C488.8,378.1,488.7,377.9,488.6,377.7z
		"/>
</g>
<g>
	<path d="M254.5,607.9c-0.8-2.1-2.1-4-3.5-5.7c-3.5-4.3-7.8-6.7-13.6-5.7c-2.1,0.4-4.2,0.7-6.4,0.7c-5,0-9-2.4-12.6-5.6
		c-1.6-1.4-3.2-2.8-4.3-4.8c-3.8-6.7-6.5-13.8-7.8-21.5c-0.4-2.4-0.9-4.9-1.4-7.3c-0.1-0.6,0-1.5-0.8-1.6c-0.8-0.1-0.9,0.7-1.2,1.3
		c-1.2,2.4-2.2,4.8-2.6,7.4c-0.1,1-0.3,2-1.1,3c-3.4-3.8-1.6-8.5-2.4-13c-2.4,3.1-4.1,6-5,9.3c-1.2,4.1-2.4,8.3-3.8,12.3
		c-0.9,2.8-1.2,5.6-0.5,8.5c0.2,0.9,0.3,1.8,0,2.7c-1-0.2-1.3-0.9-1.6-1.5c-0.7-1.1-1.6-2.2-2-3.5c-0.1-0.3-0.3-0.6-0.7-0.6
		c-0.5,0-0.7,0.4-0.8,0.8c-0.1,0.5-0.1,0.9-0.1,1.4c0.2,2.3,0.5,4.6,0.6,6.9c0.3,5.7,1.3,11.3,3,16.7c0.9,2.8,2.1,5.6,4.1,7.8
		c1.8,2,3.3,4.4,5.5,6c0.6,0.5,0.7,1.2,0.9,1.9c1.6,6.9,2.7,13.9,3.9,20.9c0.1,0.7,0.1,1.5,1,1.8c1-1,0.7-2.2,0.5-3.3
		c-0.2-1.3-0.6-2.7-0.8-4c-0.7-3.8-1.1-7.6-2.3-11.3c-0.3-1-0.7-2.1-0.4-3.5c2.3,1.4,4.7,2,7,2.8c1,0.3,1.2,1.1,1.5,2
		c1.7,5.3,2.7,10.8,3.6,16.4c0.1,0.8,0,2.2,1,2c0.9-0.2,0.5-1.5,0.4-2.3c-0.6-5.3-1.6-10.6-3.5-15.6c-0.5-1.3-0.3-1.6,1.1-1.5
		c3.1,0.1,6-0.4,9.1-0.8c1.1-0.1,2.2-0.5,3.2-1.1c5.5-2.9,10.7-6.4,15.7-10c1.7-1.3,3.3-1.7,5.3-0.9c1.5,0.6,3,1,4.5,1.5
		c0.5,0.2,1,0.1,1.3-0.3c0.3-0.4,0.1-0.8-0.1-1.1c-0.3-0.5-0.6-0.9-0.9-1.4c-0.5-0.8-1.3-1.4-1.3-2.4c0.4-0.5,0.9-0.5,1.4-0.5
		c2-0.4,3.9-0.7,5.9-1.1C254.9,609.6,255.1,609.3,254.5,607.9z M195.9,618.4c-4.9-2.7-7.7-7.2-9.1-12.3c-1.7-6-2.4-12.2-3-18.4
		c0-0.3,0-0.6,0.6-1.1c1.4,2.1,2.8,4.1,4.3,6.1c3.1,4.2,7,7.6,11.2,10.7c1.9,1.4,3.8,2.6,5.8,3.8c0.9,0.6,1.9,1.2,2.9,1.6
		c2.1,0.8,2.8,2.4,1.5,4.3c-1.7,2.6-3.8,4.7-6.5,6.2C200.9,620.7,198.3,619.7,195.9,618.4z M250.3,609.1c-1.6,0.2-3.2,0.3-4.8,0.6
		c-2.3,0.3-2.5,0.8-1.3,2.7c0.3,0.5,0.8,1,0.7,1.9c-1-0.1-1.8-0.4-2.7-0.7c-1.6-0.6-2.9-0.4-4.5,0.5c-5.1,3.2-9.8,7-15.1,9.6
		c-7.6,3.8-15.3,3.4-22.8-0.5c-0.4-0.2-0.8-0.5-1.2-0.8c-0.2-0.1-0.2-0.4-0.3-0.7c6.3,0.8,9.7-3.3,12.9-7.6c0.8-1,0.9-2.4,0.8-3.7
		c-0.1-1.1-0.5-2-1.8-2.6c-7.3-3.6-13.7-8.5-19.4-14.3c-1.5-1.5-2.1-3.4-2.3-5.4c-0.1-1.3-0.3-2.5-0.4-3.8c-0.4-3-0.1-5.9,0.9-8.7
		c1.1-3,1.9-6.1,2.8-9.1c0.8-2.6,1.6-5.1,3.4-7.3c0.7,0.6,0.7,1.2,0.6,1.8c-0.5,4,1.2,7.3,2.8,10.7c0.2,0.4,0.4,1,1,0.9
		c0.7-0.1,0.8-0.7,0.8-1.3c0.1-2.7,0.4-5.4,1.1-8.1c0.3-1.2,0.7-2.4,1.5-3.4c1,0.4,0.9,1.2,1,1.9c0.8,4.3,1.5,8.7,2.7,12.9
		c1,3.4,2.3,6.8,4.1,9.9c0.4,0.8,0.9,1.5,1.3,2.3c2.5,5.2,9,10.4,14.7,11.7c2.1,0.5,4.2,0.6,6.2,0.3c2.2-0.4,4.4-0.4,6.7-0.7
		c1.8-0.2,3.3,0.1,4.9,0.9c3.1,1.7,5.4,4.2,7.2,7.2C253.1,608.2,252.7,608.8,250.3,609.1z"/>
	<path d="M242.3,602.1c-1.1,0-1.2,0.9-1.3,1.8c-0.2,1.1,0.6,2,1.7,2.1c0.8,0,1.7-0.7,1.7-1.6C244.5,603.3,243.5,602.1,242.3,602.1z"
		/>
</g>
<path d="M-415.6,102.5c1.7-2.9,2.7-6,4-9.1c0.6-1.4,1.3-2.8,1.6-4.4c0.1-0.5,0-0.7-0.4-0.9c-4.1-2.4-5-6.6-2.2-10.4
	c0.1-0.1,0.2-0.3,0.3-0.4c1.2-1.7,4.4-3,6.2-2.6c2.5,0.6,5.6,4.1,6.2,6.7c0.9,4.2-3.2,7.4-6.6,7.6c-1.8,0.1-2.1,0.3-2.5,2.1
	c-0.1,0.3-0.1,0.6-0.3,0.9c-2,4.5-3.5,9.3-5.9,13.7c-1.9,3.5-2.8,7.4-4.6,10.9c-0.4,0.8-1,1.7-1,2.7c0.1,3.2,0.8,6.1,3.4,8.4
	c1.4,1.2,2.1,2.3,0.6,3.9c-0.2,0.2-0.4,0.5-0.2,0.7c0.6,0.9,0.6,2,1.1,2.9c0.9,1.6,1.5,3.4,2.3,5c0.5,1,1,1.9,1.4,2.9
	c0.5,1.1,1,2.2,1.9,3.1c1.6,1.6,3.4,2.8,5.2,4.1c2.1,1.6,2.3,1.5,2.9-1c0.1-0.7,0.5-1.2,1.2-0.9c0.7,0.3,0.9,0.9,0.5,1.6
	c-0.3,0.6-0.6,1.2-0.9,1.8c-0.2,0.5-0.4,1,0.3,1.5c2.3,1.5,4.7,3,6.8,4.9c0.5,0.5,1,0.6,1.4-0.2c0.9-1.6,1.9-3,2.7-4.6
	c0.4-0.9,0.2-1.2-0.3-1.7c-1.1-1.3-1-2.5,0.4-3.5c0.5-0.4,1-0.8,1.7-0.8c0.3,0,0.6-0.1,0.7-0.4c0.3-1.2,1.1-2.1,1.5-3.3
	c0.2-0.4,0.4-0.9-0.1-1.3c-0.6-0.5-1.1-0.9-1.6-1.5c-0.5-0.5-1.6-0.9-0.9-1.7c0.8-0.9,1.3,0.1,1.9,0.6c0.4,0.3,0.8,0.8,1.2,0.6
	c0.5-0.2,0.4-0.8,0.5-1.3c0.3-2.3,0.5-4.6,0.7-6.9c0.1-1.9,0.3-3.7-0.1-5.6c-0.1-0.4-0.1-0.7-0.6-0.7c-2.2-0.3-3.5-1.6-4.4-3.6
	c-0.7-1.7-1.2-3.5,0-5.1c1.3-1.7,3-2.7,5.2-2.1c0.2,0.1,0.4,0.1,0.6,0.1c2.1,0.2,3.9,1.6,4.5,3.7c0.4,1.4,0.1,4.5-1.6,5.4
	c-2,1.1-2.6,2.4-2.2,4.5c0.1,0.3-0.1,0.6,0,0.8c0.1,0.7-0.3,1.7,0.4,1.9c0.6,0.2,1-0.8,1.5-1.2c0.4-0.3,0.6-1,1.1-0.5
	c0.4,0.4,0.8,1.1,0.1,1.7c-0.5,0.4-1,0.9-1.4,1.5c-0.5,0.8-1.6,1.3-1.7,2.3c-0.1,1.1-0.4,2.2-0.4,3.3c-0.1,2.6-0.8,5.1-2,7.3
	c-0.6,1.1-0.3,1.6,0.4,2.3c1.1,1.1,1.1,2.5,0,3.6c-0.5,0.5-1,1-1.7,1c-1.4,0-2,0.8-2.3,2c0,0.2-0.3,0.3-0.3,0.5
	c-0.7,2.3-2.9,3.8-2.9,6.7c0,2.8,0.5,5.4,0.6,8.2c0.2,4,2.6,7.7,2.1,11.9c0,0.3,0.1,0.6,0.2,0.9c0.8,1.6,1.6,3.3,2.1,5
	c0.8,2.6,1.9,5.2,1.6,8c-0.3,3.5-0.5,6.9-0.4,10.4c0,1-0.3,2.1,0.2,3c0.9,1.6,1.8,3.1,2.8,4.6c0.5,0.8,0.8,0.7,1.2-0.1
	c0.7-1.4,1-3,2.4-4.1c0.2-0.2,0.1-0.4,0-0.7c-0.6-1.5-1.1-3.1-1.8-4.6c-0.2-0.6-0.3-1,0.3-1.3s0.9,0.2,1.1,0.6
	c0.7,0.9,0.8,2.1,1.3,3.1c0.9,2,0.9,2,2.6,0.7c0.7-0.5,1.3-0.7,1.8,0.1c0.5,0.8,0,1.2-0.7,1.5c-2.8,1.4-5,3.3-5.9,6.5
	c-0.4,1.6,0,2.3,1.6,2.6c1.4,0.3,3,0.4,4.1,1.6c1.7,1.8,1.8,4,1.1,6.2c-0.1,0.5-0.2,0.9,0.1,1.3c1,1.3,2.2,2.5,3.2,3.8
	c2.1,2.4,4.2,5,6.2,7.5c0.7,0.8,1.1,2,2.5,2.3c0-0.3,0-0.5,0-0.7c-0.1-2.8-0.9-5.6-0.6-8.5c0.1-0.9,0.3-1.7,0.1-2.6
	c-0.3-2.8-1.5-5.4-2.7-7.9c-0.6-1.2-1.1-2.5-3-2.7c-1.4-0.1-2.2-1.5-2.4-3c-0.2-1.2,0.4-2.2,1.3-2.7c1.2-0.6,2.5-1,3.8,0
	c1.7,1.3,2.1,3.2,1,5.1c-0.2,0.3-0.6,0.6-0.3,1c1.1,1.6,1.7,3.4,2.8,5.1c0.7-1.7,1-3.3,1.2-4.9c0.7-5.1,2.1-10.2,3.1-15.2
	c0.1-0.6,0.1-1.1-0.2-1.6c-1.4-2.6-2.9-5.2-4.3-7.9c-1.1-2.1-2.6-4-3.3-6.3c-0.1-0.4-0.4-0.6-0.8-0.8c-1.6-0.6-2.9-1.7-4.2-2.8
	c-0.3-0.3-0.8-0.5-0.5-1s0.7-0.2,1.1,0c1,0.4,2,0.8,3,1.3c0-0.7-0.1-1.2-0.1-1.8c0.2-2.6,0.7-5.2,1.2-7.8c0.2-0.7,0.1-1-0.7-1.1
	c-3.3-0.7-4.7-3.4-4.4-6.4c0.1-1.6,1.6-3,3.3-3c1.3,0,2.3,0.3,3.3,1c0.3,0.2,0.8,0.7,1,0.2c0.7-1.1,1.3-2.3,1.6-3.6
	c0-0.1-0.1-0.4-0.3-0.5c-1.1-1.3-1.6-2.9-2.7-4.2c-0.3-0.4-0.2-0.9,0.2-1.3c0.4-0.3,0.8-0.2,1.2,0.1c0.3,0.2,0.5,0.6,0.7,1
	c0.5,1,0.9,2.1,1.8,2.9c0.7-0.8,1-1.8,1.3-2.7c0.8-2.3,1.5-4.6,2.6-6.8c0.2-0.5,0.8-0.8,0.7-1.4c-0.2-1.1,0.1-2.2,0-3.3
	c-0.1-3.2,0.1-6.5,0.9-9.6c0.2-0.8-0.1-1.3-0.7-1.8c-2-1.9-3.2-4.1-2.8-7.1c0.2-1.6,1.1-3,1.6-4.5c0.3-1,1-1.6,1.9-2
	c3-1.5,7.3-0.1,9.3,2c1.2,1.2,2.2,2.7,2.5,4.2c0.3,1.6,0,3.4-0.8,4.9c-1.3,2.7-4.5,5.6-7.9,4.4c-1.2-0.4-1.5,0.1-1.7,1.1
	c-0.2,1.2-0.4,2.4-0.4,3.5c-0.1,2.3-0.4,4.7,0,7.2c2.7-1.5,4.6-3.6,6.5-5.7c0.3-0.4,0.1-0.7,0-1.1c-0.3-1.1-0.3-2.3,0.3-3.3
	c1.5-2.4,3.6-2.9,6-1.5c1.8,1,2.1,3,0.7,4.5c-1.1,1.1-2.5,1.8-4.2,1.7c-0.7-0.1-1.2,0.1-1.6,0.7c-0.6,0.9-1.4,1.7-2.2,2.5
	c-1,0.9-1.9,1.9-2.8,2.8c1.9,0.1,3.7,0,5.4-0.9c1.1-0.6,1.8-1.3,2.1-2.5c0.4-1.9,2-2.6,3.6-3.1c1.4-0.4,2.2,0.6,3,1.5
	c0.5,0.6,0.5,1.3,0.2,2c-0.5,1.4-3.1,3.4-5.1,2.6c-0.9-0.4-1.6-0.1-2.3,0.4c-2.6,1.7-5.5,2-8.5,1.9c-1.2-0.1-1.9,0.2-2.4,1.1
	c-0.7,1.2-1.5,2.5-1.9,3.8c-0.9,3.3-2.2,6.4-3.7,9.4c-0.7,1.3-1.4,2.7-0.9,4.4c0.3,1.2-0.2,2.3-1.2,3.2c-0.3,0.3-0.9,0.7-0.9,1.1
	c-0.2,2.2-1.3,4.2-1.4,6.5c-0.1,1.9-0.6,3.9,0.7,5.7c0.2,0.3,0.2,0.8,0.4,1.1c0.7,1.8,1.3,3.6,2.8,5.1c0.2-0.7,0.4-1.3,0.5-1.8
	c0.1-0.6,0.4-1,1-0.9c0.6,0.1,0.8,0.6,0.7,1.2c-0.1,1.1-0.4,2.2-0.9,3.2c-0.3,0.6-0.3,1.1,0,1.7c1.1,2,2.3,4,3.4,6
	c0.3,0.6,0.6,0.6,1.1,0.2c1.1-0.9,2.3-1.6,3.6-2.1c2.7-1.2,5.7-1.8,8.1-3.7c0.5-0.4,1.1-0.7,1.7-0.9c0.6-0.2,0.7-0.5,0.8-1
	c0.2-1,0.4-2,0.6-2.9c0.1-0.5,0.5-1,1.1-0.9s0.7,0.6,0.8,1.2c0.1,0.6-0.4,1.1-0.1,1.8c1.7-0.6,2.9-1.8,4.4-2.6
	c0.7-0.3,1-0.8,1.2-1.5c0.3-1,0.7-2,1-3.1c0.2-0.9,0.5-2,0.5-2.9c-0.1-0.8-1.2-0.7-1.8-1c-1.7-1.1-1.9-2.7-0.4-4.1
	c0.5-0.4,1-0.8,1.5-1.1c1.3-0.8,2.6-0.8,3.3,0c0.8,0.9,1.2,3.7,0.4,4.3c-1.3,0.9-1.4,2.2-1.6,3.4c-0.2,1.1-0.7,2.2-0.4,3.4
	c0.2-0.1,0.4-0.2,0.5-0.3c2.3-2,5-3.6,7.6-5.1c1.3-0.8,2.5-1.8,3.7-2.9c0.6-0.6,0.7-1,0.2-1.7c-1-1.4-1.8-3-1.1-4.6
	c0.7-1.8,1.6-3.5,3.1-4.9c3.8-3.3,8.4-3.8,12-1.1c1.5,1.1,2.8,2.2,2.5,4.6c-0.2,2.2-1.1,4-2.3,5.7c-1.4,2.1-3.8,2.4-5.9,3.3
	s-3.9,0.5-5.7-0.7c-0.9-0.6-1.4,0.2-1.8,0.7c-1.8,1.8-4,3.1-6.2,4.2c-2,1.1-3.7,2.5-5.5,3.8c-1.4,1-2.6,2.3-4.1,3.1
	c-1.9,1.2-4,2-5.9,3.3c-1.8,1.2-3.8,1.9-5.6,3.2c-0.2,0.2-0.5,0.3-0.4,0.6c0,0.4,0.4,0.4,0.6,0.4c0.8,0.1,1.5,0.1,2.3,0.1
	c0.4,0,0.7-0.1,0.8-0.5c0.1-0.5,0.6-0.7,1-1c1.4-1.5,4.9-0.7,5.7,0.9c1,2.1,0.8,4.1-1.7,5.6c-1.5,0.9-4.4,0.4-4.8-1
	c-0.5-1.7-1.5-2.4-3.3-2.4c-0.5,0-1-0.1-1.4-0.2c-1.9-0.7-3.7-0.3-5.6,0.5c-1.6,0.7-2.8,2.1-4.4,2.8c-0.1,0-0.1,0.3-0.2,0.4
	c-0.3,2.2-1,4.3-1.4,6.4c-0.7,3.6-1.4,7.2-2.1,10.8c-0.4,2.1-0.7,4.2-1,6.3c-0.1,0.6-0.2,1.4,0.9,0.9c0.3-0.1,0.8,0,0.9,0.4
	c0.2,0.4,0.4,0.8,0,1.2c-0.2,0.2-0.4,0.5-0.7,0.7c-1.7,1.3-1.8,3-1.5,5c0.5,2.6,1.1,5.2,1.7,7.8c0.1,0.7,0.4,1.3,0.8,1.8
	c2.5,3.2,4.9,6.5,7.7,9.5c3.2,3.3,5.5,7,7.1,11.2c0.9,2.4,2.1,4.6,3.2,6.8c0.7,1.3,1.4,2.7,1.7,4.2c0.1,0.4,0.1,0.8-0.4,1.1
	c-0.4,0.2-0.8,0.1-1.1-0.1c-1.3-1-2.7-1.8-3-3.6c-0.1-0.8-0.5-1.5-0.9-2.2c-1.6-3.8-3.3-7.7-4.9-11.5c-0.8-2-1.9-3.7-3.7-5.1
	c-1.4-1.1-2.6-2.5-3.8-3.9c-3.1-3.6-6.1-7.4-9.2-11c-3.4-3.9-6.9-7.7-9.9-12c-0.5-0.8-1.1-1-1.9-0.6c-1.4,0.6-2.6,0.2-3.8-0.5
	c-1.6-0.9-2.8-2.2-3.7-4c-0.8-1.6-0.7-2.8,0.4-4c0.8-0.9,0.8-1.4,0.1-2.5c-2.3-3.2-3.7-6.8-5.3-10.4c-0.4-0.8-0.5-1.7-1.3-2.3
	c-1.4-1.2-3.2-1.7-4.7-2.5c-0.4-0.2-0.6,0.1-0.9,0.2c-1.2,0.6-2.1,1.5-2.9,2.6c-0.5,0.6-1.5,1.3-2.1,0.6c-0.6-0.6,0-1.5,0.6-2
	c0.8-0.8,1.6-1.5,2.4-2.3c-2.4-1.7-4.7-1.8-7.1-0.2c-1.1,0.7-2.2,1.4-3.2,2.1c-2.5,1.9-4.9,3.9-7.8,5.5c-1.3,0.7-2.5,1.7-3.2,3.3
	c-0.8,1.6-1.3,3.3-2.3,4.8c-0.3,0.4,0,0.6,0.3,0.9c1.1,0.9,2.7,1.4,2.5,3.5c-0.3,2.6-2.6,5.2-4.8,5.1c-2.5-0.1-4.8-1.6-5.4-4.3
	c-0.6-2.4,1.4-5.5,3.5-5.1c1.9,0.3,2.6-0.2,2.9-1.8c0-0.1,0.2-0.2,0.2-0.3c0.4-0.7,1.3-1.6,0.8-2.2s-1.7-0.1-2.5,0.1
	c-0.2,0.1-0.4,0.2-0.5,0.2c-2.9,1.1-5.5,2.9-8.3,4.2c-0.6,0.3-0.9,0.6-0.9,1.3c0,0.8-0.2,1.6-0.9,2c-1.3,0.8-2.7,0.6-4.1,0
	c-1.2-0.5-1.3-1.5-1.4-2.5c-0.1-0.7,0.3-1.2,0.5-1.8c0.7-1.8,2.8-2.3,4.2-1.1c0.4,0.4,0.9,0.7,1.5,0.5c1.3-0.6,2.7-1.3,3.9-2
	c2.8-1.5,5.5-3.2,8.9-3.3c0.3,0,0.7,0,0.9-0.2c1.6-1.2,3.3-2.3,5-3.6c-0.7-0.5-1.4-0.4-2-0.5c-0.5-0.2-1-0.5-0.8-1.1
	c0.1-0.5,0.5-1,1-0.8c1.1,0.4,2.3,0,3.4,0.5c0.7,0.3,1.1,0.1,1.6-0.3c1.5-1.3,3-2.5,4.7-3.5c0.9-0.6,1.8-1.2,2.8-1.8
	c-0.2-0.2-0.3-0.3-0.4-0.3c-3.4-1.4-7-2.2-10.4-3.6c-0.6-0.2-1.1,0-1.6,0.5c-0.8,0.8-1.5,1.7-2.5,2.1c-0.4,0.2-1,0.7-1.4,0.1
	c-0.4-0.6,0-1.2,0.4-1.7c0.1-0.2,0.4-0.3,0.6-0.4c0.4-0.3,0.8-0.5,1.1-0.9c0.5-0.5,0.7-0.9-0.2-1.2c-1-0.5-2-0.9-3-1.5
	c-0.8-0.5-1.4-0.3-2,0.2c-1,0.7-1.6,1.9-2.7,2.7c-0.6,0.4-1.1,1.5-1.7,0.9c-0.6-0.6,0.4-1.3,0.7-1.9c0.5-1,1.5-1.7,2-2.8
	c-5.2-0.5-10.3-0.9-15.3-2.1c-0.6-0.2-0.9,0.1-1,0.7c-0.1,0.8-0.3,1.6-0.5,2.3c-0.1,0.4-0.3,0.9-0.7,0.9c-0.5,0-0.3-0.5-0.3-0.8
	c-0.4-1.4-0.6-1.5-1.6-0.5c-1.7,1.6-3.6,2.8-5.8,3.5c-1.5,0.5-2.8,1.4-3.7,2.6c-0.1,0.2-0.3,0.4-0.5,0.5c-0.3,0.2-0.5,0.6-0.9,0.4
	c-0.3-0.2-0.2-0.6-0.2-0.9c0.1-0.6-0.1-0.7-0.6-0.6s-1,0.1-1.5,0.2c-1.2,0.2-2,0.7-2.1,2.1c-0.1,1.4-1.1,2.2-2.5,2.6
	c-3.1,0.8-5.6-0.3-7.2-3c-1.6-2.8,0.7-6.2,3.1-6.5c2.2-0.3,4.6,0.8,5.8,2.7c0.5,0.8,1,1,1.9,0.8c1.5-0.4,2.9-0.7,4.4-1.2
	c3.7-1.1,7.1-2.8,9.9-5.5c0.2-0.2,0.6-0.4,0.5-0.7c-0.1-0.3-0.5-0.3-0.7-0.3c-3.6-0.8-7.1-1.8-10.6-2.9c-0.8-0.2-1.3,0-1.8,0.5
	c-1.1,1.3-2.8,1.8-4.2,2.7c-0.4,0.2-0.9,0.2-1.1-0.3c-0.2-0.5-0.1-0.9,0.3-1.2c0.3-0.2,0.6-0.3,0.9-0.5c0.9-0.5,1.8-1,2.7-1.9
	c-2.1-0.5-4-0.9-5.9-1.3c-5-1-10.1-1-15-2.2c-0.8-0.2-1.7,0-2.4,0.5c-1,0.7-2.3,1-3.4,1.6c-0.6,0.3-1.1,0.1-1.4-0.5
	c-0.3-0.6,0.1-1,0.6-1.2c0.7-0.3,1.5-0.6,2.2-0.9c0.2-0.1,0.5,0,0.6-0.3c0.1-0.3-0.2-0.5-0.5-0.6c-1.1-0.7-2.4-1.2-3.4-2
	c-1.2-0.9-1.9-0.6-2.9,0.3c-1.7,1.5-3.6,1.9-5.8,1c-3.6-1.6-5.1-4.6-4.5-8.5c0.4-2.8,3.7-4.5,5.9-4c2,0.5,4,1.2,5.4,2.9
	c1.3,1.5,2.4,3.1,1.3,5.3c-0.3,0.5,0,0.9,0.5,1.2c1.7,0.8,3.3,1.9,4.9,2.7c3.6,1.7,7.6,2.1,11.5,2.2c0.3,0,0.6-0.1,0.5-0.5
	c-0.3-1.5-0.3-3.2-1.5-4.4c-2.4-2.3-4.8-4.5-7.7-6.2c-0.5-0.3-0.9-0.7-1.5-0.3c-0.8,0.4-1.7,0.6-2.5-0.1c-1-0.9-1.8-1.8-1.5-3.3
	c0.2-0.8,0.8-1.4,1.6-1.6c0.8-0.3,1.3,0.1,1.8,0.7c0.6,0.7,1.7,1.2,1.4,2.5c-0.1,0.3,0.4,0.5,0.6,0.7c0.8,0.7,1.9,1,2.8,1.6
	c0.7,0.5,1.8,1.3,2.3,0.8c0.6-0.6,0-1.7-0.5-2.5c-0.1-0.2-0.2-0.3-0.3-0.5c-2.2-2.9-5-5.1-7.8-7.4c-0.4-0.3-0.7-0.4-1.3-0.1
	c-2.1,0.9-5-0.7-5.2-2.8c-0.1-1.3,0.2-2.5,1.4-3.1c1.3-0.6,2.8-0.9,4.2,0c1.2,0.8,1.8,1.9,1.3,3.4c-0.1,0.3-0.4,0.7,0.1,1.1
	c1.3,0.8,2.4,1.9,3.5,2.9c0.3,0.2,0.6,0.7,1,0.5c0.5-0.2,0.1-0.7,0.2-1.1c0.1-0.4,0.1-0.8,0.2-1.2c0.2-0.6,0.6-0.8,1.2-0.6
	c0.6,0.2,0.9,0.6,0.6,1.3c-0.2,0.5-0.4,1-0.6,1.6c-0.2,0.8-0.3,1.5,0.4,2.3c1.1,1.1,1.9,2.4,2.9,3.6c0.4,0.4,0.5,0.9,0.5,1.5
	c-0.1,0.9-0.1,1.8,0,2.8c0,0.8,1.2,2.5,1.6,2.3c0.8-0.3,0.6-1.2,1-1.8c0.1-0.2,0.1-0.5,0.1-0.8c0.1-0.6,0.4-1.1,1.1-0.9
	c0.7,0.2,1.1,0.7,0.9,1.4c-0.2,0.8-0.4,1.7-0.9,2.3c-0.9,1.1-0.5,2.2-0.2,3.3c0.1,0.5,0.5,1,0.5,1.5c0,1.7,1.2,1.9,2.5,2.1
	c4,0.5,7.9,1.4,11.7,2.5c0.5,0.1,0.9,0.2,1.4,0.1c-0.5-0.9-1-1.7-1.5-2.4c-0.1-0.2-0.2-0.4,0-0.5c0.1-0.1,0.3,0,0.4,0
	c1.3,0.8,2.7,1.4,3.5,2.8c0.7,1.1,1.7,1.7,3,2c2.9,0.6,5.9,1.3,8.8,1.8c0.9,0.2,1.7,0.4,2.7,0.1c-0.5-0.8-0.9-1.6-1.5-2.2
	c-0.4-0.4-1-0.9-0.7-1.6c0.1-0.4,0.5-0.4,0.8-0.5c0.8,0,0.8,0.8,1.2,1.2c0.1,0,0,0.2,0.1,0.2c1.3,2.1,2.6,4.2,5.6,4
	c0.3,0,0.7,0.2,0.9-0.1c0.2-0.3,0-0.7-0.2-1c-1.9-3.5-3.8-7.1-5.8-10.6c-0.5-0.9-0.9-2-2.1-2.3c-2.1-0.6-3-1.7-2.8-3.9
	c0.1-1.9-0.9-3-2.9-3.1c-1,0-2.1-0.1-3.1,0c-0.7,0.1-1.4-0.2-1.4-1c0-0.7,0.7-0.8,1.4-0.8c0.5,0,1,0.1,1.6,0c0.3,0,0.8,0.2,1-0.2
	c0.2-0.4-0.3-0.7-0.6-1c-1.1-1.1-2.4-2.1-3.4-3.4c-2.9-3.9-6.3-7.3-9.2-11.2c-0.2-0.3-0.6-0.9-1.2-0.6c-2.1,1-3.9,0.1-5.5-1.2
	c-1.5-1.2-2.2-4.4-1.1-5.6c1.2-1.3,2.6-2.2,4.5-2.1c1.1,0,2,0.4,2.4,1.4c0.3,0.8,0.8,1.4,1.2,2.1c0.6,1,0.7,2.1,0.2,3
	c-0.5,1.1,0.1,1.7,0.6,2.3c0.3,0.3,0.7,0.6,1,1c1.9,2.7,4.4,4.8,6.4,7.4c0.2,0.3,0.5,0.5,0.8,0.4c0.2-0.1,0.3-0.5,0.3-0.7
	c0-0.6,0-1.2,0-1.8c0-0.6,0.2-1,0.8-1s1.1,0.2,1.1,1c-0.1,1.2-0.1,2.4-0.5,3.6c-0.2,0.6-0.6,1.3,0.2,1.9c2.1,1.5,3.8,3.5,5.4,5.5
	c0.5,0.7,0.8,1.7,2,0.7c0.1-0.1,0.3-0.1,0.5,0c1.7,0.3,2.8,1.4,3.6,2.8c0.6,1-0.2,1.8-0.7,2.6c-0.1,0.1-0.1,0.3-0.3,0.4
	c-0.4,0.3-0.3,0.6,0,1c1.1,1.5,1.9,3.2,2.9,4.8c0.3,0.5,0.4,1.3,0.9,1.3c0.6,0,0.6-0.8,0.8-1.3c0.2-0.6,0.6-1.1,1.3-0.9
	c0.7,0.3,0.8,0.8,0.6,1.5c-0.3,0.9-0.6,1.8-1,2.7c-0.2,0.5-0.2,1,0,1.5c0.8,1.5,1.7,2.9,2.5,4.4c0.3,0.6,0.7,0.8,1.5,0.7
	c1.6-0.2,3.1-0.1,4.5,1.1c2.1,1.6,4.6,2.8,7.2,3.6c1.1,0.4,2,1.3,3.4,0.9c-0.2-0.9-0.8-1.4-1.2-2.1c-0.4-0.7-0.7-1.3,0.1-1.7
	c0.8-0.4,1.2,0.3,1.5,0.9c0.4,0.8,0.8,1.6,1.3,2.3c0.5,0.7,0.7,1.7,1.7,2c4.1,1.2,8.1,2.8,12.1,4.3c2.3,0.8,4.5,1.8,6.5,3.3
	c0.2,0.1,0.3,0.4,0.7,0.2c0.3-1.5,0.7-3.1,0.8-4.8c0.4-4.5,0.3-9-1.5-13.3c-1.2-3.1-3.3-5.3-6.5-6.3c-1.1-0.4-2.3-0.8-3.4-1.1
	c-2.3-0.7-4.5-1.6-5.7-4c-0.2-0.3-0.4-0.7-0.9-0.7c-1.2,0-1.9-0.8-2.7-1.4c-1.4-1.2-1.8-2.7-1.3-4.3c0.5-1.5,1.9-2.2,3.4-2.5
	c0.4-0.1,0.8,0,1.1,0.2c1.1,0.9,2.3,1.7,3.1,2.9c0.8,1.1,0.2,3.2-1.1,3.7c-0.5,0.2-0.7,0.6-0.5,1c0.6,1,1.1,2,2.2,2.5
	c2.9,1.4,6.1,2.1,9.1,3.5c-0.1-0.7,0-1.3-0.1-2c-0.7-4.7-1.9-9.3-2.2-14c-0.1-0.9-0.4-1.8-0.8-2.6c-1-2-2.7-3.3-4.5-4.6
	c-3.6-2.5-6.7-5.6-10-8.3c-1.2-1-2.4-1.9-4-1.9c-0.5,0-1,0-1.5-0.1c-3.4-0.5-6.8-1-10.2-1.5c-0.6-0.1-1.1,0.1-1.6,0.5
	c-2.6,2.1-4.9,1.2-6.3-1.2c-0.9-1.5-0.6-3.2,0.6-4.3c1.1-1,3.2-1.2,4.5-0.5c1.2,0.6,1.9,1.6,2.4,2.8c0.2,0.5,0.2,1.1,0.8,1.2
	c1.5,0.3,3,0.6,4.6,0.4c0-0.5-0.8-1-0.1-1.3c0.5-0.3,1.4-0.4,1.7,0.3c1.1,2.3,3.2,1.8,5.2,1.9c-0.4-0.9-0.8-1.6-1-2.4
	c-1.1-3-2.3-5.9-3-9.1c-0.1-0.4-0.3-0.7-0.8-0.6c-1.4,0.3-2.4-0.5-3.4-1.5c-0.9-0.9-0.9-3.1,0.1-4c0.4-0.3,0.7-0.7,0.4-1.2
	c-0.8-1.3-1-2.9-1.6-4.4c-0.6-1.4-0.1-2.7,0.5-4c0.4-0.8-0.8-3.9-1.6-4.1c-0.1,0-0.3,0-0.5,0.1c-1.5,0.2-2.9,0.3-4.4,0.5
	c-0.4,0-0.8,0-1.2-0.1c-0.3-0.1-0.5-0.2-0.6-0.5c-0.1-0.3,0.2-0.4,0.4-0.5c0.9-0.7,1.9-0.7,3-0.8c0.7,0,1.3-0.1,2-0.4
	c-2.4-2.1-4.5-4.2-7.2-5.6c-0.7-0.4-1.3-0.6-2,0c-0.7,0.5-1.4,0.6-2.3,0.4c-3.1-0.6-5.1-2.1-5.9-5.4c-0.5-2.2,0.3-3.6,1.7-4.9
	c1.2-1.2,2.7-1.7,4.5-1.1c1,0.3,1.9,0.9,2.7,1.5c2,1.3,3,4.1,2.1,6.2c-0.7,1.7-0.7,1.7,0.8,2.7c4,2.5,7.7,5.3,9.9,9.6
	c0.4,0.8,0.8,0.5,1.1,0c0.6-1.2,1.1-2.4,1.6-3.6c1-2.1,1.4-4.5,2.8-6.5c0.2-0.3,0-0.7-0.2-1c-0.6-1.1-1.2-2.3-1.8-3.4
	c-0.3-0.5-0.2-0.9,0.2-1.3c0.5-0.4,0.8,0,1.1,0.4c0.6,0.8,1,1.7,1.4,2.8C-415.8,102.7-415.7,102.6-415.6,102.5z M-303.4,172.8
	c0.5-2.1-0.9-4.1-2.9-5c-1.3-0.6-2.5,0-3.8-0.1c-4.1-0.3-6.6,1.8-8.2,5.5c-0.7,1.6-0.1,2.8,0.7,4c1.1,1.8,2.8,2.7,4.7,3
	C-308.1,179.7-304.6,177.7-303.4,172.8z M-349.3,135.1c2.1-0.6,3.3-2.3,4-4.3c1.2-3.7-0.6-6.9-4.4-7.9c-2-0.5-4.1-1-5.5,1
	c-1,1.5-1.8,3.3-1.8,5.3C-357,133.6-352.7,136-349.3,135.1z M-401.8,81.8c-0.1-2.8-3-5.5-5.6-5.3c-3.2,0.2-5.9,2.8-5.7,5.7
	c0.2,2.8,2.9,5.2,5.8,5.1C-404.1,87.3-401.6,84.5-401.8,81.8z M-490.6,174.4c0.3-1.9-1.2-4.2-3.2-4.9c-1.5-0.5-2.9-0.9-4.5-0.4
	c-0.7,0.3-1.3,0.6-1.7,1.4c-1.9,3.6,0.7,8,4.8,8C-492.8,178.5-491,176.8-490.6,174.4z M-442.9,100.5c0,2.6,2.4,4.8,5.2,4.7
	c1.8,0,3.5-2.2,3.4-4.3c-0.1-2.3-2.2-4.1-4.7-4C-441,96.9-442.9,98.7-442.9,100.5z M-381.2,120c0-2-2-3.6-4.5-3.6
	c-1.7,0-3.5,1.5-3.5,3.1c0,2.2,1.4,4.7,4.1,4.6C-382.9,124.1-381.2,122.3-381.2,120z M-377.7,227.5c2.1-0.9,2.9-4.5,1.3-6.2
	c-0.2-0.2-0.4-0.3-0.6-0.4c-1.2-0.5-2.5-0.6-3.7-0.5c-1.8,0.1-2.6,1.1-2.6,2.9C-383.3,226-380,228.5-377.7,227.5z M-470.2,197.4
	c0,2.2,1.6,3.9,3.9,3.9c2.3,0.1,3.6-0.8,3.6-2.7c0-1.8-1.3-4.2-4.2-3.9C-468.9,194.7-470.1,195.7-470.2,197.4z M-424.5,225.5
	c1.8-0.1,3.1-1.9,2.9-3.8c-0.1-0.9-0.9-1.4-1.7-1.2c-0.8,0.2-1.5-0.2-2-0.5c-1.4-0.6-2.7-0.1-3.1,1.4c-0.1,0.2-0.1,0.5-0.1,0.6
	C-428.5,224-426.5,225.6-424.5,225.5z M-458.8,146.5c0-1.2-1.9-3.4-3-3.2c-2,0.3-3.4,0.8-3.4,1.9c0,2.5,1.8,4.3,4.2,4.3
	C-459.9,149.5-458.8,148-458.8,146.5z M-363.5,169.9c0-1.8-1.6-3.4-3.4-3.3c-1.3,0-2.5,0.8-2.4,2.1c0,2.1,1.5,3.8,3.2,3.8
	C-364.4,172.4-363.5,171.5-363.5,169.9z M-338.9,204c1.7,0,2.9-0.9,2.9-2.2c0-1.5-1-2.3-2.7-2.3c-1.7,0-2.2,0.5-2.2,2
	C-340.8,203.2-340.2,204.1-338.9,204z M-408.9,169.8c0,1.4,1.5,3.2,2.6,3c1.3-0.2,2.4-0.8,2.4-2.3c0-1-1.6-2.3-2.9-2.3
	C-408.1,168.3-408.9,168.9-408.9,169.8z M-428.3,143.1c0-1.3-1-2.3-2.3-2.2c-1.3,0-2.8,1-2.8,2c0,0.8,1.6,2.3,2.6,2.3
	C-429.4,145.1-428.3,144.2-428.3,143.1z M-341.8,140.4c0.8-0.8,0.6-2-0.4-2.4c-1.4-0.6-3.5,0.2-4,1.6c-0.6,1.4,0,2.2,1.4,2.1
	C-343.6,141.6-342.6,141.2-341.8,140.4z M-485.5,157.2c0-1-0.8-1.7-1.9-1.7c-0.7,0-1.8,1.3-1.8,2.1c0,1.1,0.6,1.7,1.8,1.7
	C-486.1,159.4-485.5,158.7-485.5,157.2z M-418,130.2c0.2-0.6,0.3-1.2-0.3-1.5c-0.7-0.3-1.3-1.2-2.2-0.5c0,0,0,0.1-0.1,0.1
	c-1,0-1.7,0.4-1.5,1.5c0.2,0.9,1.3,1.6,2.7,1.5C-418.8,131.3-418.3,130.9-418,130.2z M-436.1,219.2c0-1.2-0.8-2.3-1.9-2.3
	c-1,0-1.6,0.7-1.7,2c0,0.9,0.7,1.5,2,1.5C-437,220.4-436.2,220.4-436.1,219.2z M-329.6,179.5c0-1-0.6-1.3-1.5-1.3
	c-1,0-2.6,1.1-2.6,1.9s0.9,1.4,2.2,1.4C-330.3,181.5-329.6,180.7-329.6,179.5z M-338.4,145.2c-0.1-0.9-0.8-1-1.5-1
	c-1.6,0-2.6,1-2.6,2.4c0,0.9,0.7,0.8,1.1,0.9C-340,147.5-338.3,146.2-338.4,145.2z M-365.7,216c0-0.7,0.1-1.7-1.1-1.5
	c-0.9,0.1-2.1,0-2.2,1.3c-0.1,1,0.9,1.9,2.1,1.8C-366.1,217.5-365.7,216.9-365.7,216z M-386.3,150c0.1-0.8-0.8-1.3-2.2-1.3
	c-0.8,0-1.3,0.6-1.3,1.4c0,1,0.9,1.2,1.5,1.4C-387.3,151.5-386.4,150.8-386.3,150z M-439,170.4c-0.7,0.3-1.2,1.1-1.1,1.7
	s0.3,1.7,1.3,1.6c0.7-0.1,1.2-0.7,1.3-1.4C-437.6,171.4-438.5,170.2-439,170.4z M-482.4,168c0-1.2-1-1.1-1.7-1.2
	c-0.6-0.1-1.3,0.3-1.2,1c0.1,0.8,0.8,1.2,1.6,1.3C-483,169-482.3,168.9-482.4,168z"/>
<path d="M-771.9,336.5c3.4,5.5,6.6,11.1,8.3,17.4c0.3,1,0.5,2,1.7,2.5c2.6,1.1,4.2,3.3,5.7,5.7c0.7,1.2,0.9,2.5,0.8,3.9
	c-0.2,1.5-0.6,1.8-2,1.3c-1.7-0.6-3.3-1.5-4.6-2.9c-0.4,0.8-0.3,1.4-0.4,2.1c-0.2,1.6-0.2,2.8,1.5,3.9c1.9,1.2,1,4.2-1.3,5
	c-1.2,0.4-2.4,0.1-3.3-0.9c-0.7-0.8-0.8-2.1-0.2-3.1c0.2-0.4,0.6-0.7,0.9-1.1c1.1-1.3,1-2.7,0.4-4.2c-0.9,0-1.2,0.6-1.7,1
	c-0.5,0.5-1,0.9-1.7,0.4c-0.6-0.4-0.3-1-0.2-1.5c0.2-0.7,0.4-1.4,0.5-2.1c0.1-0.5,0.5-1.1-0.3-1.6c-0.4,0.3-0.9,0.5-1.4,0.8
	c-0.6,0.3-1.2,0.9-1.8,0.5c-0.7-0.5-0.4-1.3-0.2-2c0.8-2.4,2.3-4.2,4.5-5.3c1.8-0.9,1.7-0.9,1.2-2.9c-0.8-3-2.2-5.8-3.6-8.6
	c-0.7-1.4-1.3-3-2.7-4c-0.7,0.6-0.9,1.4-1.1,2c-0.3,1.4-0.3,2.8,0,4.3c0.2,1.1,1.3,1.1,1.9,1.6c1,0.8,1.6,2.4,1.2,3.4
	c-0.5,1.2-2.1,2.1-3.4,1.5c-1.4-0.6-2.2-0.3-3.3,0.5c-1.8,1.3-3.4,0.3-3.5-1.9c0-1.1,0-2.1,1-2.8c0.4-0.3,0.6-0.7,0.7-1.2
	c0.6-3.5,2.2-6.5,4.3-9.2c0.7-0.9,0.6-1.4,0-2.2c-1.4-1.9-3.2-3.6-4.4-5.7c-0.2-0.3-0.6-0.6-1.1-0.4c-0.5,0.9-0.4,2.1-0.8,3.2
	c-0.5,1.3-0.9,1.5-2,0.6c-0.7-0.6-1.3-1.4-2.3-1.7c-0.8,1.5,0.1,2.7,0.3,4c0.2,1,1.2,0.9,1.9,1.3c1.8,1,2.1,3.2,0.6,4.3
	c-1,0.7-3,0.6-4.1-0.2c-1.1-0.8-1.3-1.8-0.9-3.4c0.2-0.6,0.8-1,0.7-1.7c-0.3-2.4-0.5-4.9-0.8-7.4c-0.9,0.2-1.3,0.9-1.8,1.3
	c-1.6,1.2-3.3,2-5.2,2.2c-0.9,0.1-1.5-0.3-1.1-1.3c1.5-4.2,3.2-8.3,7.8-10c0.8-0.3,1.1-0.8,1.3-1.5c0.8-2.9,1.6-5.8,2.4-8.8
	c0.3-1.1,0.8-2.1,0.9-3.5c-1.3,0.2-2.2,0.5-3.2,0.9c-1.8,0.8-3.6,0.6-5.4,0.3c-1.3-0.2-1.6-1.1-0.6-2.2s1.9-2.1,3-3.1
	c1.9-1.7,4.2-2.7,6.6-2c2.3,0.6,3.4-0.2,4.2-2.1c0.3-0.7,0.8-1.4,1.3-2c0.7-0.8,0.5-1.3,0-2.1c-2.2-3.5-4.4-7-7-10.3
	c-2.3-2.9-3.4-6.5-5.8-9.4c-0.3-0.3-0.5-0.8-0.3-1.1c0.6-1.1,0.4-2.2,0.3-3.4c0.6,0.1,0.7,0.3,0.8,0.6c1.8,3.5,3.4,7,5.5,10.3
	c2.4,3.7,5,7.4,7.4,11.2c2.5,3.9,5.5,7.4,8.6,10.9c1.3,1.4,1.3,1.4,3,0.5c1-0.5,1.9-1.3,3-1.5c2.4-0.4,3.2-2.1,3.7-4.1
	c0.8-3.1,2.9-5,5.8-6.2c1.5-0.6,2.7,0.3,2.6,1.9c0,0.8-0.4,1.4-0.8,2c-0.9,1.2-1.6,2.6-2.9,3.9c0.7,0,1,0,1.3,0
	c5.5-0.5,11-0.2,16.4,1c1.2,0.3,1.6-0.2,1.8-1.2c0.6-2.7,2.7-4.6,3.5-7.3c0.3-1,1.8-1.5,2.6-1.1c1,0.5,1.1,1.4,1.1,2.4
	c0,0.9-0.8,1.7-0.8,2.8c1.8-0.4,3.5-0.4,4.8-1.8c0.9-0.9,2.7-0.8,3.6-0.1c1,0.9,1.3,2.5,0.6,3.7c-1,1.8-3.5,2.1-4.9,0.6
	c-0.5-0.5-0.8-1.3-1.7-1c-2.5,0.6-4.4,1.9-6.3,4.3c4.4,0.3,7.4,3.4,11.4,3.9c1.4,0.2,2.7,2.4,2.5,3.7c-0.2,1-1.4,1.8-2.8,1.8
	c-1.6,0-2.8-0.9-2.6-2.7c0.1-1.3-0.4-1.8-1.3-2.2c-0.9-0.5-1.8-1.2-2.8-1.4c-3.1-0.7-6.1-1.7-9.2-2.5c-1.9-0.5-3.8-0.9-6.1-0.5
	c1.4,1.7,2.3,3.4,3.6,4.8c1.2,1.2,2.2,1.7,4,0.8c2.1-1.1,4.5-1.2,6.7-0.2c0.7,0.3,1.5,0.9,1.4,1.8c-0.1,0.8-0.8,1.1-1.4,1.5
	c-0.4,0.3-0.9,0.3-1.4,0.3c-0.8,0-1.5,0.1-2.6,0.2c1,1.4,2.6,1.7,3.6,2.5c1.2,0.9,2.2,1.2,3.7,0.4c2.1-1.2,4.4-0.5,6.5,0.2
	c1.3,0.4,1.4,1.5,0.3,2.4c-0.5,0.4-1.4,0.5-1.7,1.4c1.9,0.6,3.6,2.1,5.7,0.3c0.2-0.1,0.4-0.2,0.7-0.2c1.7-0.5,2.4-0.2,3.2,1.5
	c0.7,1.4,0.5,2.6-0.6,3.4c-1.2,0.8-2.8,0.8-3.7-0.2c-0.7-0.8-1.4-1.3-2.4-1.5c-1.7-0.5-3.3-1.2-4.9-1.9c-0.6-0.3-1.2-0.8-2.1-0.4
	c0,0.3,0,0.6,0,0.9c0.2,2.9-1.3,5.2-2.7,7.5c-0.4,0.6-1.1,1-1.5,0.2c-1.5-3-2-6.1-0.9-9.3c0.2-0.7,1.4-1.2,1-2
	c-0.4-0.7-1.4-1-2.1-1.5c-0.3-0.2-0.7-0.4-1-0.6c-4.5-2.4-8.6-5.2-11.5-9.6c-1.6-2.3-3.6-3.6-6.8-3.3c-4.9,0.5-9.6,1.6-14,3.8
	c-1.5,0.8-1.5,1-0.4,2.2c3.5,3.9,7.9,6.8,12,9.9c3.4,2.5,7,4.7,10.4,7.3c2.2,1.6,4.6,3,6.4,5c2.7,2.7,5.7,5.2,8.5,7.8
	c1,1,2.1,1.7,3.6,1.4c0.6-0.1,1.3,0.1,1.9,0.3c1.9,0.6,3.8,1.1,5.8,1.7c2.3,0.7,4.5,1.5,6.6,2.7c2.6,1.5,4.9,3.5,7.5,5.2
	c1,0.6,1.9,1,3.1,0.7c2.5-0.7,5.3-0.4,7.6-1.9c0.1-0.1,0.3-0.1,0.5-0.1c1.7-0.4,2.4,0.1,3,1.6c0.6,1.6,0.3,2.5-1,3.3
	s-2.6,0.5-3.5-0.8c-0.3-0.4-0.4-0.9-1-0.9c-1.8,0.2-3.6-0.1-5.3,0.8c1.6,2.6,3.9,4.5,5.5,6.9c0.9,1.3,1.7,2.5,3.5,2.9
	c1.5,0.3,1.9,1.6,1.7,3c-0.2,1.4-1.5,2.4-2.9,2.3c-1.4-0.1-2.3-1.1-2.3-2.6c0-1.2,0.6-2.3-0.2-3.5c-2.5-3.6-5.2-6.9-8.5-9.7
	c-0.7-0.6-1.4-1.5-2.7-1.3c0,2.4,0.3,4.7-0.1,7c-0.3,1.3-0.8,1.6-1.7,0.8c-2.7-2.3-4.6-5.1-4.2-8.9c0.1-0.6,0.2-1.1,0.3-1.7
	c0.2-1.1-0.1-1.8-1.2-2.3c-2.7-1.2-5.6-1.9-8.4-2.8c-0.7-0.2-1.5-0.2-2.3,0c0.7,1.6,2,2.5,3,3.7c4.5,5.3,8.3,11.1,12.3,16.8
	c0.9,1.3,1,1.3,2.2,0.5c2.9-2,6.2-1.9,8.8,0.3c1.2,1.1,1.1,1.4-0.3,2.1c-2.2,1.1-4.6,1.7-7,1.9c0.1,1,0.7,1,1.3,1
	c2.2-0.2,3.2,0.5,3.8,2.6c0.5,1.6-0.1,2.7-1.7,3.5c-1.2,0.6-2.5,0.3-3.4-0.9c-0.4-0.5-0.7-1.2-1.1-1.9c-0.4,1.3-0.8,2.4-1.2,3.5
	c-0.2,0.7-0.6,1.2-1.3,1.2s-0.8-0.7-1-1.2c-0.2-0.6,0-1.3-0.7-1.8c-1.6,0.7-3.4,1.2-5.2,1.5c-0.6,0.1-1.3,0.5-1.7-0.3
	c-0.3-0.6,0-1.1,0.3-1.5c2-2.6,3.7-5.4,6.3-7.5c0.9-0.7,1.1-1.2,0.5-2.3c-1.1-1.9-2.5-3.7-3.7-5.6c-2.2-3.5-4.8-6.8-7.4-10
	c-3.9-4.6-8.4-8.5-13-12.4c-0.6-0.5-1.3-1.6-2.1-1.2c-1,0.5-0.6,1.8-0.4,2.6c0.7,3.7,1.4,7.4,2.9,10.8c0.6,1.3,1.1,2.5,2.9,2.6
	c1.6,0.1,2.9,2.3,2.5,3.6c-0.4,1.3-2.3,2.4-3.6,2.2c-2-0.4-2.8-1.4-2.6-3.3c0.1-0.9,0.6-1.8,0.2-2.6c-0.8-2-1.8-4-2.7-6
	c-0.9,1.1-1,2.2-1.3,3.3c-0.7,2.7-1.9,5.1-3.9,7c-1.5,0.2-2.1,0.2-2.5-0.8c-0.5-1.3-1-2.6-1.1-3.9c-0.3-5.1,1-9.7,5.2-13
	c0.3-0.2,0.6-0.5,0.9-0.8c1.1-1.3,0.9-4.5-0.3-5.5c-3.7-2.9-7.9-5.2-11.9-7.5c-0.9-0.5-1.9-1.9-2.9-1.1c-1,0.7-0.5,2.3-0.4,3.4
	c0.2,4,1,7.9,2,11.8c1.7,7,4.2,13.7,6.5,20.6c1.9,5.8,5,10.9,8.4,16c1.7,2.6,3.7,5,5.6,7.5c1.4,1.9,2.7,4,4,6c1,1.4,2.2,2.2,4,1.8
	c1.6-0.4,3.2-0.4,4.8-0.1c1.6,0.3,2.8-0.2,4.1-1.3c2.2-2,4.7-3.3,7.9-2.5c1,0.2,2.2,0.2,2.6,1.4c0.4,1.3-0.7,2-1.5,2.8
	c-0.5,0.4-1.1,0.6-1.7,0.9c-0.4,0.3-1.2,0.1-1.2,0.9c1.2,1,2.5,1.3,4,1c1.4-0.2,2.2,0.7,2.8,1.8c0.5,0.9,0.3,1.7-0.4,2.4
	c-0.8,0.9-2.1,1.2-3.3,0.7c-0.8-0.3-1.3-0.9-1.4-1.8c-0.1-1-0.6-1.5-1.5-1.9c-4.2-2-8.7-2.6-13.3-2.5c-0.7,0-1.4-0.1-2,0.7
	c1.8,2.8,3.8,5.5,5.9,8.1c1,1.2,1.9,1.5,3.5,1.1c3.8-1,7.2,0.4,10.2,2.7c0.8,0.6,0.7,1.3-0.1,1.9c-0.9,0.6-1.8,1.1-2.8,1.3
	c-0.9,0.2-1.2,0.7-1.1,1.5c0,0.6,0.1,1.1,0,1.7c-0.2,2-1.4,3-3.4,3c-2.2,0-3.3-1.1-3.4-3.5c0-0.9,0.3-1.9-0.3-2.8
	c-1.2-1.9-2.4-3.8-3.6-5.7c-0.3-0.4-0.6-1-1.4-0.7c0,0.4-0.1,0.8-0.1,1.1c-0.2,1.6-0.2,3.2-0.8,4.7c-0.7,1.6-1,1.7-2.5,1.1
	c-1.5-0.6-2.1-1.8-2.5-3.3c-0.5-2-0.6-4.1-0.7-6.2c-0.1-1.6-0.3-1.7-1.7-1.3c-1.2,0.4-2.5,0.6-3.7,0.8c-0.5,0.1-1-0.1-1.2-0.6
	s-0.1-0.9,0.2-1.3c0.3-0.3,0.6-0.6,0.8-0.9c1.4-1.7,3.2-3,5.1-4.2c-1.1-2.1-2.5-3.7-3.7-5.5c-2.3-3.5-5.3-6.4-7.4-10
	c-0.8-1.4-1.4-1.4-2.1,0.2c-2.8,5.5-4.9,11.3-5.3,17.5c-0.1,1.4-0.2,2.5,1.5,3.2c1.5,0.6,1.8,2.7,1.1,4c-1,1.8-2.2,2.3-4.2,1.5
	c-1.2-0.4-1.9-2.1-1.7-3.6c0.1-0.6,0.5-1.1,0.8-1.7c0.7-1.7,1.1-3.5,0.6-5.4c-1,0.4-1.3,1-1.8,1.6c-2.4,2.9-5.3,4.8-9.3,4.6
	c-1.6-0.1-1.7-0.2-1.5-1.8c0.2-1.7,1-3.1,2-4.3c2.8-3.6,5.7-7,11-6c0.8,0.1,1.2-0.2,1.5-0.9c0.6-1.5,1.2-3,1.8-4.4
	c0.8-2.1,1.2-4.4,2.6-6.2c0.9-1.2,0.7-2.1,0-3.2c-1.6-2.7-3.3-5.5-4.3-8.5c-1.7-4.8-3.4-9.6-4.9-14.5c-2.2-7.3-4.3-14.5-4.6-22.2
	c0-1.3,0.1-2.6-0.2-3.8c-0.3-1.2-2-1.7-2.9-2.7c-6.1-5.9-11.7-12.1-17.4-18.5c-1.1-1.3-1.3-1.3-2.3,0c-2.2,3.2-4.2,6.6-5.4,10.4
	c-0.9,2.7-1.6,5.5-2.5,8.2c-0.8,2.4-0.3,4.3,1.9,5.8c0.7,0.5,1.4,1.1,1.9,1.8c1.5,2.1,1.5,2.1,4,1.1c3-1.2,5.8-0.7,8.4,1
	c1.2,0.8,1.2,1.4,0,2.1c-1.7,1.1-3.4,2.1-5.6,1.7c-0.4-0.1-1-0.1-1.4,0.5C-774.1,334.1-772.7,335.1-771.9,336.5z M-738,340.5
	c-2.1,2.8-3.4,5.9-3.2,9.5c0,0.1,0,0.2,0,0.2c0.3,0.7,0.2,1.8,1,2c1,0.3,1.5-0.8,1.9-1.5c1.8-3.3,2.4-6.9,2.9-10.5
	c0.1-0.5,0-0.9-0.3-1.4C-736.7,339.2-737.5,339.8-738,340.5z M-750.8,387.5c-2.4,1.6-4.2,3.7-5.4,6.2c-0.6,1.2-0.2,1.6,1.1,1.4
	c1.1-0.2,2.2-0.4,3.1-1.1c2.2-1.7,4.3-3.6,5.6-6.1c0.2-0.4,0.6-0.8,0.2-1.3c-0.3-0.4-0.8-0.4-1.3-0.3
	C-748.5,386.6-749.7,386.8-750.8,387.5z M-722.5,404.1c0.1,0.5,0.5,1,0.8,1.4c0.5,0.6,1.1,0.7,1.5-0.2c1.1-2.5,1-7.8-1.1-9.7
	c-0.8-0.7-1.2-0.8-1.5,0.2c-0.3,1-0.3,2-0.5,3.1C-723,400.6-722.8,402.4-722.5,404.1z M-787.2,323.9c-0.5-0.2-0.9,0-1.3,0.3
	c-2.2,1.4-3.5,3.4-4.3,5.8c-0.2,0.6,0,1,0.7,0.9c1.7-0.1,5.4-4,5.4-5.8C-786.7,324.7-786.7,324.2-787.2,323.9z M-758.5,365.3
	c0.4,0.3,0.9,0.5,1.3,0.2c0.6-0.3,0.5-1,0.3-1.5c-0.8-2.7-2.8-4.3-5.3-5.5C-762.3,361.5-760.8,363.6-758.5,365.3z M-783.2,331.7
	c0.3,0.3,0.6,0.8,1.2,0.7c0.7-0.2,0.7-0.8,0.8-1.3c0.4-2.5-0.7-4.6-3.4-6.2C-785.1,327.5-785.1,329.8-783.2,331.7z M-705.9,348.9
	c-0.7-0.9-1.3-0.8-1.6,0.3c-0.8,2.5,0.1,5.1,2.8,7C-703.9,353.4-704.2,351-705.9,348.9z M-787.2,307.3c1.9-0.4,3.6-1.3,5.2-2.1
	c0.4-0.2,0.7-0.5,0.6-0.9c-0.1-0.4-0.5-0.6-0.9-0.6c-1.4-0.3-2.8-0.2-4.1,0.6c-1.2,0.7-2.4,1.5-3.2,3
	C-788.7,307.7-788,307.5-787.2,307.3z M-706.8,370.8c0.6-0.8,1.2-1.7,1.8-2.5c0.3-0.4,0.4-0.9,0-1.3c-0.4-0.5-0.9-0.2-1.3,0
	c-1.4,0.9-2.5,2.2-3.5,3.5c-0.6,0.7-1.1,1.5-1.8,2.7C-709.3,373.2-708,372.2-706.8,370.8z M-724.8,320.5c-0.2-0.5-0.4-1.1-1.1-1.1
	c-0.6,0-1.1,0.5-1.2,1c-0.7,2.1-1,4.1,0.3,6.2C-725.1,324.9-724.2,322-724.8,320.5z M-711.5,402.9c-0.3,0.1-0.6,0.1-0.8,0.5
	c-0.1,0.3,0.1,0.6,0.4,0.8c1.7,1.5,5.5,1.8,7.9,0.5C-706.5,403.2-708.8,402.3-711.5,402.9z M-776.1,329.3c-0.1,1.2,1.5,1.1,2.4,1.2
	c1,0.1,2.1,0.1,3-0.3c0.4-0.1,0.8-0.3,0.9-0.7c0-0.6-0.5-0.7-1-0.8c-0.9-0.2-1.9-0.4-2.8-0.5C-774.4,328.4-776,328.2-776.1,329.3z
	 M-750.9,295.2c-2.4-0.2-4.6,1.9-5,5C-753.2,299.4-752.1,297.3-750.9,295.2z M-775.1,344.8c-2.2,2.6-2.2,3.9,0.2,5.9
	C-773.8,348.6-774.7,346.8-775.1,344.8z M-708.9,407.9c-0.7,0-2,1.6-2,2.4c0,0.7,0.7,1.4,1.7,1.3c1.2,0,1.8-0.7,1.8-2
	C-707.4,408.5-708,407.8-708.9,407.9z M-702.1,364.7c-0.3,0.3-0.6,0.6-0.4,1c0.2,0.3,0.5,0.3,0.8,0.4c1.6,0.2,3.2-0.1,4.6-1.3
	C-698.9,363.5-701,363.5-702.1,364.7z M-710.8,389.2c2.3,0.9,4.3,0.5,6.7-1.4C-706.8,387-708.8,387.6-710.8,389.2z M-699.6,370.3
	c-0.8,0-1.6,1.1-1.4,2.1c0.1,0.7,0.5,1.1,1.2,1.1c1.1,0,1.8-0.6,1.8-1.5C-698,371.1-698.8,370.3-699.6,370.3z M-742.4,398.8
	c0.1-1-0.6-1.4-1.5-1.5c-1-0.1-1.6,0.4-1.6,1.3c0,0.9,0.5,1.5,1.5,1.6C-743.2,400.1-742.5,399.7-742.4,398.8z M-730.1,353.6
	c0.1,1,0.9,1.1,1.6,1.1c0.8,0,1.6-0.3,1.6-1.3c0-0.8-0.7-1.2-1.4-1.4C-729.1,352-730.2,353-730.1,353.6z M-723.8,393.3
	c-1.9-0.2-3.1,0.3-4.5,2.1C-726.2,395.4-724.8,394.9-723.8,393.3z M-720.1,296.7c-0.8,0-1.6,0.2-1.7,1.2c-0.1,0.8,0.5,1.1,1.2,1.1
	c0.8,0,1.3-0.5,1.3-1.3C-719.3,297.1-719.5,296.6-720.1,296.7z M-687.4,351.2c0-0.8-0.4-1.4-1.3-1.5s-1,0.6-1,1.3
	c-0.1,0.7,0.2,1.2,1,1.3C-688,352.3-687.4,351.9-687.4,351.2z M-710.8,322.2c0-0.7-0.2-1.3-1-1.3c-0.9-0.1-1.4,0.4-1.5,1.2
	c-0.1,0.7,0.4,1.1,1.1,1.2C-711.4,323.2-710.8,323-710.8,322.2z M-764.3,372.7c0.1,0.6,0.2,1.1,1,1.1c0.8,0,1.6-0.8,1.6-1.4
	c-0.1-0.7-0.6-1.1-1.3-1C-763.9,371.4-764.4,371.8-764.3,372.7z M-728.8,310.3c-1.5-0.8-2.9-0.6-4.4,0
	C-731.7,311.1-730.2,311.1-728.8,310.3z M-723.8,316.9c1.7,1.1,3.1,1.1,4.7,0.1C-720.7,316.2-722.1,316.3-723.8,316.9z
	 M-688.7,363.8c-0.8,0-1.3,0.6-1.4,1.3c-0.1,0.5,0.4,0.6,0.8,0.6c0.6-0.1,1.3-0.1,1.4-0.9C-688,364.3-688.2,363.8-688.7,363.8z
	 M-718.7,309.9c-0.1-0.6-0.6-0.9-1.2-1c-0.7,0-0.9,0.6-1,1.1c-0.1,0.8,0.6,0.7,1.1,0.8C-719.1,310.8-718.6,310.7-718.7,309.9z
	 M-727.7,297.6c-2.3-0.2-2.3-0.2-3.3,2.1C-729.5,299.4-728.6,298.6-727.7,297.6z M-778.6,351.7c-0.1,0.6,0.2,0.9,0.8,0.9
	c0.6,0,1.2-0.1,1.2-0.9c0-0.5-0.2-0.9-0.8-1C-778,350.8-778.5,351.1-778.6,351.7z M-784,339.1c-0.6,0-1.1,0.2-1,0.9
	c0.2,0.8,0.9,0.7,1.5,0.7c0.5,0,0.9-0.2,1-0.8C-782.7,339.2-783.4,339.1-784,339.1z M-768.8,360.3c1.6-0.4,2.3-1.3,2.9-2.4
	C-767.3,358.1-768,358.9-768.8,360.3z M-764.6,361.3c0-0.3,0.1-0.7-0.4-0.7c-0.4,0-0.6,0.2-0.7,0.5c-0.2,0.9-0.3,1.8-0.5,3.3
	C-765,363.3-764.8,362.3-764.6,361.3z M-702.2,394.5c-0.4,0.1-1,0.3-0.9,0.9c0.2,0.8,1,0.5,1.5,0.5c0.4,0,0.7-0.3,0.6-0.8
	C-701.1,394.5-701.6,394.4-702.2,394.5z M-772.2,351.7c0.5,0,1-0.1,1-0.7c0-0.3-0.3-0.6-0.6-0.6c-0.6-0.1-0.8,0.4-0.9,0.7
	C-772.8,351.5-772.6,351.7-772.2,351.7z M-727.9,293.9c-0.3,0-0.7,0.1-0.7,0.5s0.2,0.6,0.5,0.7c0.4,0,0.6-0.2,0.7-0.5
	C-727.4,294.1-727.5,293.9-727.9,293.9z"/>
<path d="M-319.7,345.5c0.6,0.3,1.1,0.6,1.7,0.9c2.9,1.4,2.9,1.4,5-0.9c0.7-0.8,1.4-1.5,2.2-2.2c0.8-0.8,1.6-0.9,2.5-0.1
	c1.1,1,2.4,1.6,3.6,2.3c0.9,0.5,1.5,0.3,2-0.6c1-1.7,2-3.5,3-5.2c1.2-2,1.2-2,2.8-0.5c2.1,2,3.9,4.2,5.7,6.5c1,1.2,1.4,1.3,2.4,0.2
	c0.7-0.7,1.3-1.5,2-2.1c1.5-1.4,3.7-2.2,5.3,0c0.8,1.1,2,1.8,2.9,2.8c0.9,0.9,1.7,1,2.7,0.3c1.2-0.8,2.5-1.5,3.8-2
	c1-0.4,1.5-0.1,1.8,0.9c0.2,0.9,0.2,1.7,0.1,2.6c-0.4,3.3-0.8,6.7-0.8,10c0,2.6,0,5.3,0,7.9c0,1.5-0.1,3-0.4,4.5
	c-0.2,1.1-0.8,1.7-1.9,1.7c-2.5,0-4.9,0.1-7.4,0.2c-7.1,0.1-14.2-0.2-21.3-0.3c-5-0.1-10.1-0.3-15.1-0.1c-2.3,0.1-2.2,0-2.5-2.4
	c-0.7-5.9-1.5-11.9-2.9-17.7c-0.5-2.1-0.9-4.2-0.9-6.4c0-0.6-0.4-1.3,0.2-1.8c0.8-0.6,1.3,0.3,1.9,0.5
	C-320.9,344.9-320.3,345.2-319.7,345.5L-319.7,345.5z M-321.6,346.7c-0.5,0.2-0.4,0.5-0.4,0.7c0.8,5.4,2.6,10.7,3.1,16.2
	c0.1,0.8,0.5,1.3,1.4,1.3c2,0.1,4,0.5,5.9,0.5c8.4,0.3,16.9,0.6,25.3,0.9c3.9,0.1,7.8,0.1,11.7-0.1c1.9-0.1,2-0.3,2-2.1
	c0.1-2.7,0.1-5.4,0.3-8.1c0.1-2.4,0.4-4.8,0.5-7.1c0.1-2.2-0.6-2.5-2.5-1.5c-0.7,0.4-1.4,0.8-2,1.3c-2.8,1.9-5.5,3.8-8.3,5.7
	c-1.4,1-1.8,1-2.7-0.4c-1.6-2.2-3.4-4.2-4.9-6.5c-1.4-2.2-2.8-4.4-5-6.1c-1.2-0.9-1.8-0.9-2.5,0.3c-1.8,3.3-3.6,6.6-5.3,9.9
	c-1,1.9-1.7,2.4-3.7,1.5c-1.2-0.6-2.4-1.2-3.6-1.9C-315.3,349.6-318.4,347.9-321.6,346.7z M-318.1,366.7c0,0.5,0,0.7,0,0.9
	c0.2,3,0.4,3.2,3.3,3c8.9-0.4,17.9,0.4,26.8,0.3c4.6,0,9.2,0.1,13.8-0.2c1.2-0.1,1.6-0.6,1.6-1.8c-0.1-1.1-0.8-1-1.5-1
	c-1.5,0.1-3,0.3-4.5,0.3c-10.3-0.1-20.6-0.6-30.9-0.9C-312.4,367.1-315.2,366.5-318.1,366.7z"/>
</svg>
