<?xml version="1.0" encoding="utf-8"?>
<!-- Generator: Adobe Illustrator 16.0.0, SVG Export Plug-In . SVG Version: 6.00 Build 0)  -->
<!DOCTYPE svg PUBLIC "-//W3C//DTD SVG 1.1//EN" "http://www.w3.org/Graphics/SVG/1.1/DTD/svg11.dtd">
<svg version="1.1" id="Слой_1" xmlns="http://www.w3.org/2000/svg" xmlns:xlink="http://www.w3.org/1999/xlink" x="0px" y="0px"
	 width="300px" height="300px" viewBox="0 0 300 300" enable-background="new 0 0 300 300" xml:space="preserve">
<g>
	<rect y="-0.116" fill="#D2D5D4" width="301.231" height="301.231"/>
</g>
<g>
	<path fill="#FFFFFF" d="M243.443,301.066c0,0-0.054-0.499-0.157-1.409c-0.034-0.304-0.073-0.653-0.118-1.045
		s-0.096-0.825-0.15-1.299s-0.115-0.986-0.181-1.534c-0.13-1.098-0.278-2.338-0.445-3.697c-0.084-0.68-0.172-1.389-0.264-2.123
		c-0.046-0.368-0.094-0.742-0.142-1.122c-2.167-17.112-6.426-46.681-10.528-51.717c-11.22-13.75-50.849-23.145-58.716-24.897
		l-1.346-9.634v-15.991c10.544-8.774,19.072-22.835,24.101-37.967c0.454,0.079,0.913,0.128,1.381,0.128
		c6.742,0,11.853-12.877,11.853-23.258c0-5.429-1.407-9.086-3.705-11.354c0.126-0.807,3.966-25.915-4.168-42.167
		c-7.545-15.077-30.48-27.613-52.4-27.613S104.298,56.903,96.753,71.98c-8.067,16.121-5.042,40.956-4.891,42.148
		c-2.31,2.266-3.725,5.928-3.725,11.373c0,10.381,5.11,23.258,11.852,23.258c0.467,0,0.926-0.049,1.38-0.128
		c5.034,15.149,13.577,29.225,24.137,37.997v1.324v14.487c-0.008-0.012-0.017-0.021-0.025-0.032l-1.399,9.823
		c-7.935,1.768-47.517,11.156-58.723,24.891c-5.837,7.162-11.987,63.945-11.987,63.945h84.131l22.604,0.05l-0.006-0.05H243.443z"/>
</g>
</svg>
